<svg id="Group_833" data-name="Group 833" xmlns="http://www.w3.org/2000/svg" xmlns:xlink="http://www.w3.org/1999/xlink" width="340" height="232.744" viewBox="0 0 340 232.744">
  <defs>
    <clipPath id="clip-path">
      <rect id="Rectangle_371" data-name="Rectangle 371" width="340" height="232.744" fill="none"/>
    </clipPath>
  </defs>
  <g id="Group_832" data-name="Group 832" clip-path="url(#clip-path)">
    <path id="Path_426" data-name="Path 426" d="M339.989,228.222c0,.293,0,.586,0,.879,0,3.636,0,3.643-3.761,3.643q-83.206,0-166.413,0H4.778c-.917,0-1.835-.038-2.75-.009-1.478.046-2.076-.657-2.009-2.018.032-.658,0-1.318,0-1.977q0-112.378,0-224.757c0-.586.044-1.175,0-1.757C-.112.634.618-.091,2.29.009c.761.046,1.527,0,2.291,0q165.381,0,330.762,0c5.188,0,4.639-.3,4.64,4.552q.011,111.829.005,223.658" transform="translate(0 0)" fill="#2b2b3c"/>
    <path id="Path_427" data-name="Path 427" d="M17.027,240.237V17.006H347.081q.009,90.428.006,180.858v42.371H17.027Z" transform="translate(-12.054 -12.245)" fill="#4ecbfb"/>
    <path id="Path_428" data-name="Path 428" d="M138.527,342.266a5.98,5.98,0,0,1-5.825-3.642c-.725-1.792-.861-4.492,2.6-7.184.085-.066.171-.13.248-.2q34.68-34.824,69.385-69.622l12.721-12.76c1.574-1.579,3.19-3.2,5.9-3.2,2.6,0,4.174,1.466,5.845,3.018,4.21,3.913,19.829,18.442,23.431,21.791q21.768-29.6,43.526-59.2l6.441-8.76c1.7-2.311,3.3-4.493,6.471-4.493,3.234,0,4.8,2.223,6.454,4.576q45.406,64.562,90.8,129.134c.052.064.111.127.168.192,2.7,3.044,2.188,5.6,1.285,7.2a6.289,6.289,0,0,1-5.692,3.124,12.772,12.772,0,0,1-1.393-.09c-.1-.01-.192-.022-.285-.029q-52.037.025-104.082.018H241.764q-50.734,0-101.462-.019c-.1.007-.2.02-.3.032a12.883,12.883,0,0,1-1.472.1" transform="translate(-93.652 -142.588)" fill="#2b2b3c"/>
    <path id="Path_429" data-name="Path 429" d="M282.385,349.623q-65.037,0-130.073-.018c-1.014,0-2.528.512-2.928-.476-.385-.95,1.06-1.626,1.771-2.34q41.056-41.226,82.144-82.421c2.287-2.294,2.29-2.3,4.713-.054q12.629,11.737,25.25,23.481c2.328,2.163,2.351,2.167,4.272-.445q25.695-34.934,51.378-69.875c2.428-3.3,2.434-3.309,4.762,0q45.42,64.582,90.823,129.175c.532.757,1.668,1.563,1.172,2.446-.56,1-1.946.508-2.964.509q-65.161.031-130.321.018" transform="translate(-105.712 -154.81)" fill="#3db677"/>
    <path id="Path_430" data-name="Path 430" d="M164.557,138.222A40.407,40.407,0,0,1,136.4,126.994a37.267,37.267,0,0,1-11.618-27.163c.072-20.99,17.95-38.066,39.852-38.066h.06a40.453,40.453,0,0,1,28.084,11.262,36.944,36.944,0,0,1,.09,53.948,40.55,40.55,0,0,1-28.257,11.247Z" transform="translate(-88.343 -44.475)" fill="#2b2b3c"/>
    <path id="Path_431" data-name="Path 431" d="M176.58,145.693c-19.317-.026-34.884-15.058-34.821-33.623.063-18.337,15.813-33.358,34.948-33.33,19.089.028,34.845,15.138,34.879,33.452.034,18.477-15.692,33.528-35.006,33.5" transform="translate(-100.36 -56.698)" fill="#ffd732"/>
  </g>
</svg>
