<svg id="Gear_Icon" data-name="Gear Icon" xmlns="http://www.w3.org/2000/svg" width="43.422" height="43.502" viewBox="0 0 43.422 43.502">
  <path id="Path_414" data-name="Path 414" d="M41.505,19.552c.432-.086.862-.186,1.3-.266a.946.946,0,0,0,.621-.357v-.782c-.1-.441-.2-.882-.3-1.324-.047-.212-.087-.425-.133-.637a.7.7,0,0,0-.895-.584c-.474.1-.948.2-1.421.3a.556.556,0,0,1-.591-.227,1.927,1.927,0,0,1-.229-.415c-.3-.689-.594-1.38-.888-2.071a.772.772,0,0,1,.3-1.1c.348-.206.674-.448,1.007-.679a.714.714,0,0,0,.229-1.071q-.615-.945-1.271-1.863a.7.7,0,0,0-1.073-.165c-.371.252-.742.5-1.11.759a.616.616,0,0,1-.763.022,1.215,1.215,0,0,1-.186-.149q-.875-.859-1.745-1.721a1.875,1.875,0,0,1-.244-.3.5.5,0,0,1,.009-.606c.274-.4.536-.807.8-1.213a.677.677,0,0,0-.172-1.025c-.664-.462-1.345-.9-2.026-1.339a.543.543,0,0,0-.669.054,2.259,2.259,0,0,0-.385.435c-.209.295-.4.6-.6.9a.687.687,0,0,1-.946.306c-.236-.091-.463-.2-.7-.3-.524-.208-1.047-.415-1.575-.613a.718.718,0,0,1-.54-.946c.077-.4.156-.809.229-1.215a.716.716,0,0,0-.6-.933c-.664-.143-1.333-.26-2-.39A1.137,1.137,0,0,1,24.794,0h-.347a.882.882,0,0,0-.624.8c-.059.415-.152.825-.232,1.237a.523.523,0,0,1-.5.49c-.271.031-.548.015-.823.021-.622.015-1.243.023-1.865.05a.718.718,0,0,1-.858-.649c-.084-.411-.165-.823-.255-1.232-.122-.557-.4-.741-.951-.63Q17.269.3,16.2.529a.707.707,0,0,0-.587.885c.089.476.186.951.3,1.422a.5.5,0,0,1-.2.572,2.466,2.466,0,0,1-.468.27c-.728.32-1.458.632-2.19.942a.715.715,0,0,1-.9-.311c-.246-.349-.485-.7-.727-1.054a.688.688,0,0,0-1.088-.224c-.46.3-.911.615-1.366.923q-.225.152-.45.3A.7.7,0,0,0,8.3,5.321c.232.358.48.706.721,1.058a.735.735,0,0,1-.1,1.067c-.238.243-.49.472-.728.715-.3.31-.595.633-.9.94a2.028,2.028,0,0,1-.393.3.522.522,0,0,1-.609-.026c-.381-.262-.773-.509-1.162-.761a.722.722,0,0,0-1.078.192c-.191.263-.36.542-.538.814-.234.357-.47.712-.7,1.071A.694.694,0,0,0,3,11.7c.4.272.81.531,1.221.787a.66.66,0,0,1,.225.9c-.164.4-.351.794-.514,1.2-.139.341-.251.693-.391,1.033a1.943,1.943,0,0,1-.25.427.509.509,0,0,1-.537.2c-.44-.087-.879-.177-1.322-.247A1.391,1.391,0,0,0,.9,16a.665.665,0,0,0-.47.615C.3,17.332.17,18.05.036,18.767A.323.323,0,0,1,0,18.843V19.1a.836.836,0,0,0,.755.583c.4.051.8.143,1.2.213a.682.682,0,0,1,.61.7c.016.376,0,.752,0,1.129.006.441.031.882.029,1.323a1.785,1.785,0,0,1-.081.529.521.521,0,0,1-.43.353c-.461.091-.92.191-1.38.289a.681.681,0,0,0-.614.92q.22,1.084.449,2.166a.711.711,0,0,0,.881.594c.427-.077.852-.163,1.274-.265a.684.684,0,0,1,.931.459c.227.547.442,1.1.669,1.646.1.233.223.455.322.687a.626.626,0,0,1-.273.922c-.36.243-.72.485-1.077.731a.719.719,0,0,0-.215,1.117c.406.6.818,1.193,1.227,1.79a.685.685,0,0,0,1.059.221c.359-.231.709-.475,1.061-.716a.707.707,0,0,1,1.072.1c.3.3.592.615.9.915.236.234.488.452.727.684a2.526,2.526,0,0,1,.266.313.578.578,0,0,1,0,.77c-.28.376-.526.779-.781,1.174a.653.653,0,0,0,.2.98q.965.645,1.945,1.268a.949.949,0,0,0,.4.141.634.634,0,0,0,.605-.349c.28-.439.547-.886.842-1.314a.517.517,0,0,1,.353-.195,1.294,1.294,0,0,1,.523.109c.6.24,1.186.5,1.78.744.22.091.457.144.667.252a.563.563,0,0,1,.349.741c-.081.434-.167.866-.249,1.3a.713.713,0,0,0,.658.956c.527.069,1.548.324,1.537.324.021,0,.943.1,1.075.085.042,0,.087-.015.129-.016H19.4a.874.874,0,0,1,.055-.073,3.98,3.98,0,0,0,.215-.561c.107-.479.2-.963.278-1.447A.458.458,0,0,1,20.336,41a2.612,2.612,0,0,1,.473-.042c.787-.018,1.575-.027,2.362-.047a.841.841,0,0,1,.793.61c.09.431.166.867.278,1.292a3.424,3.424,0,0,0,.257.575c.261,0,1.74-.179,2.153-.266.255-.054.511-.1.763-.163a.611.611,0,0,0,.506-.791c-.09-.469-.18-.938-.29-1.4a.634.634,0,0,1,.282-.732,2.455,2.455,0,0,1,.419-.224q1.015-.438,2.034-.864a1.778,1.778,0,0,1,.308-.1.567.567,0,0,1,.639.256q.389.575.782,1.147a.708.708,0,0,0,1.125.22q.89-.6,1.776-1.207a.69.69,0,0,0,.2-1.12c-.246-.358-.488-.718-.739-1.072a.612.612,0,0,1,.052-.878c.436-.454.886-.894,1.327-1.343.162-.165.314-.34.473-.508a.719.719,0,0,1,1.042-.127c.357.234.712.471,1.071.7a.68.68,0,0,0,1.059-.219q.626-.938,1.238-1.886a.652.652,0,0,0-.169-.97c-.415-.287-.845-.554-1.279-.813a.555.555,0,0,1-.231-.765c.173-.437.357-.869.531-1.305.139-.349.262-.7.4-1.052a2.059,2.059,0,0,1,.238-.434.5.5,0,0,1,.55-.2c.487.107.979.193,1.469.284a.641.641,0,0,0,.841-.58c.1-.525.2-1.051.3-1.576a.725.725,0,0,1,.044-.117V24.141a1.682,1.682,0,0,0-.99-.38c-.348-.066-.7-.124-1.046-.185a.506.506,0,0,1-.4-.524c-.016-.434-.01-.868-.017-1.3s-.022-.839-.025-1.258a2.049,2.049,0,0,1,.037-.43.615.615,0,0,1,.524-.509M21.717,37.522A15.766,15.766,0,1,1,37.524,21.839,15.77,15.77,0,0,1,21.717,37.522" transform="translate(0 0.002)" fill="#c90"/>
  <path id="Path_415" data-name="Path 415" d="M390.008,230.85l-1.323,2.907,2.558,1.168,1.327-2.9c.062.094.112.158.151.229a2.874,2.874,0,0,1-2.5,4.349.265.265,0,0,0-.3.169q-2.839,6.225-5.689,12.444c-.024.052-.044.106-.06.145a2.933,2.933,0,0,1-1.819,4.979l1.325-2.914-2.558-1.168-1.321,2.887a2.735,2.735,0,0,1-.516-1.264,2.846,2.846,0,0,1,2.866-3.308.282.282,0,0,0,.3-.193q2.834-6.2,5.68-12.4a.271.271,0,0,0-.047-.339,2.884,2.884,0,0,1,1.652-4.757c.076-.014.154-.018.267-.031" transform="translate(-362.784 -220.826)" fill="#990404"/>
  <path id="Path_416" data-name="Path 416" d="M217.809,355.189l-.349.761c-.409-.079-.809-.171-1.213-.233a9.2,9.2,0,0,0-6.565,1.227,5.532,5.532,0,0,0-1.995,2.071c-.063.119-.113.244-.184.4h8.385c-.133.252-.25.463-.357.68-.044.088-.059.19-.1.279q-1.022,2.239-2.044,4.478a.247.247,0,0,1-.273.181c-.258-.014-.518,0-.795,0a3.219,3.219,0,0,0-1.1-2.869,3.111,3.111,0,0,0-2.324-.781,3.249,3.249,0,0,0-2.988,3.65c-.282,0-.562.01-.84,0a6.407,6.407,0,0,1-1.184-.091,2.338,2.338,0,0,1-1.773-2.161,9.408,9.408,0,0,1,.027-1.126,1.329,1.329,0,0,1,.7-1.084,5.554,5.554,0,0,1,1.8-.61c.531-.106,1.069-.184,1.6-.271.1-.017.186-.02.218-.156A4.828,4.828,0,0,1,208.094,357a9.222,9.222,0,0,1,4.951-2.177,12.329,12.329,0,0,1,4.5.266c.07.016.14.037.209.057.013,0,.023.017.053.041M203.936,362l.059-.024a3.943,3.943,0,0,0-.305-.718.5.5,0,0,0-.844-.013,1.292,1.292,0,0,0,.009,1.531.512.512,0,0,0,.837-.01,1.133,1.133,0,0,0,.245-.767m8.561-1.316c.274,0,.548,0,.822,0,.206,0,.333-.115.337-.286a.293.293,0,0,0-.324-.3q-.822-.009-1.644,0a.3.3,0,0,0-.329.3.3.3,0,0,0,.338.288c.267,0,.533,0,.8,0" transform="translate(-193.326 -339.321)" fill="#006838"/>
  <path id="Path_417" data-name="Path 417" d="M570.025,399.025l.609-1.332a3.738,3.738,0,0,0,.5.078c.477.01.955,0,1.432,0,.242,0,.375-.106.376-.292s-.131-.3-.373-.3c-.485,0-.969,0-1.454,0h-.245c.1-.223.179-.417.281-.6.027-.048.13-.075.2-.075.615-.006,1.23,0,1.845,0h.279c-.029-.143-.045-.268-.08-.387a3.343,3.343,0,0,0-1.1-1.6c-.113-.1-.143-.167-.068-.3.12-.221.214-.456.33-.71a4.754,4.754,0,0,1,1.4,1.415,3.234,3.234,0,0,1,.308.643c.056.167.137.2.3.193.549-.023,1.1-.033,1.649-.046a2.4,2.4,0,0,1,2.5,2.432,16.364,16.364,0,0,1-.044,1.971,2.344,2.344,0,0,1-2.293,2.012c-.425.009-.851,0-1.292,0a3.258,3.258,0,0,0-5.053-3.1m7.956-1.243a1.143,1.143,0,0,0-.248-.766.511.511,0,0,0-.823-.022,1.284,1.284,0,0,0-.005,1.563.5.5,0,0,0,.794.02,1.111,1.111,0,0,0,.283-.8" transform="translate(-545.273 -376.416)" fill="#006838"/>
  <path id="Path_418" data-name="Path 418" d="M549.737,523.912a2.723,2.723,0,1,1,2.735,2.725,2.725,2.725,0,0,1-2.735-2.725m3.834,0a1.111,1.111,0,1,0-1.123,1.109,1.113,1.113,0,0,0,1.123-1.109" transform="translate(-525.866 -498.55)" fill="#006838"/>
  <path id="Path_419" data-name="Path 419" d="M306.3,523.922a2.723,2.723,0,1,1-2.709-2.733,2.724,2.724,0,0,1,2.709,2.733m-1.612,0a1.112,1.112,0,1,0-1.12,1.112,1.111,1.111,0,0,0,1.12-1.112" transform="translate(-287.789 -498.558)" fill="#006838"/>
</svg>
