<svg xmlns="http://www.w3.org/2000/svg" xmlns:xlink="http://www.w3.org/1999/xlink" width="89" height="39.627" viewBox="0 0 89 39.627">
  <defs>
    <clipPath id="clip-path">
      <rect id="Rectangle_23" data-name="Rectangle 23" width="89" height="39.627" fill="none"/>
    </clipPath>
    <clipPath id="clip-path-3">
      <path id="Path_2" data-name="Path 2" d="M436.012,0a.859.859,0,0,0-.847.738c-.2.7-.4,1.4-.665,2.072a1.567,1.567,0,0,1-1.685,1.213,1.767,1.767,0,0,1-1.943-1.234c-.252-.616-.49-1.237-.745-1.851A1.06,1.06,0,0,0,428.7.175c-.888.214-1.769.457-2.643.722a1.009,1.009,0,0,0-.788,1.386c.167.726.339,1.452.507,2.178.186.8.019,1.162-.8,1.7-.91.6-1.3.609-2,.145a18.03,18.03,0,0,0-1.9-1.413,1.448,1.448,0,0,0-1.927.281c-.258.256-.5.527-.751.791l-.044-.04c-.235.277-.468.556-.706.831-.647.746-.6,1.116.29,1.6,1.155.634,2.324,1.243,3.5,1.848,1.219.63,1.2.6,2.194-.335a12.425,12.425,0,0,1,5.916-3.336,14.215,14.215,0,0,1,13.969,4.113,13.076,13.076,0,0,1,3.844,10.161c-.274,5.409-2.768,9.5-7.879,11.651-5.2,2.19-10.094,1.4-14.516-2.1-.72-.57-1.031-.621-1.772-.063a6.668,6.668,0,0,1-3.848,1.492.734.734,0,0,0-.568,1.279,12.141,12.141,0,0,0,1.74,1.772,1.791,1.791,0,0,0,2.619-.078c.355-.3.706-.607,1.063-.9a1.647,1.647,0,0,1,1.919-.277,1.889,1.889,0,0,1,1.15,2.007c-.073.741-.2,1.477-.285,2.217a.9.9,0,0,0,.608,1.061,12.5,12.5,0,0,0,2.9.689,1.2,1.2,0,0,0,1.458-.9c.229-.559.411-1.138.628-1.7a1.646,1.646,0,0,1,1.77-1.27,1.715,1.715,0,0,1,1.892,1.29c.239.6.479,1.2.746,1.786.409.9.614,1,1.557.765.846-.214,1.687-.453,2.522-.705.729-.22.934-.561.777-1.328-.141-.69-.354-1.366-.5-2.056A1.738,1.738,0,0,1,442.3,33.4a1.636,1.636,0,0,1,2.17.215c.482.4.966.8,1.461,1.184a1.182,1.182,0,0,0,1.867-.111c.484-.488.956-.99,1.424-1.493.9-.971.886-1.275-.03-2.213a10.131,10.131,0,0,1-1.486-1.753,1.632,1.632,0,0,1,.235-1.912,1.474,1.474,0,0,1,1.7-.732,21.24,21.24,0,0,0,2.226.352c.69.093,1.015-.082,1.185-.74.243-.935.452-1.882.612-2.834.127-.755-.049-1-.8-1.276-.665-.248-1.353-.435-2.016-.69a1.865,1.865,0,0,1-1.33-1.953c.05-.98.47-1.465,1.528-1.763a5.472,5.472,0,0,0,1.411-.557,1.462,1.462,0,0,0,.76-1.636c-.223-.836-.482-1.666-.78-2.479a1.083,1.083,0,0,0-1.4-.75c-.761.13-1.521.268-2.274.434a1.3,1.3,0,0,1-1.364-.447,4.911,4.911,0,0,1-.686-1.067,1.122,1.122,0,0,1,.12-1.3c.47-.58.954-1.151,1.39-1.756a1.186,1.186,0,0,0-.162-1.858q-.891-.869-1.807-1.713a1.088,1.088,0,0,0-1.714-.048c-.579.473-1.139.97-1.7,1.465a1.174,1.174,0,0,1-.683.357,2.092,2.092,0,0,1-2.332-2.38c.1-.677.173-1.359.243-2.04a.978.978,0,0,0-.756-1.154c-1-.266-2.009-.5-3.02-.723A1.371,1.371,0,0,0,436.013,0Z" transform="translate(-417.22)" fill="none"/>
    </clipPath>
    <linearGradient id="linear-gradient" x1="-0.26" y1="0.91" x2="-0.259" y2="0.91" gradientUnits="objectBoundingBox">
      <stop offset="0" stop-color="#8dc63f"/>
      <stop offset="0.133" stop-color="#86c13e"/>
      <stop offset="0.319" stop-color="#74b53d"/>
      <stop offset="0.537" stop-color="#56a13c"/>
      <stop offset="0.776" stop-color="#2d863a"/>
      <stop offset="1" stop-color="#006838"/>
    </linearGradient>
    <clipPath id="clip-path-5">
      <path id="Path_4" data-name="Path 4" d="M1572.6,474.637a1.318,1.318,0,1,1,1.318,1.307,1.314,1.314,0,0,1-1.318-1.307m-.2,0a1.514,1.514,0,1,0,1.515-1.5,1.51,1.51,0,0,0-1.515,1.5" transform="translate(-1572.403 -473.136)" fill="none"/>
    </clipPath>
    <linearGradient id="linear-gradient-2" x1="-25.167" y1="5.626" x2="-25.151" y2="5.626" xlink:href="#linear-gradient"/>
    <clipPath id="clip-path-6">
      <path id="Path_5" data-name="Path 5" d="M1596.9,498.507a.221.221,0,1,1,.221.219.221.221,0,0,1-.221-.219m-.1,0a.319.319,0,1,0,.319-.316.318.318,0,0,0-.319.316" transform="translate(-1596.798 -498.191)" fill="none"/>
    </clipPath>
    <linearGradient id="linear-gradient-3" x1="-121.274" y1="24.792" x2="-121.198" y2="24.792" gradientUnits="objectBoundingBox">
      <stop offset="0" stop-color="#ec1c24"/>
      <stop offset="0.165" stop-color="#e51a22"/>
      <stop offset="0.398" stop-color="#d3171e"/>
      <stop offset="0.669" stop-color="#b51116"/>
      <stop offset="0.969" stop-color="#8b090d"/>
      <stop offset="1" stop-color="#87090c"/>
    </linearGradient>
    <clipPath id="clip-path-7">
      <path id="Path_6" data-name="Path 6" d="M1579.045,479.557l-.444-.382.575-.117.229-.536.29.506.585.05-.4.43.133.567-.535-.241-.5.3Zm.006-.651-.833.17.643.552-.095.838.729-.435.775.348-.192-.821.574-.623-.848-.073-.42-.733Z" transform="translate(-1578.218 -478.13)" fill="none"/>
    </clipPath>
    <radialGradient id="radial-gradient" cx="0.5" cy="0.5" r="0.704" gradientTransform="matrix(0.969, 0, 0, -1, -0.973, 14.251)" gradientUnits="objectBoundingBox">
      <stop offset="0" stop-color="#808184"/>
      <stop offset="0.048" stop-color="#797a7d"/>
      <stop offset="0.115" stop-color="#68686b"/>
      <stop offset="0.193" stop-color="#4d4b4d"/>
      <stop offset="0.279" stop-color="#262223"/>
      <stop offset="0.286" stop-color="#231f20"/>
      <stop offset="0.509" stop-color="#363335"/>
      <stop offset="0.967" stop-color="#69696b"/>
      <stop offset="1" stop-color="#6d6e70"/>
    </radialGradient>
    <clipPath id="clip-path-8">
      <path id="Path_8" data-name="Path 8" d="M1043.8,88.04a1.186,1.186,0,0,1,.162,1.858c-.435.605-.92,1.176-1.39,1.756-.333.411-.322.389-.1.845a4.905,4.905,0,0,0,.686,1.067,1.3,1.3,0,0,0,1.364.447c.753-.166,1.513-.3,2.274-.434a1.083,1.083,0,0,1,1.4.75c.3.813.558,2.568.781,3.4a1.462,1.462,0,0,1-.76,1.636,5.473,5.473,0,0,1-1.411.557c-1.059.3-1.5.313-1.551,1.293a1.865,1.865,0,0,0,1.33,1.953c.662.255,1.351.442,2.016.69.746.279.922.521.8,1.275-.16.952-.327,3.2-.57,4.139-.171.658-.5.833-1.186.74a21.24,21.24,0,0,1-2.226-.352,1.474,1.474,0,0,0-1.7.732l36.441,3.126.33-25.9-38.489-1.288q.913.846,1.807,1.713" transform="translate(-1041.994 -86.327)" fill="none"/>
    </clipPath>
    <clipPath id="clip-path-9">
      <path id="Path_7" data-name="Path 7" d="M767.026,396.7a4.829,4.829,0,0,1,8.9-2.541,5.032,5.032,0,1,0-5.664,7.054,4.781,4.781,0,0,1-3.238-4.512" transform="translate(-766.345 -391.345)" fill="none"/>
    </clipPath>
    <linearGradient id="linear-gradient-4" x1="-3.614" y1="2.13" x2="-3.61" y2="2.13" xlink:href="#linear-gradient-3"/>
    <clipPath id="clip-path-12">
      <path id="Path_11" data-name="Path 11" d="M614.343,444.954s-1.162,5.629,5.907,5.333c0,0-7.552,2.111-7.069-5.333Z" transform="translate(-613.158 -444.954)" fill="none"/>
    </clipPath>
    <linearGradient id="linear-gradient-5" x1="-3.793" y1="2.393" x2="-3.787" y2="2.393" xlink:href="#linear-gradient-3"/>
    <clipPath id="clip-path-13">
      <path id="Path_13" data-name="Path 13" d="M1063.426,230.283q.062.079.128.155a1.3,1.3,0,0,0,1.364.447c.753-.166,1.513-.3,2.274-.434a1.083,1.083,0,0,1,1.4.75c.018.049.036.1.054.158.426.013.653.031.653.031,7.552.928,11.561,4.7,11.561,4.7,12.765-.265,15.839,1.457,15.839,1.457-4.946-3.246-15.037-3.048-15.037-3.048-3.542-2.716-9.156-3.843-9.156-3.843a25.573,25.573,0,0,0-5.516-.55c-1.192,0-2.389.064-3.563.173" transform="translate(-1063.426 -230.11)" fill="none"/>
    </clipPath>
    <linearGradient id="linear-gradient-6" x1="-7.681" y1="1.25" x2="-7.675" y2="1.25" xlink:href="#linear-gradient"/>
    <clipPath id="clip-path-15">
      <path id="Path_16" data-name="Path 16" d="M1164.595,278.653s5.046.994,6.383,3.047l-7.446.827q-.1.054-.2.1h10.786s-4.718-3.982-9.2-3.982c-.107,0-.213,0-.32.007" transform="translate(-1163.332 -278.646)" fill="none"/>
    </clipPath>
    <linearGradient id="linear-gradient-7" x1="-13.919" y1="2.747" x2="-13.907" y2="2.747" xlink:href="#linear-gradient"/>
    <clipPath id="clip-path-17">
      <path id="Path_17" data-name="Path 17" d="M907.17,276.177v-3.445s-6.549-.265-10.76,1.524c0,0,3.208-2.451,11.294-2.385Z" transform="translate(-896.41 -271.87)" fill="none"/>
    </clipPath>
    <linearGradient id="linear-gradient-8" x1="-9.965" y1="2.663" x2="-9.955" y2="2.663" xlink:href="#linear-gradient-3"/>
    <clipPath id="clip-path-18">
      <path id="Path_19" data-name="Path 19" d="M1732.027,463.061c.869.012,3.943,0,3.943,0-4.745-1.446-1.01-4.979-1.01-4.979-3.074.331-2.932,4.979-2.932,4.979" transform="translate(-1732.026 -458.082)" fill="none"/>
    </clipPath>
    <linearGradient id="linear-gradient-9" x1="-16.104" y1="3.632" x2="-16.095" y2="3.632" xlink:href="#linear-gradient"/>
    <clipPath id="clip-path-19">
      <path id="Path_20" data-name="Path 20" d="M1137.619,392.682c-4.323-1.9-8.208-1.19-12.354-.481a37.629,37.629,0,0,1-7.285.734,2.237,2.237,0,0,0,.909.606c.662.255,1.35.442,2.016.69.746.279.922.521.8,1.275-.068.406-.137,1.048-.214,1.723a29.2,29.2,0,0,0,12.254-1.447s-4.449,3.059-12.36,2.356c-.059.473-.123.917-.193,1.26,4.718,1.36,10.775,2.215,15.9.065a5.049,5.049,0,0,0,2.824,1.764,4.785,4.785,0,1,1,5.663-7.054,5.07,5.07,0,0,0-7.959-1.492" transform="translate(-1117.98 -391.357)" fill="none"/>
    </clipPath>
    <linearGradient id="linear-gradient-10" x1="-5.356" y1="1.079" x2="-5.352" y2="1.079" xlink:href="#linear-gradient"/>
    <clipPath id="clip-path-21">
      <rect id="Rectangle_15" data-name="Rectangle 15" width="8.423" height="8.35" fill="none"/>
    </clipPath>
    <clipPath id="clip-path-22">
      <path id="Path_21" data-name="Path 21" d="M1520.977,417.494a4.175,4.175,0,1,0,4.211,4.175,4.2,4.2,0,0,0-4.211-4.175m0,7.032a2.857,2.857,0,1,1,2.883-2.857,2.873,2.873,0,0,1-2.883,2.857m2.081-5.621a3.75,3.75,0,0,0-1.541-.752,3.42,3.42,0,0,1,3.14,3.009l-.324.011a3.273,3.273,0,0,0-1.274-2.268" transform="translate(-1516.766 -417.494)" fill="none"/>
    </clipPath>
    <radialGradient id="radial-gradient-2" cx="0.5" cy="0.5" r="0.816" gradientTransform="matrix(1, 0, 0, -1, 0, 4.686)" gradientUnits="objectBoundingBox">
      <stop offset="0" stop-color="#4d4d4f"/>
      <stop offset="0.271" stop-color="#343233"/>
      <stop offset="0.507" stop-color="#231f20"/>
      <stop offset="0.677" stop-color="#363436"/>
      <stop offset="0.865" stop-color="#474648"/>
      <stop offset="1" stop-color="#4d4d4f"/>
    </radialGradient>
    <clipPath id="clip-path-23">
      <path id="Path_23" data-name="Path 23" d="M1518.1,421.669a2.883,2.883,0,1,1,2.882,2.857,2.873,2.873,0,0,1-2.882-2.857m4.964-2.764a3.752,3.752,0,0,0-1.542-.752,3.42,3.42,0,0,1,3.14,3.009l-.324.011a3.273,3.273,0,0,0-1.274-2.268m-6.293,2.764a4.211,4.211,0,1,0,4.211-4.175,4.2,4.2,0,0,0-4.211,4.175" transform="translate(-1516.766 -417.494)" fill="none"/>
    </clipPath>
    <radialGradient id="radial-gradient-3" cx="0.5" cy="0.5" r="0.746" gradientTransform="matrix(1, 0, 0, -1, 0, 4.686)" gradientUnits="objectBoundingBox">
      <stop offset="0" stop-color="#808184"/>
      <stop offset="0.082" stop-color="#797a7d"/>
      <stop offset="0.197" stop-color="#68686b"/>
      <stop offset="0.332" stop-color="#4d4b4d"/>
      <stop offset="0.48" stop-color="#262223"/>
      <stop offset="0.493" stop-color="#231f20"/>
      <stop offset="0.651" stop-color="#363335"/>
      <stop offset="0.977" stop-color="#69696b"/>
      <stop offset="1" stop-color="#6d6e70"/>
    </radialGradient>
    <clipPath id="clip-path-26">
      <path id="Path_24" data-name="Path 24" d="M797.72,417.494a4.175,4.175,0,1,0,4.211,4.175,4.2,4.2,0,0,0-4.211-4.175m0,7.032a2.857,2.857,0,1,1,2.883-2.857,2.873,2.873,0,0,1-2.883,2.857M799.8,418.9a3.751,3.751,0,0,0-1.542-.752,3.421,3.421,0,0,1,3.14,3.009l-.324.011A3.271,3.271,0,0,0,799.8,418.9" transform="translate(-793.509 -417.494)" fill="none"/>
    </clipPath>
    <radialGradient id="radial-gradient-4" r="0.816" xlink:href="#radial-gradient-2"/>
    <radialGradient id="radial-gradient-5" cy="0.5" r="0.746" xlink:href="#radial-gradient-3"/>
    <clipPath id="clip-path-30">
      <path id="Path_28" data-name="Path 28" d="M851,475.653a1.5,1.5,0,1,1,1.514-1.5,1.509,1.509,0,0,1-1.514,1.5m0-2.808a1.307,1.307,0,1,0,1.318,1.307A1.314,1.314,0,0,0,851,472.846" transform="translate(-849.486 -472.651)" fill="none"/>
    </clipPath>
    <linearGradient id="linear-gradient-11" x1="-13.597" y1="5.634" x2="-13.581" y2="5.634" xlink:href="#linear-gradient-3"/>
    <clipPath id="clip-path-32">
      <path id="Path_30" data-name="Path 30" d="M874.2,498.336a.316.316,0,1,1,.319-.316.318.318,0,0,1-.319.316m0-.536a.219.219,0,1,0,.221.219.221.221,0,0,0-.221-.219" transform="translate(-873.877 -497.703)" fill="none"/>
    </clipPath>
    <linearGradient id="linear-gradient-12" x1="-66.369" y1="24.829" x2="-66.293" y2="24.829" xlink:href="#linear-gradient-3"/>
    <clipPath id="clip-path-34">
      <path id="Path_32" data-name="Path 32" d="M855.847,479.982l.095-.838-.642-.552.833-.17.331-.777.42.733.847.072-.573.623.193.821-.775-.348Zm-.165-1.291.444.382-.065.579.5-.3.535.24-.133-.567.4-.43-.585-.05-.29-.506-.229.536Z" transform="translate(-855.299 -477.645)" fill="none"/>
    </clipPath>
    <radialGradient id="radial-gradient-6" r="0.704" gradientTransform="matrix(0.969, 0, 0, -1, -0.528, 14.272)" xlink:href="#radial-gradient"/>
    <clipPath id="clip-path-35">
      <path id="Path_44" data-name="Path 44" d="M970.579,389.681s-7.534,5.181-20.43.509c0,0,13.69,7.4,23.78,3.171a5.049,5.049,0,0,0,2.824,1.764,4.785,4.785,0,1,1,5.664-7.054,5.07,5.07,0,0,0-7.959-1.492c-4.323-1.9-8.208-1.19-12.354-.481-4.572.782-9.459,1.563-15.6-1.152,0,0,6.877,10.178,24.072,4.733" transform="translate(-946.507 -384.947)" fill="none"/>
    </clipPath>
  </defs>
  <g id="Group_71" data-name="Group 71" clip-path="url(#clip-path)">
    <g id="Group_2" data-name="Group 2">
      <g id="Group_1" data-name="Group 1" clip-path="url(#clip-path)">
        <path id="Path_1" data-name="Path 1" d="M1,173.473c1.1-.77,2.025-1.733,3.057-2.578,1.127-.922,2.207-1.9,3.37-2.778,2.309-1.736,4.885-1.707,7.478,0,1.3.857,2.6,1.714,3.972,2.469a15.278,15.278,0,0,0,7.767,1.938c3.109-.049,13.557-.08,16.665-.12.221,0,.443-.023.741-.039a7.3,7.3,0,0,0-2.272-2.511,9.455,9.455,0,0,0-8.747-1.3,8.446,8.446,0,0,0-2.36,1.359,2.423,2.423,0,0,1-3.023-.225c-.3-.3,0-.523.16-.722a8.738,8.738,0,0,1,3.4-2.49,12.941,12.941,0,0,1,13.62,2.44,12.214,12.214,0,0,1,2.043,15.047,11.849,11.849,0,0,1-13.829,4.727,13.285,13.285,0,0,1-4.056-2.283c-.427-.349-.424-.626-.036-1.031,1.13-1.181,1.114-1.2,2.454-.31a9.326,9.326,0,0,0,11.293-.311,8.976,8.976,0,0,0,2.935-4.361.875.875,0,0,0-.449-.114H28.029c-.487.014-.975.01-1.462.009a4.941,4.941,0,0,0-3.477,1.393c-1.622,1.523-3.208,3.085-4.77,4.667a4.873,4.873,0,0,1-4.119,1.546c-2.993-.289-5.984-.591-8.954-1.074-.316-.051-.989.079-1.325.009a1.907,1.907,0,0,1-.268-.606c-.317-1.127-.316-1.125.791-1.439Q8.22,183.711,12,182.635c1-.284,1.286-.631,1.34-1.664a9.347,9.347,0,0,0-2.123-6.631,1.748,1.748,0,0,0-2.263-.748q-3.627,1.043-7.261,2.065c-1.1.308-1.576-.02-1.691-1.126l1-1.058" transform="translate(0 -157.558)"/>
      </g>
    </g>
    <g id="Group_4" data-name="Group 4" transform="translate(20.225)">
      <g id="Group_3" data-name="Group 3" clip-path="url(#clip-path-3)">
        <path id="Path_46" data-name="Path 46" d="M0,0,50.18.144l.138,48.587L.138,48.587Z" transform="translate(-13.529 34.738) rotate(-69.193)" fill="url(#linear-gradient)"/>
      </g>
    </g>
    <g id="Group_6" data-name="Group 6">
      <g id="Group_5" data-name="Group 5" clip-path="url(#clip-path)">
        <path id="Path_3" data-name="Path 3" d="M349.676,319.775a.987.987,0,0,0-.791-.345,1.085,1.085,0,0,0-.5.123,5.3,5.3,0,0,0-.541.351l-1.574,1.118a1.964,1.964,0,0,1-.972.449q-.479,0-.479-.519,0-.257.035-.715l-.3-.044a1.68,1.68,0,0,1-.392,1.013,1.1,1.1,0,0,1-.779.256l-.629,0h-5.211l-.474-2.7.158.061a3.607,3.607,0,0,0,.29-1.021q-.7-.3-.7-.55a1.382,1.382,0,0,0,.018-.14l-.207-.1a2.743,2.743,0,0,0-.423,1.309l.282.183.537,2.958h-1.589a1.662,1.662,0,0,1-.51-.178,2.973,2.973,0,0,1-.515-.479,9.373,9.373,0,0,0-1.052-1.023,1.447,1.447,0,0,0-.858-.326q-.739,0-1.215,1.069a2.289,2.289,0,0,1,.484-.061,2.683,2.683,0,0,1,1.769,1H324.3a6.919,6.919,0,0,0-1.073.083,1.4,1.4,0,0,0,.862-1.437,2.09,2.09,0,0,0-.141-.74q-.163-.435-.388-.435-.578,0-1.473,2.4a4.64,4.64,0,0,1-.871.126h-.7q-.431,0-.431-1.547v-.858a2.8,2.8,0,0,0-.477-1.7l-.477,1.09a1.7,1.7,0,0,1,.26.327,1.458,1.458,0,0,1,.123.658v1.243a3.416,3.416,0,0,0,.257,1.557.784.784,0,0,0,.745.42h1.317a2.794,2.794,0,0,0,.457,1.538,1.247,1.247,0,0,0,1.037.639.5.5,0,0,0,.4-.194,2.593,2.593,0,0,0,.343-.739,2.666,2.666,0,0,0,.176-.75.347.347,0,0,0-.145-.292q-.163-.087-.321-.179.242-.022.519-.022h18.763v0l.321,0a1.363,1.363,0,0,0,.616-.126,1.775,1.775,0,0,0,.537-.528.86.86,0,0,0,.819.659h4.66v-1.673a1.843,1.843,0,0,0-.339-1.21m-26.528.44q.088,0,.171.164a.644.644,0,0,1,.083.281q0,.266-.884.576.411-1.021.63-1.021m.311,3.472a1.1,1.1,0,0,1-.722-.283,1.153,1.153,0,0,1-.408-.673,2.349,2.349,0,0,1,.976.394.6.6,0,0,1,.287.465q0,.1-.133.1m24.492-2.22H346.8a3.829,3.829,0,0,1,1.707-.859,1.631,1.631,0,0,1,.581.1q.312.122.312.317,0,.443-1.448.443" transform="translate(-303.659 -301.784)" fill="#fff"/>
      </g>
    </g>
    <g id="Group_8" data-name="Group 8" transform="translate(76.222 22.736)">
      <g id="Group_7" data-name="Group 7" clip-path="url(#clip-path-5)">
        <rect id="Rectangle_4" data-name="Rectangle 4" width="3.029" height="3.002" transform="translate(0 0)" fill="url(#linear-gradient-2)"/>
      </g>
    </g>
    <g id="Group_10" data-name="Group 10" transform="translate(77.405 23.94)">
      <g id="Group_9" data-name="Group 9" clip-path="url(#clip-path-6)">
        <rect id="Rectangle_5" data-name="Rectangle 5" width="0.638" height="0.633" transform="translate(0 0)" fill="url(#linear-gradient-3)"/>
      </g>
    </g>
    <g id="Group_12" data-name="Group 12" transform="translate(76.504 22.976)">
      <g id="Group_11" data-name="Group 11" clip-path="url(#clip-path-7)">
        <rect id="Rectangle_6" data-name="Rectangle 6" width="2.432" height="2.337" fill="url(#radial-gradient)"/>
      </g>
    </g>
    <g id="Group_16" data-name="Group 16" transform="translate(50.511 4.148)">
      <g id="Group_15" data-name="Group 15" clip-path="url(#clip-path-8)">
        <g id="Group_14" data-name="Group 14" transform="translate(-13.362 14.657)">
          <g id="Group_13" data-name="Group 13" clip-path="url(#clip-path-9)">
            <rect id="Rectangle_7" data-name="Rectangle 7" width="10.107" height="9.831" transform="translate(-0.249 9.865) rotate(-88.568)" fill="url(#linear-gradient-4)"/>
          </g>
        </g>
      </g>
    </g>
    <g id="Group_18" data-name="Group 18" transform="translate(50.511 4.148)">
      <g id="Group_17" data-name="Group 17" clip-path="url(#clip-path-8)">
        <path id="Path_9" data-name="Path 9" d="M619.169,323.383a3.639,3.639,0,0,0-2.206,3.114c-.267,2.451,0-4.969,0-4.969s.2.53,2.206,1.855" transform="translate(-637.454 -310.226)" fill="#841013"/>
      </g>
    </g>
    <g id="Group_22" data-name="Group 22" transform="translate(50.511 4.148)">
      <g id="Group_21" data-name="Group 21" clip-path="url(#clip-path-8)">
        <g id="Group_20" data-name="Group 20" transform="translate(-20.788 17.234)">
          <g id="Group_19" data-name="Group 19" clip-path="url(#clip-path-12)">
            <rect id="Rectangle_8" data-name="Rectangle 8" width="7.631" height="7.739" transform="translate(-0.648 7.44) rotate(-88.568)" fill="url(#linear-gradient-5)"/>
          </g>
        </g>
      </g>
    </g>
    <g id="Group_24" data-name="Group 24" transform="translate(51.55 11.058)">
      <g id="Group_23" data-name="Group 23" clip-path="url(#clip-path-13)">
        <rect id="Rectangle_9" data-name="Rectangle 9" width="8.27" height="33.451" transform="translate(-0.188 7.436) rotate(-88.568)" fill="url(#linear-gradient-6)"/>
      </g>
    </g>
    <g id="Group_26" data-name="Group 26" transform="translate(50.511 4.148)">
      <g id="Group_25" data-name="Group 25" clip-path="url(#clip-path-8)">
        <path id="Path_14" data-name="Path 14" d="M1695.467,389.618s-.535-1.259-3.876-1.391c0,0-.1-.386-1.07-1.325a4.509,4.509,0,0,1,4.946,2.716" transform="translate(-1659.084 -372.397)"/>
      </g>
    </g>
    <g id="Group_28" data-name="Group 28" transform="translate(56.392 13.39)">
      <g id="Group_27" data-name="Group 27" clip-path="url(#clip-path-15)">
        <rect id="Rectangle_10" data-name="Rectangle 10" width="4.25" height="10.884" transform="translate(-0.1 3.98) rotate(-88.568)" fill="url(#linear-gradient-7)"/>
      </g>
    </g>
    <g id="Group_32" data-name="Group 32" transform="translate(50.511 4.148)">
      <g id="Group_31" data-name="Group 31" clip-path="url(#clip-path-8)">
        <g id="Group_30" data-name="Group 30" transform="translate(-7.057 8.916)">
          <g id="Group_29" data-name="Group 29" clip-path="url(#clip-path-17)">
            <rect id="Rectangle_11" data-name="Rectangle 11" width="4.654" height="11.402" transform="matrix(0.025, -1, 1, 0.025, -0.11, 4.305)" fill="url(#linear-gradient-8)"/>
          </g>
        </g>
      </g>
    </g>
    <g id="Group_34" data-name="Group 34" transform="translate(83.96 22.013)">
      <g id="Group_33" data-name="Group 33" clip-path="url(#clip-path-18)">
        <rect id="Rectangle_12" data-name="Rectangle 12" width="5.108" height="4.87" transform="translate(-0.927 4.987) rotate(-88.568)" fill="url(#linear-gradient-9)"/>
      </g>
    </g>
    <g id="Group_36" data-name="Group 36" transform="translate(54.194 18.806)">
      <g id="Group_35" data-name="Group 35" clip-path="url(#clip-path-19)">
        <rect id="Rectangle_13" data-name="Rectangle 13" width="11.517" height="27.864" transform="matrix(0.025, -1, 1, 0.025, -0.273, 10.25)" fill="url(#linear-gradient-10)"/>
      </g>
    </g>
    <g id="Group_43" data-name="Group 43" transform="translate(50.511 4.148)">
      <g id="Group_42" data-name="Group 42" clip-path="url(#clip-path-8)">
        <g id="Group_41" data-name="Group 41" transform="translate(23.015 15.914)" opacity="0.5">
          <g id="Group_40" data-name="Group 40">
            <g id="Group_39" data-name="Group 39" clip-path="url(#clip-path-21)">
              <g id="Group_38" data-name="Group 38" transform="translate(0 0)">
                <g id="Group_37" data-name="Group 37" clip-path="url(#clip-path-22)">
                  <rect id="Rectangle_14" data-name="Rectangle 14" width="8.423" height="8.35" transform="translate(0 0)" fill="url(#radial-gradient-2)"/>
                </g>
              </g>
            </g>
          </g>
        </g>
      </g>
    </g>
    <g id="Group_45" data-name="Group 45" transform="translate(73.525 20.062)">
      <g id="Group_44" data-name="Group 44" clip-path="url(#clip-path-23)">
        <rect id="Rectangle_16" data-name="Rectangle 16" width="8.423" height="8.35" transform="translate(0 0)" fill="url(#radial-gradient-3)"/>
      </g>
    </g>
    <g id="Group_52" data-name="Group 52" transform="translate(50.511 4.148)">
      <g id="Group_51" data-name="Group 51" clip-path="url(#clip-path-8)">
        <g id="Group_50" data-name="Group 50" transform="translate(-12.045 15.914)" opacity="0.5">
          <g id="Group_49" data-name="Group 49">
            <g id="Group_48" data-name="Group 48" clip-path="url(#clip-path-21)">
              <g id="Group_47" data-name="Group 47" transform="translate(0 0)">
                <g id="Group_46" data-name="Group 46" clip-path="url(#clip-path-26)">
                  <rect id="Rectangle_17" data-name="Rectangle 17" width="8.423" height="8.35" transform="translate(0 0)" fill="url(#radial-gradient-4)"/>
                </g>
              </g>
            </g>
          </g>
        </g>
      </g>
    </g>
    <g id="Group_56" data-name="Group 56" transform="translate(50.511 4.148)">
      <g id="Group_55" data-name="Group 55" clip-path="url(#clip-path-8)">
        <g id="Group_54" data-name="Group 54" transform="translate(-12.045 15.914)">
          <g id="Group_53" data-name="Group 53" clip-path="url(#clip-path-26)">
            <rect id="Rectangle_19" data-name="Rectangle 19" width="8.423" height="8.35" transform="translate(0 0)" fill="url(#radial-gradient-5)"/>
          </g>
        </g>
      </g>
    </g>
    <g id="Group_60" data-name="Group 60" transform="translate(50.511 4.148)">
      <g id="Group_59" data-name="Group 59" clip-path="url(#clip-path-8)">
        <g id="Group_58" data-name="Group 58" transform="translate(-9.332 18.565)">
          <g id="Group_57" data-name="Group 57" clip-path="url(#clip-path-30)">
            <rect id="Rectangle_20" data-name="Rectangle 20" width="3.028" height="3.002" transform="translate(0 0)" fill="url(#linear-gradient-11)"/>
          </g>
        </g>
      </g>
    </g>
    <g id="Group_64" data-name="Group 64" transform="translate(50.511 4.148)">
      <g id="Group_63" data-name="Group 63" clip-path="url(#clip-path-8)">
        <g id="Group_62" data-name="Group 62" transform="translate(-8.149 19.768)">
          <g id="Group_61" data-name="Group 61" clip-path="url(#clip-path-32)">
            <rect id="Rectangle_21" data-name="Rectangle 21" width="0.638" height="0.633" transform="translate(0 0)" fill="url(#linear-gradient-12)"/>
          </g>
        </g>
      </g>
    </g>
    <g id="Group_68" data-name="Group 68" transform="translate(50.511 4.148)">
      <g id="Group_67" data-name="Group 67" clip-path="url(#clip-path-8)">
        <g id="Group_66" data-name="Group 66" transform="translate(-9.05 18.805)">
          <g id="Group_65" data-name="Group 65" clip-path="url(#clip-path-34)">
            <rect id="Rectangle_22" data-name="Rectangle 22" width="2.432" height="2.337" transform="translate(0 0)" fill="url(#radial-gradient-6)"/>
          </g>
        </g>
      </g>
    </g>
    <g id="Group_70" data-name="Group 70" transform="translate(45.882 18.498)">
      <g id="Group_69" data-name="Group 69" clip-path="url(#clip-path-35)">
        <path id="Path_34" data-name="Path 34" d="M1196.586,422.378c.292.013.445.012.758,0-.036.543.043,1.312.694,1.413a.749.749,0,0,0,.572-.138,1,1,0,0,0,.364-.744.786.786,0,0,0-.3-.774c-.086-.063-.3-.181-.612-.352a1.577,1.577,0,0,1-.758-.742,2.416,2.416,0,0,1-.089-1.331,3.33,3.33,0,0,1,.321-.92,2.118,2.118,0,0,1,.505-.636,1.528,1.528,0,0,1,.72-.335.868.868,0,0,1,.914.31,2.672,2.672,0,0,1,.3,1.661c-.316.034-.476.05-.792.081a1.491,1.491,0,0,0-.133-.788.436.436,0,0,0-.437-.179.761.761,0,0,0-.532.273.817.817,0,0,0-.176.415.661.661,0,0,0,.048.4,1.453,1.453,0,0,0,.638.487,3.312,3.312,0,0,1,.794.5,2.708,2.708,0,0,1,.437,1.96,3.345,3.345,0,0,1-.309,1.184,1.437,1.437,0,0,1-.649.691,1.514,1.514,0,0,1-.975.072c-1.207-.263-1.439-1.442-1.307-2.515" transform="translate(-1184.432 -416.221)" fill="#fff"/>
        <path id="Path_35" data-name="Path 35" d="M1276.354,455.141c-.26-.1-.393-.15-.659-.247a3.071,3.071,0,0,1,.513-1.256,1.067,1.067,0,0,1,.744-.36.927.927,0,0,1,1,.807,6.159,6.159,0,0,1,.067,1.409q-.023.917-.046,1.834a9.508,9.508,0,0,0,.14,1.968c-.3-.03-.456-.048-.759-.09q-.029-.169-.064-.467-.017-.149-.022-.18c-.271.479-.574.673-.915.615a.975.975,0,0,1-.679-.513,2.147,2.147,0,0,1-.23-1.221,1.982,1.982,0,0,1,.539-1.372,1.942,1.942,0,0,1,.609-.329,2.3,2.3,0,0,0,.714-.353c0-.06,0-.09,0-.15a1.169,1.169,0,0,0-.112-.664.383.383,0,0,0-.345-.136c-.233.005-.4.239-.5.7m.924,1.255a4.124,4.124,0,0,1-.451.2,1.045,1.045,0,0,0-.411.244.855.855,0,0,0-.17.509,1.1,1.1,0,0,0,.1.555.4.4,0,0,0,.286.248.432.432,0,0,0,.392-.219,1.1,1.1,0,0,0,.195-.482,6.254,6.254,0,0,0,.052-.748c0-.121.005-.182.009-.3" transform="translate(-1259.497 -449.99)" fill="#fff"/>
        <path id="Path_36" data-name="Path 36" d="M1344.915,413.557c.013-2.783.057-5.567.07-8.35.278-.022.417-.03.694-.041.016,2.808-.01,5.616.006,8.425-.308-.007-.462-.014-.77-.033" transform="translate(-1325.602 -404.194)" fill="#fff"/>
        <path id="Path_37" data-name="Path 37" d="M1377.718,404.943q.046,1.539.073,3.078c.218-.6.472-.9.79-.895.34,0,.611.24.782.7a6.694,6.694,0,0,1,.277,1.845q.089,1.706.192,3.41c-.33.058-.494.084-.815.126q-.074-1.565-.13-3.13c-.018-.483-.031-.771-.04-.862a1.55,1.55,0,0,0-.2-.727.321.321,0,0,0-.266-.146c-.261,0-.425.257-.5.775a7.652,7.652,0,0,0-.045,1.159q.029,1.52.072,3.04c-.306.02-.46.027-.767.034-.05-2.812-.046-5.624-.1-8.436.274,0,.411.007.68.024" transform="translate(-1356.168 -403.959)" fill="#fff"/>
        <path id="Path_38" data-name="Path 38" d="M1445.991,451.754c-.282-.072-.423-.11-.7-.19a2.779,2.779,0,0,1,.35-1.313.869.869,0,0,1,.725-.336,1.141,1.141,0,0,1,1.107.751,5.242,5.242,0,0,1,.25,1.207q.1.781.2,1.562a5.547,5.547,0,0,0,.384,1.523c-.285.11-.434.163-.739.263-.034-.085-.075-.2-.124-.364-.025-.079-.04-.128-.046-.144a1.41,1.41,0,0,1-.849.936.7.7,0,0,1-.755-.228,1.991,1.991,0,0,1-.4-1.18,2.11,2.11,0,0,1,.351-1.506,1.933,1.933,0,0,1,.58-.423,2.685,2.685,0,0,0,.687-.441l-.015-.138a1.059,1.059,0,0,0-.2-.6.449.449,0,0,0-.373-.109c-.241.017-.384.258-.427.732m1.121,1.043c-.031.028-.173.121-.433.284a1.245,1.245,0,0,0-.394.333.874.874,0,0,0-.105.538.913.913,0,0,0,.177.508.317.317,0,0,0,.329.135.623.623,0,0,0,.373-.342,1.115,1.115,0,0,0,.133-.495,5.131,5.131,0,0,0-.047-.686l-.031-.276" transform="translate(-1421.108 -446.793)" fill="#fff"/>
        <path id="Path_39" data-name="Path 39" d="M1196.586,422.378c.292.013.445.012.758,0-.036.543.043,1.312.694,1.413a.749.749,0,0,0,.572-.138,1,1,0,0,0,.364-.744.786.786,0,0,0-.3-.774c-.086-.063-.3-.181-.612-.352a1.577,1.577,0,0,1-.758-.742,2.416,2.416,0,0,1-.089-1.331,3.33,3.33,0,0,1,.321-.92,2.118,2.118,0,0,1,.505-.636,1.528,1.528,0,0,1,.72-.335.868.868,0,0,1,.914.31,2.672,2.672,0,0,1,.3,1.661c-.316.034-.476.05-.792.081a1.491,1.491,0,0,0-.133-.788.436.436,0,0,0-.437-.179.761.761,0,0,0-.532.273.817.817,0,0,0-.176.415.661.661,0,0,0,.048.4,1.453,1.453,0,0,0,.638.487,3.312,3.312,0,0,1,.794.5,2.708,2.708,0,0,1,.437,1.96,3.345,3.345,0,0,1-.309,1.184,1.437,1.437,0,0,1-.649.691,1.514,1.514,0,0,1-.975.072c-1.207-.263-1.439-1.442-1.307-2.515" transform="translate(-1184.432 -416.221)" fill="#231f20"/>
        <path id="Path_40" data-name="Path 40" d="M1276.354,455.141c-.26-.1-.393-.15-.659-.247a3.071,3.071,0,0,1,.513-1.256,1.067,1.067,0,0,1,.744-.36.927.927,0,0,1,1,.807,6.159,6.159,0,0,1,.067,1.409q-.023.917-.046,1.834a9.508,9.508,0,0,0,.14,1.968c-.3-.03-.456-.048-.759-.09q-.029-.169-.064-.467-.017-.149-.022-.18c-.271.479-.574.673-.915.615a.975.975,0,0,1-.679-.513,2.147,2.147,0,0,1-.23-1.221,1.982,1.982,0,0,1,.539-1.372,1.942,1.942,0,0,1,.609-.329,2.3,2.3,0,0,0,.714-.353c0-.06,0-.09,0-.15a1.169,1.169,0,0,0-.112-.664.383.383,0,0,0-.345-.136c-.233.005-.4.239-.5.7m.924,1.255a4.124,4.124,0,0,1-.451.2,1.045,1.045,0,0,0-.411.244.855.855,0,0,0-.17.509,1.1,1.1,0,0,0,.1.555.4.4,0,0,0,.286.248.432.432,0,0,0,.392-.219,1.1,1.1,0,0,0,.195-.482,6.254,6.254,0,0,0,.052-.748c0-.121.005-.182.009-.3" transform="translate(-1259.497 -449.99)" fill="#231f20"/>
        <path id="Path_41" data-name="Path 41" d="M1344.915,413.557c.013-2.783.057-5.567.07-8.35.278-.022.417-.03.694-.041.016,2.808-.01,5.616.006,8.425-.308-.007-.462-.014-.77-.033" transform="translate(-1325.602 -404.194)" fill="#231f20"/>
        <path id="Path_42" data-name="Path 42" d="M1377.718,404.943q.046,1.539.073,3.078c.218-.6.472-.9.79-.895.34,0,.611.24.782.7a6.694,6.694,0,0,1,.277,1.845q.089,1.706.192,3.41c-.33.058-.494.084-.815.126q-.074-1.565-.13-3.13c-.018-.483-.031-.771-.04-.862a1.55,1.55,0,0,0-.2-.727.321.321,0,0,0-.266-.146c-.261,0-.425.257-.5.775a7.652,7.652,0,0,0-.045,1.159q.029,1.52.072,3.04c-.306.02-.46.027-.767.034-.05-2.812-.046-5.624-.1-8.436.274,0,.411.007.68.024" transform="translate(-1356.168 -403.959)" fill="#231f20"/>
        <path id="Path_43" data-name="Path 43" d="M1445.991,451.754c-.282-.072-.423-.11-.7-.19a2.779,2.779,0,0,1,.35-1.313.869.869,0,0,1,.725-.336,1.141,1.141,0,0,1,1.107.751,5.242,5.242,0,0,1,.25,1.207q.1.781.2,1.562a5.547,5.547,0,0,0,.384,1.523c-.285.11-.434.163-.739.263-.034-.085-.075-.2-.124-.364-.025-.079-.04-.128-.046-.144a1.41,1.41,0,0,1-.849.936.7.7,0,0,1-.755-.228,1.991,1.991,0,0,1-.4-1.18,2.11,2.11,0,0,1,.351-1.506,1.933,1.933,0,0,1,.58-.423,2.685,2.685,0,0,0,.687-.441l-.015-.138a1.059,1.059,0,0,0-.2-.6.449.449,0,0,0-.373-.109c-.241.017-.384.258-.427.732m1.121,1.043c-.031.028-.173.121-.433.284a1.245,1.245,0,0,0-.394.333.874.874,0,0,0-.105.538.913.913,0,0,0,.177.508.317.317,0,0,0,.329.135.623.623,0,0,0,.373-.342,1.115,1.115,0,0,0,.133-.495,5.131,5.131,0,0,0-.047-.686l-.031-.276" transform="translate(-1421.108 -446.793)" fill="#231f20"/>
      </g>
    </g>
  </g>
</svg>
