<svg id="Logo" xmlns="http://www.w3.org/2000/svg" xmlns:xlink="http://www.w3.org/1999/xlink" width="135.702" height="61.018" viewBox="0 0 135.702 61.018">
  <defs>
    <clipPath id="clip-path">
      <rect id="Rectangle_23" data-name="Rectangle 23" width="135.702" height="61.018" fill="none"/>
    </clipPath>
    <clipPath id="clip-path-3">
      <path id="Path_2" data-name="Path 2" d="M445.873,0c-.646,0-1.077.382-1.291,1.136-.305,1.073-.617,2.149-1.014,3.19A2.391,2.391,0,0,1,441,6.2a2.694,2.694,0,0,1-2.963-1.9c-.384-.948-.747-1.9-1.136-2.851A1.613,1.613,0,0,0,434.718.269c-1.353.329-2.7.7-4.03,1.112a1.555,1.555,0,0,0-1.2,2.135c.255,1.118.516,2.236.772,3.354.284,1.239.028,1.789-1.213,2.617-1.387.925-1.975.938-3.042.224a27.52,27.52,0,0,0-2.891-2.175,2.194,2.194,0,0,0-2.938.433c-.393.394-.764.811-1.146,1.218l-.067-.062c-.359.427-.714.856-1.077,1.279-.987,1.149-.907,1.718.442,2.465,1.762.976,3.544,1.914,5.329,2.846,1.859.971,1.837.929,3.345-.516a18.9,18.9,0,0,1,9.021-5.137c8.225-1.791,15.389.225,21.3,6.334a20.246,20.246,0,0,1,5.862,15.646c-.418,8.328-4.22,14.627-12.013,17.941-7.93,3.372-15.391,2.153-22.134-3.238-1.1-.877-1.572-.956-2.7-.1a10.111,10.111,0,0,1-5.866,2.3,1.13,1.13,0,0,0-.866,1.97,18.613,18.613,0,0,0,2.654,2.728,2.713,2.713,0,0,0,3.993-.12c.541-.464,1.076-.934,1.621-1.393A2.492,2.492,0,0,1,430.8,51.7a2.913,2.913,0,0,1,1.753,3.091c-.111,1.141-.306,2.274-.435,3.414a1.385,1.385,0,0,0,.927,1.634,18.908,18.908,0,0,0,4.417,1.06,1.833,1.833,0,0,0,2.224-1.39c.35-.861.626-1.752.958-2.621a2.513,2.513,0,0,1,2.7-1.956,2.616,2.616,0,0,1,2.885,1.987c.365.922.73,1.846,1.138,2.749.624,1.385.936,1.545,2.374,1.179,1.291-.329,2.572-.7,3.846-1.086,1.112-.339,1.424-.864,1.185-2.045-.215-1.063-.54-2.1-.759-3.166a2.685,2.685,0,0,1,1.458-3.12,2.477,2.477,0,0,1,3.309.331c.734.618,1.473,1.231,2.228,1.823a1.792,1.792,0,0,0,2.846-.171c.739-.752,1.457-1.524,2.172-2.3,1.38-1.5,1.351-1.963-.046-3.408a15.559,15.559,0,0,1-2.265-2.7,2.532,2.532,0,0,1,.358-2.945,2.24,2.24,0,0,1,2.6-1.127,32.083,32.083,0,0,0,3.393.543c1.052.144,1.547-.126,1.808-1.139.37-1.44.689-2.9.933-4.365.193-1.162-.074-1.535-1.212-1.964-1.014-.382-2.064-.67-3.073-1.062a2.871,2.871,0,0,1-2.028-3.007c.076-1.509.716-2.255,2.33-2.714a8.3,8.3,0,0,0,2.152-.857,2.26,2.26,0,0,0,1.159-2.519c-.339-1.288-.736-2.565-1.189-3.816a1.65,1.65,0,0,0-2.135-1.154c-1.16.2-2.318.413-3.467.669a1.97,1.97,0,0,1-2.079-.688,7.572,7.572,0,0,1-1.046-1.643,1.742,1.742,0,0,1,.184-2c.717-.893,1.455-1.772,2.119-2.7a1.837,1.837,0,0,0-.247-2.861q-1.359-1.338-2.755-2.637a1.649,1.649,0,0,0-2.614-.073c-.883.728-1.737,1.493-2.592,2.256a1.785,1.785,0,0,1-1.041.55,3.207,3.207,0,0,1-3.555-3.665c.151-1.043.264-2.092.37-3.141a1.506,1.506,0,0,0-1.153-1.777C449.4.758,447.865.4,446.324.054A2.071,2.071,0,0,0,445.875,0Z" transform="translate(-417.22)" fill="none"/>
    </clipPath>
    <linearGradient id="linear-gradient" x1="-0.26" y1="0.91" x2="-0.259" y2="0.91" gradientUnits="objectBoundingBox">
      <stop offset="0" stop-color="#8dc63f"/>
      <stop offset="0.133" stop-color="#86c13e"/>
      <stop offset="0.319" stop-color="#74b53d"/>
      <stop offset="0.537" stop-color="#56a13c"/>
      <stop offset="0.776" stop-color="#2d863a"/>
      <stop offset="1" stop-color="#006838"/>
    </linearGradient>
    <clipPath id="clip-path-5">
      <path id="Path_4" data-name="Path 4" d="M1572.7,475.447a2.009,2.009,0,1,1,2.009,2.012,2.013,2.013,0,0,1-2.009-2.012m-.3,0a2.309,2.309,0,1,0,2.309-2.312,2.313,2.313,0,0,0-2.309,2.312" transform="translate(-1572.403 -473.136)" fill="none"/>
    </clipPath>
    <linearGradient id="linear-gradient-2" x1="-25.167" y1="5.626" x2="-25.151" y2="5.626" xlink:href="#linear-gradient"/>
    <clipPath id="clip-path-6">
      <path id="Path_5" data-name="Path 5" d="M1596.947,498.678a.337.337,0,1,1,.337.338.338.338,0,0,1-.337-.338m-.149,0a.487.487,0,1,0,.487-.487.487.487,0,0,0-.487.487" transform="translate(-1596.798 -498.191)" fill="none"/>
    </clipPath>
    <linearGradient id="linear-gradient-3" x1="-121.274" y1="24.792" x2="-121.198" y2="24.792" gradientUnits="objectBoundingBox">
      <stop offset="0" stop-color="#ec1c24"/>
      <stop offset="0.165" stop-color="#e51a22"/>
      <stop offset="0.398" stop-color="#d3171e"/>
      <stop offset="0.669" stop-color="#b51116"/>
      <stop offset="0.969" stop-color="#8b090d"/>
      <stop offset="1" stop-color="#87090c"/>
    </linearGradient>
    <clipPath id="clip-path-7">
      <path id="Path_6" data-name="Path 6" d="M1579.479,480.328l-.677-.588.877-.18.349-.826.443.78.892.077-.6.662.2.873-.816-.371-.767.463Zm.009-1-1.271.261.98.851-.145,1.291,1.111-.67,1.181.536-.293-1.265.875-.959-1.292-.112-.641-1.129Z" transform="translate(-1578.218 -478.13)" fill="none"/>
    </clipPath>
    <radialGradient id="radial-gradient" cx="0.5" cy="0.5" r="0.704" gradientTransform="matrix(0.969, 0, 0, -1, -0.973, 14.251)" gradientUnits="objectBoundingBox">
      <stop offset="0" stop-color="#808184"/>
      <stop offset="0.048" stop-color="#797a7d"/>
      <stop offset="0.115" stop-color="#68686b"/>
      <stop offset="0.193" stop-color="#4d4b4d"/>
      <stop offset="0.279" stop-color="#262223"/>
      <stop offset="0.286" stop-color="#231f20"/>
      <stop offset="0.509" stop-color="#363335"/>
      <stop offset="0.967" stop-color="#69696b"/>
      <stop offset="1" stop-color="#6d6e70"/>
    </radialGradient>
    <clipPath id="clip-path-8">
      <path id="Path_8" data-name="Path 8" d="M1044.749,88.964a1.837,1.837,0,0,1,.247,2.861c-.664.932-1.4,1.811-2.119,2.7-.508.633-.491.6-.15,1.3a7.561,7.561,0,0,0,1.046,1.643,1.97,1.97,0,0,0,2.079.688c1.148-.256,2.307-.469,3.467-.669a1.65,1.65,0,0,1,2.135,1.154c.453,1.252.851,3.954,1.19,5.241a2.259,2.259,0,0,1-1.159,2.519,8.3,8.3,0,0,1-2.152.857c-1.614.459-2.29.483-2.365,1.991A2.871,2.871,0,0,0,1049,112.26c1.01.392,2.059.68,3.073,1.062,1.138.429,1.405.8,1.212,1.964-.244,1.467-.5,4.933-.869,6.373-.261,1.014-.755,1.283-1.808,1.139a32.083,32.083,0,0,1-3.394-.543,2.24,2.24,0,0,0-2.6,1.127l55.564,4.814.5-39.887-58.687-1.983q1.392,1.3,2.755,2.637" transform="translate(-1041.994 -86.327)" fill="none"/>
    </clipPath>
    <clipPath id="clip-path-9">
      <path id="Path_7" data-name="Path 7" d="M767.384,399.6a7.348,7.348,0,0,1,13.573-3.913,7.693,7.693,0,1,0-8.636,10.861,7.357,7.357,0,0,1-4.937-6.948" transform="translate(-766.345 -391.345)" fill="none"/>
    </clipPath>
    <linearGradient id="linear-gradient-4" x1="-3.614" y1="2.13" x2="-3.61" y2="2.13" xlink:href="#linear-gradient-3"/>
    <clipPath id="clip-path-12">
      <path id="Path_11" data-name="Path 11" d="M614.964,444.954s-1.772,8.667,9.007,8.212c0,0-11.515,3.25-10.779-8.212Z" transform="translate(-613.158 -444.954)" fill="none"/>
    </clipPath>
    <linearGradient id="linear-gradient-5" x1="-3.793" y1="2.393" x2="-3.787" y2="2.393" xlink:href="#linear-gradient-3"/>
    <clipPath id="clip-path-13">
      <path id="Path_13" data-name="Path 13" d="M1063.426,230.376q.094.122.195.239a1.97,1.97,0,0,0,2.079.688c1.148-.256,2.307-.469,3.467-.669a1.65,1.65,0,0,1,2.135,1.154c.028.076.055.157.082.243.649.02.995.048.995.048,11.515,1.428,17.628,7.243,17.628,7.243,19.463-.408,24.151,2.244,24.151,2.244-7.541-5-22.928-4.693-22.928-4.693-5.4-4.183-13.96-5.917-13.96-5.917a38.625,38.625,0,0,0-8.411-.848c-1.817,0-3.642.1-5.433.266" transform="translate(-1063.426 -230.11)" fill="none"/>
    </clipPath>
    <linearGradient id="linear-gradient-6" x1="-7.681" y1="1.25" x2="-7.675" y2="1.25" xlink:href="#linear-gradient"/>
    <clipPath id="clip-path-15">
      <path id="Path_16" data-name="Path 16" d="M1165.257,278.657s7.693,1.53,9.732,4.693l-11.353,1.273q-.15.083-.3.155h16.446s-7.194-6.131-14.033-6.132c-.163,0-.325,0-.488.011" transform="translate(-1163.332 -278.646)" fill="none"/>
    </clipPath>
    <linearGradient id="linear-gradient-7" x1="-13.919" y1="2.747" x2="-13.907" y2="2.747" xlink:href="#linear-gradient"/>
    <clipPath id="clip-path-17">
      <path id="Path_17" data-name="Path 17" d="M912.816,278.5v-5.3s-9.986-.408-16.406,2.346c0,0,4.891-3.775,17.221-3.672Z" transform="translate(-896.41 -271.869)" fill="none"/>
    </clipPath>
    <linearGradient id="linear-gradient-8" x1="-9.965" y1="2.663" x2="-9.955" y2="2.663" xlink:href="#linear-gradient-3"/>
    <clipPath id="clip-path-18">
      <path id="Path_19" data-name="Path 19" d="M1732.027,465.749c1.325.018,6.012,0,6.012,0-7.235-2.227-1.54-7.667-1.54-7.667-4.687.51-4.472,7.667-4.472,7.667" transform="translate(-1732.025 -458.082)" fill="none"/>
    </clipPath>
    <linearGradient id="linear-gradient-9" x1="-16.104" y1="3.632" x2="-16.095" y2="3.632" xlink:href="#linear-gradient"/>
    <clipPath id="clip-path-19">
      <path id="Path_20" data-name="Path 20" d="M1147.924,393.4c-6.591-2.923-12.516-1.832-18.837-.74a56.84,56.84,0,0,1-11.107,1.13,3.407,3.407,0,0,0,1.386.933c1.01.392,2.059.68,3.073,1.062,1.138.429,1.405.8,1.212,1.964-.1.625-.21,1.614-.326,2.654a44.114,44.114,0,0,0,18.683-2.228s-6.784,4.709-18.846,3.628c-.09.729-.187,1.413-.294,1.94,7.194,2.095,16.429,3.41,24.248.1a7.69,7.69,0,0,0,4.306,2.716,7.355,7.355,0,1,1,8.635-10.861,7.688,7.688,0,0,0-12.135-2.3" transform="translate(-1117.98 -391.357)" fill="none"/>
    </clipPath>
    <linearGradient id="linear-gradient-10" x1="-5.356" y1="1.079" x2="-5.352" y2="1.079" xlink:href="#linear-gradient"/>
    <clipPath id="clip-path-21">
      <rect id="Rectangle_15" data-name="Rectangle 15" width="12.842" height="12.857" fill="none"/>
    </clipPath>
    <clipPath id="clip-path-22">
      <path id="Path_21" data-name="Path 21" d="M1523.187,417.494a6.429,6.429,0,1,0,6.421,6.429,6.432,6.432,0,0,0-6.421-6.429m0,10.828a4.4,4.4,0,1,1,4.4-4.4,4.4,4.4,0,0,1-4.4,4.4m3.174-8.656a5.7,5.7,0,0,0-2.351-1.157,5.238,5.238,0,0,1,4.788,4.633l-.494.016a5.049,5.049,0,0,0-1.943-3.492" transform="translate(-1516.766 -417.494)" fill="none"/>
    </clipPath>
    <radialGradient id="radial-gradient-2" cx="0.5" cy="0.5" r="0.816" gradientTransform="matrix(1, 0, 0, -1, 0, 4.686)" gradientUnits="objectBoundingBox">
      <stop offset="0" stop-color="#4d4d4f"/>
      <stop offset="0.271" stop-color="#343233"/>
      <stop offset="0.507" stop-color="#231f20"/>
      <stop offset="0.677" stop-color="#363436"/>
      <stop offset="0.865" stop-color="#474648"/>
      <stop offset="1" stop-color="#4d4d4f"/>
    </radialGradient>
    <clipPath id="clip-path-23">
      <path id="Path_23" data-name="Path 23" d="M1518.792,423.923a4.4,4.4,0,1,1,4.395,4.4,4.4,4.4,0,0,1-4.395-4.4m7.568-4.256a5.7,5.7,0,0,0-2.351-1.157,5.238,5.238,0,0,1,4.788,4.633l-.494.016a5.049,5.049,0,0,0-1.943-3.492m-9.595,4.256a6.421,6.421,0,1,0,6.421-6.429,6.432,6.432,0,0,0-6.421,6.429" transform="translate(-1516.766 -417.494)" fill="none"/>
    </clipPath>
    <radialGradient id="radial-gradient-3" cx="0.5" cy="0.5" r="0.746" gradientTransform="matrix(1, 0, 0, -1, 0, 4.686)" gradientUnits="objectBoundingBox">
      <stop offset="0" stop-color="#808184"/>
      <stop offset="0.082" stop-color="#797a7d"/>
      <stop offset="0.197" stop-color="#68686b"/>
      <stop offset="0.332" stop-color="#4d4b4d"/>
      <stop offset="0.48" stop-color="#262223"/>
      <stop offset="0.493" stop-color="#231f20"/>
      <stop offset="0.651" stop-color="#363335"/>
      <stop offset="0.977" stop-color="#69696b"/>
      <stop offset="1" stop-color="#6d6e70"/>
    </radialGradient>
    <clipPath id="clip-path-25">
      <rect id="Rectangle_18" data-name="Rectangle 18" width="12.843" height="12.857" fill="none"/>
    </clipPath>
    <clipPath id="clip-path-26">
      <path id="Path_24" data-name="Path 24" d="M799.93,417.494a6.429,6.429,0,1,0,6.422,6.429,6.432,6.432,0,0,0-6.422-6.429m0,10.828a4.4,4.4,0,1,1,4.4-4.4,4.4,4.4,0,0,1-4.4,4.4m3.174-8.656a5.7,5.7,0,0,0-2.35-1.157,5.239,5.239,0,0,1,4.788,4.633l-.495.016a5.047,5.047,0,0,0-1.943-3.492" transform="translate(-793.509 -417.494)" fill="none"/>
    </clipPath>
    <radialGradient id="radial-gradient-4" r="0.816" xlink:href="#radial-gradient-2"/>
    <radialGradient id="radial-gradient-5" cy="0.5" r="0.746" xlink:href="#radial-gradient-3"/>
    <clipPath id="clip-path-30">
      <path id="Path_28" data-name="Path 28" d="M851.795,477.274a2.311,2.311,0,1,1,2.309-2.311,2.313,2.313,0,0,1-2.309,2.311m0-4.323a2.012,2.012,0,1,0,2.01,2.012,2.013,2.013,0,0,0-2.01-2.012" transform="translate(-849.486 -472.651)" fill="none"/>
    </clipPath>
    <linearGradient id="linear-gradient-11" x1="-13.597" y1="5.634" x2="-13.581" y2="5.634" xlink:href="#linear-gradient-3"/>
    <clipPath id="clip-path-32">
      <path id="Path_30" data-name="Path 30" d="M874.364,498.677a.487.487,0,1,1,.487-.487.487.487,0,0,1-.487.487m0-.825a.338.338,0,1,0,.337.338.338.338,0,0,0-.337-.338" transform="translate(-873.877 -497.703)" fill="none"/>
    </clipPath>
    <linearGradient id="linear-gradient-12" x1="-66.369" y1="24.829" x2="-66.293" y2="24.829" xlink:href="#linear-gradient-3"/>
    <clipPath id="clip-path-34">
      <path id="Path_32" data-name="Path 32" d="M856.134,481.243l.144-1.291-.98-.85,1.271-.261.505-1.2.641,1.129,1.292.112-.875.959.293,1.265-1.181-.536Zm-.251-1.988.677.588-.1.891.767-.463.816.37-.2-.873.6-.662-.893-.077-.443-.78-.349.826Z" transform="translate(-855.299 -477.645)" fill="none"/>
    </clipPath>
    <radialGradient id="radial-gradient-6" r="0.704" gradientTransform="matrix(0.969, 0, 0, -1, -0.528, 14.272)" xlink:href="#radial-gradient"/>
    <clipPath id="clip-path-35">
      <path id="Path_44" data-name="Path 44" d="M983.211,392.236s-11.487,7.977-31.151.784c0,0,20.873,11.4,36.258,4.883a7.69,7.69,0,0,0,4.306,2.716,7.355,7.355,0,1,1,8.635-10.861,7.69,7.69,0,0,0-12.135-2.3c-6.591-2.923-12.516-1.832-18.837-.74-6.971,1.2-14.423,2.407-23.781-1.774,0,0,10.486,15.673,36.7,7.289" transform="translate(-946.507 -384.947)" fill="none"/>
    </clipPath>
  </defs>
  <g id="Group_71" data-name="Group 71" clip-path="url(#clip-path)">
    <g id="Group_2" data-name="Group 2">
      <g id="Group_1" data-name="Group 1" clip-path="url(#clip-path)">
        <path id="Path_1" data-name="Path 1" d="M1.527,177.771c1.67-1.186,3.088-2.669,4.661-3.969,1.718-1.42,3.365-2.931,5.138-4.277,3.52-2.674,7.448-2.628,11.4,0,1.985,1.32,3.971,2.639,6.056,3.8a23.114,23.114,0,0,0,11.842,2.984c4.74-.076,20.67-.123,25.411-.185.338,0,.675-.035,1.13-.06A11.2,11.2,0,0,0,63.7,172.2a14.3,14.3,0,0,0-13.337-2.008,12.849,12.849,0,0,0-3.6,2.093,3.667,3.667,0,0,1-4.61-.346c-.451-.459,0-.806.244-1.111a13.332,13.332,0,0,1,5.178-3.834,19.585,19.585,0,0,1,20.767,3.757,18.945,18.945,0,0,1,3.115,23.17c-4.178,6.916-13.263,10.045-21.086,7.278a20.2,20.2,0,0,1-6.184-3.515c-.651-.538-.647-.964-.056-1.587,1.723-1.819,1.7-1.842,3.742-.477A14.109,14.109,0,0,0,65.1,195.14a13.829,13.829,0,0,0,4.476-6.716,1.324,1.324,0,0,0-.685-.176H42.737c-.743.021-1.487.015-2.23.013a7.5,7.5,0,0,0-5.3,2.144c-2.473,2.345-4.891,4.75-7.273,7.187a7.39,7.39,0,0,1-6.281,2.38c-4.563-.445-9.124-.911-13.652-1.653-.482-.079-1.509.122-2.02.015a2.951,2.951,0,0,1-.409-.933c-.483-1.736-.482-1.732,1.207-2.216q5.759-1.651,11.517-3.307c1.53-.438,1.961-.971,2.043-2.562a14.487,14.487,0,0,0-3.236-10.21c-1.114-1.379-1.815-1.626-3.45-1.151q-5.53,1.606-11.071,3.179C.907,181.609.176,181.1,0,179.4l1.527-1.629" transform="translate(0 -153.265)"/>
      </g>
    </g>
    <g id="Group_4" data-name="Group 4" transform="translate(30.838)">
      <g id="Group_3" data-name="Group 3" clip-path="url(#clip-path-3)">
        <rect id="Rectangle_2" data-name="Rectangle 2" width="77.142" height="74.142" transform="translate(-20.628 53.491) rotate(-69.193)" fill="url(#linear-gradient)"/>
      </g>
    </g>
    <g id="Group_6" data-name="Group 6">
      <g id="Group_5" data-name="Group 5" clip-path="url(#clip-path)">
        <path id="Path_3" data-name="Path 3" d="M365.705,321.264a1.5,1.5,0,0,0-1.207-.531,1.641,1.641,0,0,0-.758.189,8.089,8.089,0,0,0-.824.54l-2.4,1.722a2.98,2.98,0,0,1-1.481.692q-.731,0-.731-.8,0-.4.054-1.1l-.463-.067a2.6,2.6,0,0,1-.6,1.56,1.668,1.668,0,0,1-1.188.395l-.959.007h-7.945l-.723-4.151.242.094a5.593,5.593,0,0,0,.443-1.572q-1.073-.457-1.073-.846a2.141,2.141,0,0,0,.027-.215l-.315-.161a4.254,4.254,0,0,0-.644,2.015l.429.282.818,4.554h-2.422a2.514,2.514,0,0,1-.778-.275,4.547,4.547,0,0,1-.785-.737,14.359,14.359,0,0,0-1.6-1.575,2.194,2.194,0,0,0-1.308-.5q-1.127,0-1.852,1.646a3.46,3.46,0,0,1,.738-.094,4.08,4.08,0,0,1,2.7,1.538H327.018a10.439,10.439,0,0,0-1.636.128,2.165,2.165,0,0,0,1.315-2.213,3.245,3.245,0,0,0-.215-1.14q-.249-.671-.592-.671-.881,0-2.246,3.7a7.015,7.015,0,0,1-1.328.194h-1.073q-.658,0-.658-2.382v-1.322a4.342,4.342,0,0,0-.728-2.617l-.728,1.679a2.61,2.61,0,0,1,.4.5,2.265,2.265,0,0,1,.188,1.014v1.913a5.308,5.308,0,0,0,.392,2.4,1.194,1.194,0,0,0,1.136.647h2.008a4.331,4.331,0,0,0,.7,2.368,1.9,1.9,0,0,0,1.581.984.758.758,0,0,0,.616-.3,4.008,4.008,0,0,0,.522-1.138,4.139,4.139,0,0,0,.268-1.155.536.536,0,0,0-.221-.45q-.248-.134-.49-.275.369-.033.792-.034h28.608v0l.49,0a2.063,2.063,0,0,0,.939-.195,2.72,2.72,0,0,0,.818-.813,1.314,1.314,0,0,0,1.248,1.014h7.105v-2.576a2.858,2.858,0,0,0-.516-1.863m-40.449.678q.133,0,.26.252a1,1,0,0,1,.127.433q0,.41-1.349.887.627-1.572.961-1.572m.474,5.347a1.661,1.661,0,0,1-1.1-.435,1.779,1.779,0,0,1-.623-1.036,3.563,3.563,0,0,1,1.488.607.93.93,0,0,1,.438.715q0,.148-.2.148m37.345-3.419h-1.758a5.814,5.814,0,0,1,2.6-1.323,2.465,2.465,0,0,1,.886.154q.476.187.476.488,0,.682-2.207.682" transform="translate(-295.542 -293.56)" fill="#fff"/>
      </g>
    </g>
    <g id="Group_8" data-name="Group 8" transform="translate(116.219 35.01)">
      <g id="Group_7" data-name="Group 7" clip-path="url(#clip-path-5)">
        <rect id="Rectangle_4" data-name="Rectangle 4" width="4.618" height="4.623" transform="translate(0 0)" fill="url(#linear-gradient-2)"/>
      </g>
    </g>
    <g id="Group_10" data-name="Group 10" transform="translate(118.023 36.864)">
      <g id="Group_9" data-name="Group 9" clip-path="url(#clip-path-6)">
        <rect id="Rectangle_5" data-name="Rectangle 5" width="0.973" height="0.974" transform="translate(0 0)" fill="url(#linear-gradient-3)"/>
      </g>
    </g>
    <g id="Group_12" data-name="Group 12" transform="translate(116.649 35.379)">
      <g id="Group_11" data-name="Group 11" clip-path="url(#clip-path-7)">
        <rect id="Rectangle_6" data-name="Rectangle 6" width="3.709" height="3.598" fill="url(#radial-gradient)"/>
      </g>
    </g>
    <g id="Group_16" data-name="Group 16" transform="translate(77.016 6.388)">
      <g id="Group_15" data-name="Group 15" clip-path="url(#clip-path-8)">
        <g id="Group_14" data-name="Group 14" transform="translate(-20.374 22.57)">
          <g id="Group_13" data-name="Group 13" clip-path="url(#clip-path-9)">
            <rect id="Rectangle_7" data-name="Rectangle 7" width="15.56" height="14.986" transform="translate(-0.379 15.19) rotate(-88.568)" fill="url(#linear-gradient-4)"/>
          </g>
        </g>
      </g>
    </g>
    <g id="Group_18" data-name="Group 18" transform="translate(77.016 6.388)">
      <g id="Group_17" data-name="Group 17" clip-path="url(#clip-path-8)">
        <path id="Path_9" data-name="Path 9" d="M620.389,324.384a5.59,5.59,0,0,0-3.363,4.795c-.407,3.775,0-7.651,0-7.651s.306.816,3.363,2.856" transform="translate(-648.268 -304.124)" fill="#841013"/>
      </g>
    </g>
    <g id="Group_22" data-name="Group 22" transform="translate(77.016 6.388)">
      <g id="Group_21" data-name="Group 21" clip-path="url(#clip-path-8)">
        <g id="Group_20" data-name="Group 20" transform="translate(-31.696 26.537)">
          <g id="Group_19" data-name="Group 19" clip-path="url(#clip-path-12)">
            <rect id="Rectangle_8" data-name="Rectangle 8" width="11.747" height="11.797" transform="translate(-0.988 11.456) rotate(-88.568)" fill="url(#linear-gradient-5)"/>
          </g>
        </g>
      </g>
    </g>
    <g id="Group_24" data-name="Group 24" transform="translate(78.6 17.027)">
      <g id="Group_23" data-name="Group 23" clip-path="url(#clip-path-13)">
        <rect id="Rectangle_9" data-name="Rectangle 9" width="12.722" height="51.002" transform="translate(-0.286 11.45) rotate(-88.568)" fill="url(#linear-gradient-6)"/>
      </g>
    </g>
    <g id="Group_26" data-name="Group 26" transform="translate(77.016 6.388)">
      <g id="Group_25" data-name="Group 25" clip-path="url(#clip-path-8)">
        <path id="Path_14" data-name="Path 14" d="M1698.062,391.119s-.815-1.938-5.91-2.142c0,0-.149-.594-1.631-2.04a6.852,6.852,0,0,1,7.541,4.183" transform="translate(-1642.587 -364.601)"/>
      </g>
    </g>
    <g id="Group_28" data-name="Group 28" transform="translate(85.984 20.618)">
      <g id="Group_27" data-name="Group 27" clip-path="url(#clip-path-15)">
        <rect id="Rectangle_10" data-name="Rectangle 10" width="6.541" height="16.594" transform="translate(-0.153 6.128) rotate(-88.568)" fill="url(#linear-gradient-7)"/>
      </g>
    </g>
    <g id="Group_32" data-name="Group 32" transform="translate(77.016 6.388)">
      <g id="Group_31" data-name="Group 31" clip-path="url(#clip-path-8)">
        <g id="Group_30" data-name="Group 30" transform="translate(-10.76 13.729)">
          <g id="Group_29" data-name="Group 29" clip-path="url(#clip-path-17)">
            <rect id="Rectangle_11" data-name="Rectangle 11" width="7.161" height="17.384" transform="matrix(0.025, -1, 1, 0.025, -0.168, 6.629)" fill="url(#linear-gradient-8)"/>
          </g>
        </g>
      </g>
    </g>
    <g id="Group_34" data-name="Group 34" transform="translate(128.018 33.896)">
      <g id="Group_33" data-name="Group 33" clip-path="url(#clip-path-18)">
        <rect id="Rectangle_12" data-name="Rectangle 12" width="7.863" height="7.424" transform="translate(-1.413 7.68) rotate(-88.568)" fill="url(#linear-gradient-9)"/>
      </g>
    </g>
    <g id="Group_36" data-name="Group 36" transform="translate(82.632 28.958)">
      <g id="Group_35" data-name="Group 35" clip-path="url(#clip-path-19)">
        <rect id="Rectangle_13" data-name="Rectangle 13" width="17.723" height="42.482" transform="matrix(0.025, -1, 1, 0.025, -0.416, 15.782)" fill="url(#linear-gradient-10)"/>
      </g>
    </g>
    <g id="Group_43" data-name="Group 43" transform="translate(77.016 6.388)">
      <g id="Group_42" data-name="Group 42" clip-path="url(#clip-path-8)">
        <g id="Group_41" data-name="Group 41" transform="translate(35.092 24.505)" opacity="0.5">
          <g id="Group_40" data-name="Group 40">
            <g id="Group_39" data-name="Group 39" clip-path="url(#clip-path-21)">
              <g id="Group_38" data-name="Group 38" transform="translate(0 0)">
                <g id="Group_37" data-name="Group 37" clip-path="url(#clip-path-22)">
                  <rect id="Rectangle_14" data-name="Rectangle 14" width="12.843" height="12.857" transform="translate(0 0)" fill="url(#radial-gradient-2)"/>
                </g>
              </g>
            </g>
          </g>
        </g>
      </g>
    </g>
    <g id="Group_45" data-name="Group 45" transform="translate(112.107 30.892)">
      <g id="Group_44" data-name="Group 44" clip-path="url(#clip-path-23)">
        <rect id="Rectangle_16" data-name="Rectangle 16" width="12.843" height="12.857" transform="translate(0 0)" fill="url(#radial-gradient-3)"/>
      </g>
    </g>
    <g id="Group_52" data-name="Group 52" transform="translate(77.016 6.388)">
      <g id="Group_51" data-name="Group 51" clip-path="url(#clip-path-8)">
        <g id="Group_50" data-name="Group 50" transform="translate(-18.366 24.505)" opacity="0.5">
          <g id="Group_49" data-name="Group 49">
            <g id="Group_48" data-name="Group 48" clip-path="url(#clip-path-25)">
              <g id="Group_47" data-name="Group 47" transform="translate(0 0)">
                <g id="Group_46" data-name="Group 46" clip-path="url(#clip-path-26)">
                  <rect id="Rectangle_17" data-name="Rectangle 17" width="12.843" height="12.857" transform="translate(0 0)" fill="url(#radial-gradient-4)"/>
                </g>
              </g>
            </g>
          </g>
        </g>
      </g>
    </g>
    <g id="Group_56" data-name="Group 56" transform="translate(77.016 6.388)">
      <g id="Group_55" data-name="Group 55" clip-path="url(#clip-path-8)">
        <g id="Group_54" data-name="Group 54" transform="translate(-18.366 24.505)">
          <g id="Group_53" data-name="Group 53" clip-path="url(#clip-path-26)">
            <rect id="Rectangle_19" data-name="Rectangle 19" width="12.843" height="12.857" transform="translate(0 0)" fill="url(#radial-gradient-5)"/>
          </g>
        </g>
      </g>
    </g>
    <g id="Group_60" data-name="Group 60" transform="translate(77.016 6.388)">
      <g id="Group_59" data-name="Group 59" clip-path="url(#clip-path-8)">
        <g id="Group_58" data-name="Group 58" transform="translate(-14.229 28.586)">
          <g id="Group_57" data-name="Group 57" clip-path="url(#clip-path-30)">
            <rect id="Rectangle_20" data-name="Rectangle 20" width="4.618" height="4.623" transform="translate(0 0)" fill="url(#linear-gradient-11)"/>
          </g>
        </g>
      </g>
    </g>
    <g id="Group_64" data-name="Group 64" transform="translate(77.016 6.388)">
      <g id="Group_63" data-name="Group 63" clip-path="url(#clip-path-8)">
        <g id="Group_62" data-name="Group 62" transform="translate(-12.426 30.44)">
          <g id="Group_61" data-name="Group 61" transform="translate(0 0)" clip-path="url(#clip-path-32)">
            <rect id="Rectangle_21" data-name="Rectangle 21" width="0.973" height="0.974" transform="translate(0 0)" fill="url(#linear-gradient-12)"/>
          </g>
        </g>
      </g>
    </g>
    <g id="Group_68" data-name="Group 68" transform="translate(77.016 6.388)">
      <g id="Group_67" data-name="Group 67" clip-path="url(#clip-path-8)">
        <g id="Group_66" data-name="Group 66" transform="translate(-13.799 28.955)">
          <g id="Group_65" data-name="Group 65" clip-path="url(#clip-path-34)">
            <rect id="Rectangle_22" data-name="Rectangle 22" width="3.709" height="3.598" transform="translate(0 0)" fill="url(#radial-gradient-6)"/>
          </g>
        </g>
      </g>
    </g>
    <g id="Group_70" data-name="Group 70" transform="translate(69.958 28.484)">
      <g id="Group_69" data-name="Group 69" clip-path="url(#clip-path-35)">
        <path id="Path_34" data-name="Path 34" d="M1196.6,424.849c.445.02.678.019,1.156,0-.054.836.067,2.019,1.058,2.176a1.133,1.133,0,0,0,.872-.213,1.551,1.551,0,0,0,.555-1.145,1.216,1.216,0,0,0-.461-1.192c-.131-.1-.451-.279-.932-.543a2.418,2.418,0,0,1-1.155-1.142,3.754,3.754,0,0,1-.135-2.049,5.166,5.166,0,0,1,.49-1.416,3.251,3.251,0,0,1,.77-.979,2.32,2.32,0,0,1,1.1-.516,1.317,1.317,0,0,1,1.395.477,4.152,4.152,0,0,1,.463,2.557c-.482.052-.725.077-1.207.125a2.313,2.313,0,0,0-.2-1.213.662.662,0,0,0-.666-.276,1.156,1.156,0,0,0-.811.42,1.267,1.267,0,0,0-.268.638,1.031,1.031,0,0,0,.073.621,2.221,2.221,0,0,0,.973.75,5.037,5.037,0,0,1,1.21.774,4.2,4.2,0,0,1,.667,3.019,5.19,5.19,0,0,1-.471,1.823,2.2,2.2,0,0,1-.99,1.065,2.286,2.286,0,0,1-1.487.112c-1.841-.406-2.194-2.22-1.992-3.873" transform="translate(-1178.072 -415.369)" fill="#fff"/>
        <path id="Path_35" data-name="Path 35" d="M1276.833,456.149c-.4-.155-.6-.231-1.005-.38a4.752,4.752,0,0,1,.783-1.935,1.62,1.62,0,0,1,1.134-.554,1.417,1.417,0,0,1,1.528,1.242,9.561,9.561,0,0,1,.1,2.17q-.035,1.412-.07,2.825a14.762,14.762,0,0,0,.214,3.031c-.463-.047-.695-.074-1.157-.139q-.044-.261-.1-.719-.026-.229-.034-.277c-.413.738-.875,1.037-1.395.947a1.488,1.488,0,0,1-1.036-.789,3.333,3.333,0,0,1-.35-1.879,3.066,3.066,0,0,1,.822-2.112,2.95,2.95,0,0,1,.928-.506,3.5,3.5,0,0,0,1.088-.544c0-.092,0-.139.007-.231a1.815,1.815,0,0,0-.171-1.022.582.582,0,0,0-.526-.209c-.354.008-.608.369-.766,1.084m1.409,1.932a6.233,6.233,0,0,1-.687.3,1.585,1.585,0,0,0-.627.376,1.323,1.323,0,0,0-.26.784,1.705,1.705,0,0,0,.15.855.609.609,0,0,0,.436.382.657.657,0,0,0,.6-.337,1.7,1.7,0,0,0,.3-.742,9.684,9.684,0,0,0,.079-1.152c.006-.186.008-.28.014-.466" transform="translate(-1251.13 -448.218)" fill="#fff"/>
        <path id="Path_36" data-name="Path 36" d="M1344.915,418.087c.02-4.286.087-8.571.107-12.857.423-.034.636-.047,1.059-.064.024,4.324-.015,8.648.009,12.972-.47-.011-.7-.021-1.174-.051" transform="translate(-1315.468 -403.67)" fill="#fff"/>
        <path id="Path_37" data-name="Path 37" d="M1378.075,404.955q.07,2.369.111,4.74c.332-.931.72-1.38,1.2-1.378.518,0,.932.37,1.193,1.083a10.394,10.394,0,0,1,.423,2.841c.09,1.751.185,3.5.293,5.251-.5.09-.753.129-1.243.195q-.113-2.409-.2-4.82c-.027-.743-.047-1.187-.061-1.328a2.4,2.4,0,0,0-.312-1.119.488.488,0,0,0-.406-.225c-.4,0-.647.4-.765,1.194a11.943,11.943,0,0,0-.068,1.785q.043,2.341.109,4.681c-.467.031-.7.041-1.17.052-.077-4.33-.07-8.66-.147-12.99.418,0,.626.012,1.037.036" transform="translate(-1345.217 -403.441)" fill="#fff"/>
        <path id="Path_38" data-name="Path 38" d="M1446.361,452.746c-.429-.111-.645-.17-1.074-.293a4.308,4.308,0,0,1,.533-2.021,1.32,1.32,0,0,1,1.105-.517,1.741,1.741,0,0,1,1.688,1.157,8.153,8.153,0,0,1,.382,1.858q.15,1.2.3,2.4a8.612,8.612,0,0,0,.586,2.346c-.435.169-.662.25-1.127.405-.052-.13-.115-.316-.19-.56-.037-.122-.06-.2-.07-.222a2.162,2.162,0,0,1-1.294,1.441,1.062,1.062,0,0,1-1.152-.351,3.084,3.084,0,0,1-.606-1.816,3.272,3.272,0,0,1,.536-2.318,2.949,2.949,0,0,1,.884-.652,4.1,4.1,0,0,0,1.047-.68l-.024-.213a1.642,1.642,0,0,0-.308-.928.681.681,0,0,0-.568-.167c-.367.026-.585.4-.651,1.127m1.709,1.606c-.047.043-.264.186-.661.438a1.9,1.9,0,0,0-.6.512,1.358,1.358,0,0,0-.161.829,1.415,1.415,0,0,0,.269.782.481.481,0,0,0,.5.209.953.953,0,0,0,.569-.526,1.73,1.73,0,0,0,.2-.762,8.011,8.011,0,0,0-.073-1.056l-.048-.425" transform="translate(-1408.42 -445.108)" fill="#fff"/>
        <path id="Path_39" data-name="Path 39" d="M1196.6,424.849c.445.02.678.019,1.156,0-.054.836.067,2.019,1.058,2.176a1.133,1.133,0,0,0,.872-.213,1.551,1.551,0,0,0,.555-1.145,1.216,1.216,0,0,0-.461-1.192c-.131-.1-.451-.279-.932-.543a2.418,2.418,0,0,1-1.155-1.142,3.754,3.754,0,0,1-.135-2.049,5.166,5.166,0,0,1,.49-1.416,3.251,3.251,0,0,1,.77-.979,2.32,2.32,0,0,1,1.1-.516,1.317,1.317,0,0,1,1.395.477,4.152,4.152,0,0,1,.463,2.557c-.482.052-.725.077-1.207.125a2.313,2.313,0,0,0-.2-1.213.662.662,0,0,0-.666-.276,1.156,1.156,0,0,0-.811.42,1.267,1.267,0,0,0-.268.638,1.031,1.031,0,0,0,.073.621,2.221,2.221,0,0,0,.973.75,5.037,5.037,0,0,1,1.21.774,4.2,4.2,0,0,1,.667,3.019,5.19,5.19,0,0,1-.471,1.823,2.2,2.2,0,0,1-.99,1.065,2.286,2.286,0,0,1-1.487.112c-1.841-.406-2.194-2.22-1.992-3.873" transform="translate(-1178.072 -415.369)" fill="#231f20"/>
        <path id="Path_40" data-name="Path 40" d="M1276.833,456.149c-.4-.155-.6-.231-1.005-.38a4.752,4.752,0,0,1,.783-1.935,1.62,1.62,0,0,1,1.134-.554,1.417,1.417,0,0,1,1.528,1.242,9.561,9.561,0,0,1,.1,2.17q-.035,1.412-.07,2.825a14.762,14.762,0,0,0,.214,3.031c-.463-.047-.695-.074-1.157-.139q-.044-.261-.1-.719-.026-.229-.034-.277c-.413.738-.875,1.037-1.395.947a1.488,1.488,0,0,1-1.036-.789,3.333,3.333,0,0,1-.35-1.879,3.066,3.066,0,0,1,.822-2.112,2.95,2.95,0,0,1,.928-.506,3.5,3.5,0,0,0,1.088-.544c0-.092,0-.139.007-.231a1.815,1.815,0,0,0-.171-1.022.582.582,0,0,0-.526-.209c-.354.008-.608.369-.766,1.084m1.409,1.932a6.233,6.233,0,0,1-.687.3,1.585,1.585,0,0,0-.627.376,1.323,1.323,0,0,0-.26.784,1.705,1.705,0,0,0,.15.855.609.609,0,0,0,.436.382.657.657,0,0,0,.6-.337,1.7,1.7,0,0,0,.3-.742,9.684,9.684,0,0,0,.079-1.152c.006-.186.008-.28.014-.466" transform="translate(-1251.13 -448.218)" fill="#231f20"/>
        <path id="Path_41" data-name="Path 41" d="M1344.915,418.087c.02-4.286.087-8.571.107-12.857.423-.034.636-.047,1.059-.064.024,4.324-.015,8.648.009,12.972-.47-.011-.7-.021-1.174-.051" transform="translate(-1315.468 -403.67)" fill="#231f20"/>
        <path id="Path_42" data-name="Path 42" d="M1378.075,404.955q.07,2.369.111,4.74c.332-.931.72-1.38,1.2-1.378.518,0,.932.37,1.193,1.083a10.394,10.394,0,0,1,.423,2.841c.09,1.751.185,3.5.293,5.251-.5.09-.753.129-1.243.195q-.113-2.409-.2-4.82c-.027-.743-.047-1.187-.061-1.328a2.4,2.4,0,0,0-.312-1.119.488.488,0,0,0-.406-.225c-.4,0-.647.4-.765,1.194a11.943,11.943,0,0,0-.068,1.785q.043,2.341.109,4.681c-.467.031-.7.041-1.17.052-.077-4.33-.07-8.66-.147-12.99.418,0,.626.012,1.037.036" transform="translate(-1345.217 -403.441)" fill="#231f20"/>
        <path id="Path_43" data-name="Path 43" d="M1446.361,452.746c-.429-.111-.645-.17-1.074-.293a4.308,4.308,0,0,1,.533-2.021,1.32,1.32,0,0,1,1.105-.517,1.741,1.741,0,0,1,1.688,1.157,8.153,8.153,0,0,1,.382,1.858q.15,1.2.3,2.4a8.612,8.612,0,0,0,.586,2.346c-.435.169-.662.25-1.127.405-.052-.13-.115-.316-.19-.56-.037-.122-.06-.2-.07-.222a2.162,2.162,0,0,1-1.294,1.441,1.062,1.062,0,0,1-1.152-.351,3.084,3.084,0,0,1-.606-1.816,3.272,3.272,0,0,1,.536-2.318,2.949,2.949,0,0,1,.884-.652,4.1,4.1,0,0,0,1.047-.68l-.024-.213a1.642,1.642,0,0,0-.308-.928.681.681,0,0,0-.568-.167c-.367.026-.585.4-.651,1.127m1.709,1.606c-.047.043-.264.186-.661.438a1.9,1.9,0,0,0-.6.512,1.358,1.358,0,0,0-.161.829,1.415,1.415,0,0,0,.269.782.481.481,0,0,0,.5.209.953.953,0,0,0,.569-.526,1.73,1.73,0,0,0,.2-.762,8.011,8.011,0,0,0-.073-1.056l-.048-.425" transform="translate(-1408.42 -445.108)" fill="#231f20"/>
      </g>
    </g>
  </g>
</svg>
