<svg id="لن_تبدأ_السيارة_" data-name="لن تبدأ السيارة؟" xmlns="http://www.w3.org/2000/svg" xmlns:xlink="http://www.w3.org/1999/xlink" width="373.028" height="83.511" viewBox="0 0 373.028 83.511">
  <defs>
    <clipPath id="clip-path">
      <path id="Path_381" data-name="Path 381" d="M276.494,0,228.269,83.51h11.068L287.562,0Z" transform="translate(-228.269 0)" fill="none"/>
    </clipPath>
    <clipPath id="clip-path-2">
      <path id="Path_383" data-name="Path 383" d="M41.776,0a41.755,41.755,0,1,0,0,83.51H86.548v-28h25.964a13.752,13.752,0,1,0,0-27.5H86.548V0Z" fill="none"/>
    </clipPath>
    <clipPath id="clip-path-3">
      <rect id="Rectangle_366" data-name="Rectangle 366" width="373.028" height="83.51" fill="none"/>
    </clipPath>
  </defs>
  <g id="Group_804" data-name="Group 804" transform="translate(313.734)">
    <g id="Group_803" data-name="Group 803" clip-path="url(#clip-path)">
      <rect id="Rectangle_364" data-name="Rectangle 364" width="59.293" height="83.51" fill="#fff"/>
    </g>
  </g>
  <path id="Path_382" data-name="Path 382" d="M67.179,0V83.51H283.422L331.648,0Z" transform="translate(25.152 0)" fill="#374c1e"/>
  <g id="Group_806" data-name="Group 806" transform="translate(0 0)">
    <g id="Group_805" data-name="Group 805" clip-path="url(#clip-path-2)">
      <path id="Path_388" data-name="Path 388" d="M0,0H126.285V83.51H0Z" transform="translate(0 0)" fill="#fff"/>
    </g>
  </g>
  <g id="Group_808" data-name="Group 808">
    <g id="Group_807" data-name="Group 807" clip-path="url(#clip-path-3)">
      <path id="Path_384" data-name="Path 384" d="M91.728,32.219a6.752,6.752,0,1,1-6.752-6.752,6.753,6.753,0,0,1,6.752,6.752" transform="translate(29.287 9.535)" fill="#374c1e" fill-rule="evenodd"/>
    </g>
    <g id="Group_822" data-name="Group 822" transform="translate(14.028 14.147)">
      <g id="Group_823" data-name="Group 823" transform="translate(0 3.074)">
        <path id="Path_404" data-name="Path 404" d="M35.223,36.1l3.854-11.951h.1c.131.483.265.966.392,1.451.493,1.893.989,3.786,1.469,5.682.075.295.193.409.514.4,1.007-.023,2.015-.008,3.023-.008H45.1c0,.559.012,1.079-.013,1.6,0,.077-.181.207-.278.208-1.6.013-3.207.016-4.811-.005-.114,0-.288-.2-.327-.335-.225-.776-.418-1.561-.623-2.343-.021-.079-.052-.155-.109-.327l-4,12.394-.111.005-3.389-14.93-.085-.02c-.035.12-.076.24-.1.361-.379,1.6-.763,3.2-1.13,4.8-.067.293-.174.42-.5.416-1.575-.019-3.151-.016-4.726,0-.323,0-.462-.074-.439-.424.029-.448.007-.9.007-1.384h4.123l2.8-11.755.1,0,3.667,16.161.071.005" transform="translate(-15.033 -12.253)" fill="#990404"/>
        <path id="Path_405" data-name="Path 405" d="M27.179,13.725a14.66,14.66,0,0,0-19.41,4.2A14.894,14.894,0,0,0,11.64,38.732c-.729,1.273-1.442,2.529-2.172,3.774a.486.486,0,0,1-.352.156,2.863,2.863,0,0,0-2.485,1.532Q3.529,49.6.411,55a2.815,2.815,0,1,0,4.865,2.832q3.152-5.45,6.285-10.912a2.744,2.744,0,0,0-.008-2.876.49.49,0,0,1-.005-.573c.644-1.1,1.271-2.214,1.906-3.32.06-.1.138-.2.2-.29a14.658,14.658,0,0,0,19.375-7.008,14.837,14.837,0,0,0-5.853-19.124M19.746,39.547a13.2,13.2,0,1,1,13.2-13.2,13.2,13.2,0,0,1-13.2,13.2" transform="translate(0 -7.2)" fill="#032e00"/>
        <path id="Path_406" data-name="Path 406" d="M104.444,54.246a.866.866,0,0,0-1.249.41c-.423.689-.848,1.376-1.257,2.074a.549.549,0,0,1-.539.31q-4.619-.013-9.238,0a.548.548,0,0,1-.538-.312c-.3-.519-.618-1.033-.933-1.546a15.7,15.7,0,0,1-.574,2.255q.2.332.394.668a1.11,1.11,0,0,0,1.079.6c1.731-.015,3.463-.006,5.194-.006s3.491-.007,5.236,0a1.054,1.054,0,0,0,1.011-.563c.516-.881,1.059-1.747,1.587-2.621a.87.87,0,0,0-.174-1.271" transform="translate(-55.399 -33.265)" fill="#032e00"/>
        <path id="Path_407" data-name="Path 407" d="M93.026,18.509a13.03,13.03,0,0,0-.639-4.359,4.559,4.559,0,0,0-3.662-3.178c-.245-.046-.488-.1-.732-.148a3.73,3.73,0,0,1,3.436-2.973.861.861,0,0,0,.819-.5.816.816,0,0,0-.828-1.145,5,5,0,0,0-4.462,2.784c-.082.141-.156.286-.265.489-.112-.184-.188-.3-.254-.417C85.4,7.2,84.376,5.339,83.336,3.483A6.066,6.066,0,0,0,78.57.166,37.755,37.755,0,0,0,74.536.014C70.022,0,65.509.029,61,0a7.013,7.013,0,0,0-6.9,4.047q-.177.353-.361.7a15.68,15.68,0,0,1,1.475.762q.276-.505.547-1.011a5,5,0,0,1,4.614-2.812c1.532-.031,3.065-.018,4.6-.018,4.044,0,8.089,0,12.133.015a8.4,8.4,0,0,1,1.727.2,3.965,3.965,0,0,1,2.669,1.828c1.372,2.316,2.667,4.677,4,7.029a26.226,26.226,0,0,0-2.779.739c-1.824.7-3.616,1.487-5.414,2.256a23.761,23.761,0,0,1-6.76,1.936,16.518,16.518,0,0,1-7.65-1.013c-.19-.071-.379-.144-.568-.217a15.666,15.666,0,0,1,.474,1.959,18.922,18.922,0,0,0,6.866,1A22.6,22.6,0,0,0,77.386,15.5c1.945-.821,3.874-1.685,5.842-2.451a9.585,9.585,0,0,1,5.026-.5,3.077,3.077,0,0,1,2.553,2.1,11.172,11.172,0,0,1,.554,3.258c.021.316-.181.293-.386.292-1.7,0-3.408.045-5.109-.01a5.661,5.661,0,0,0-5.825,5.828c0,.142,0,.284,0,.426.007.687.3.98.992.981q4.875,0,9.75,0h.589V27.6c0,.525-.017,1.051.008,1.575.014.3-.1.411-.383.49a68.93,68.93,0,0,1-8.451,1.747,94.646,94.646,0,0,1-16.554.92c-3.052-.091-6.089-.306-9.1-.686a15.824,15.824,0,0,1-2.191,1.42l.633.128c0,.8.026,1.649-.01,2.5a.99.99,0,0,1-1.031.931q-3.423.011-6.846,0a.986.986,0,0,1-1.037-.924c-.005-.262-.007-.524-.01-.786a15.788,15.788,0,0,1-1.666-.177v.737a2.685,2.685,0,0,0,2.641,2.812q3.492.021,6.983,0a2.626,2.626,0,0,0,2.6-2.347c.067-.69.034-1.389.045-2.083,0-.163,0-.327,0-.53a100.359,100.359,0,0,0,23.762,0c0,.754-.007,1.459,0,2.164a2.7,2.7,0,0,0,2.831,2.8h6.6a2.7,2.7,0,0,0,2.837-2.832c0-5.649.011-11.3-.005-16.946m-1.689,5.238H81.659A8.184,8.184,0,0,1,81.94,22.5a3.836,3.836,0,0,1,3.623-2.632c1.856-.067,3.716-.014,5.575-.012a1.4,1.4,0,0,1,.2.034Zm.033,11.8a1.029,1.029,0,0,1-1.074,1.071q-3.4.01-6.8,0a1.012,1.012,0,0,1-1.059-1c-.026-.75,0-1.5-.012-2.253-.007-.335.235-.3.429-.335,1.3-.227,2.6-.415,3.891-.678,1.442-.294,2.87-.656,4.305-.988l.327-.077c0,.89,0,1.724,0,2.557,0,.567.01,1.134,0,1.7" transform="translate(-27.499 0)" fill="#032e00"/>
      </g>
    </g>
  </g>
</svg>
