<svg id="ما_هي_الرائحة" data-name="ما هي الرائحة" xmlns="http://www.w3.org/2000/svg" xmlns:xlink="http://www.w3.org/1999/xlink" width="373.028" height="83.511" viewBox="0 0 373.028 83.511">
  <defs>
    <clipPath id="clip-path">
      <path id="Path_381" data-name="Path 381" d="M276.494,0,228.269,83.51h11.068L287.562,0Z" transform="translate(-228.269 0)" fill="none"/>
    </clipPath>
    <clipPath id="clip-path-2">
      <path id="Path_383" data-name="Path 383" d="M41.776,0a41.755,41.755,0,1,0,0,83.51H86.548v-28h25.964a13.752,13.752,0,1,0,0-27.5H86.548V0Z" fill="none"/>
    </clipPath>
    <clipPath id="clip-path-3">
      <rect id="Rectangle_366" data-name="Rectangle 366" width="373.028" height="83.51" fill="none"/>
    </clipPath>
  </defs>
  <g id="Group_804" data-name="Group 804" transform="translate(313.734)">
    <g id="Group_803" data-name="Group 803" clip-path="url(#clip-path)">
      <rect id="Rectangle_364" data-name="Rectangle 364" width="59.293" height="83.51" fill="#fff"/>
    </g>
  </g>
  <path id="Path_382" data-name="Path 382" d="M67.179,0V83.51H283.422L331.648,0Z" transform="translate(25.152 0)" fill="#c90"/>
  <g id="Group_806" data-name="Group 806" transform="translate(0 0)">
    <g id="Group_805" data-name="Group 805" clip-path="url(#clip-path-2)">
      <path id="Path_388" data-name="Path 388" d="M0,0H126.285V83.51H0Z" transform="translate(0 0)" fill="#fff"/>
    </g>
  </g>
  <path id="Path_389" data-name="Path 389" d="M58.7,153.678l-3.36,6.558h2.016v6.786h2.687v-6.786h2.016Z" transform="translate(-10.096 -83.665)" fill="#990404"/>
  <path id="Path_390" data-name="Path 390" d="M12.2,144.89c-.97,1.513-4.082,5.438-6.8,5.438h0c-1.142,0-2.164-.736-3.125-2.244L0,149.529c1.475,2.313,3.289,3.486,5.394,3.487h0c4.611,0,8.531-5.846,9.047-6.647l1.668,1.131.9-7.313-6.461,3.543Z" transform="translate(19.006 -76.571)" fill="#990404"/>
  <path id="Path_391" data-name="Path 391" d="M102.928,145.612c-.962,1.509-1.984,2.243-3.125,2.244h0c-2.27,0-4.809-2.731-6.152-4.515l2.168-1.47-6.461-3.543.9,7.314,1.165-.789c1.4,1.894,4.665,5.691,8.382,5.691h0c2.1,0,3.919-1.174,5.394-3.488Z" transform="translate(-27.982 -75.594)" fill="#990404"/>
  <g id="Group_808" data-name="Group 808">
    <g id="Group_807" data-name="Group 807" clip-path="url(#clip-path-3)">
      <path id="Path_384" data-name="Path 384" d="M91.728,32.219a6.752,6.752,0,1,1-6.752-6.752,6.753,6.753,0,0,1,6.752,6.752" transform="translate(29.287 9.535)" fill="#c90" fill-rule="evenodd"/>
      <path id="Path_385" data-name="Path 385" d="M18.778,51.647c.165-.767.287-1.546.5-2.3a21.17,21.17,0,0,1,3.4-6.431,31.826,31.826,0,0,0,4.831-9.536A68.9,68.9,0,0,0,29.4,25.132c.711-4.241,1.094-8.519,1.443-12.8.175-2.133.405-4.261.629-6.388a8.44,8.44,0,0,1,.258-1.091l.128.016c.034.778.087,1.554.1,2.334A105.969,105.969,0,0,1,30.463,27.9a40.574,40.574,0,0,1-3.241,10.949c-1,2.035-2.225,3.962-3.327,5.95a29.358,29.358,0,0,0-2.565,5.135c-.9,2.8-.29,5.225,1.838,6.92a9.079,9.079,0,0,0,2.376,1.379c1.249.477,2.569.775,3.766,1.122-.2.023-.536.076-.87.1a11.341,11.341,0,0,1-6.472-1.255,5.846,5.846,0,0,1-3.11-4.474.875.875,0,0,0-.08-.2V51.647" transform="translate(7.031 1.817)" fill="#032e00"/>
      <path id="Path_386" data-name="Path 386" d="M42.848,59.249a16,16,0,0,0,4.439-1.183,7.157,7.157,0,0,0,3.657-3.193,6.188,6.188,0,0,0,.005-5.48c-.744-1.7-1.671-3.312-2.556-4.942-1.078-1.985-2.286-3.9-3.272-5.928a37.291,37.291,0,0,1-2.87-9.441,103.665,103.665,0,0,1-1.625-24.06c0-.044.011-.088.091-.165a2.079,2.079,0,0,1,.164.44c.184,1.354.39,2.7.526,4.064.433,4.317.755,8.648,1.278,12.955A56.048,56.048,0,0,0,46.04,36.367a32.837,32.837,0,0,0,3.7,6.44,25.059,25.059,0,0,1,3.3,5.992,11.223,11.223,0,0,1,.656,4.248,6.037,6.037,0,0,1-3.778,5.447,11.725,11.725,0,0,1-6.8.86,1.069,1.069,0,0,1-.175-.038.481.481,0,0,1-.1-.067" transform="translate(15.169 1.819)" fill="#032e00"/>
      <path id="Path_387" data-name="Path 387" d="M55.388,42.437c-.99.148-1.965.247-2.921.448a21.255,21.255,0,0,0-6.153,2.65c-1.068.614-2.13,1.247-3.234,1.792a9.082,9.082,0,0,1-8.53-.114c-1.245-.629-2.467-1.31-3.674-2.011a17.863,17.863,0,0,0-6.388-2.508c-.658-.095-1.324-.146-2.042-.223a3.792,3.792,0,0,1,2.866-1.864,6.194,6.194,0,0,1,4.5,1.193c.926.664,1.763,1.454,2.642,2.184a25.961,25.961,0,0,0,2.552,2.081,6.82,6.82,0,0,0,7.917-.034c.973-.639,1.8-1.5,2.709-2.24a32.552,32.552,0,0,1,2.984-2.319,5.676,5.676,0,0,1,4.45-.768,3.58,3.58,0,0,1,2.32,1.733" transform="translate(8.404 15.18)" fill="#032e00"/>
    </g>
  </g>
  <text id="ما_هي_الرائحة_التي_تشمها_" data-name="ما هي الرائحة
 التي تشمها؟" transform="translate(274.028 33.096)" fill="#fff" font-size="20" font-family="SegoeUI, Segoe UI">
 <tspan x="-109.492" y="0">ما هي الرائحة</tspan><tspan y="0"></tspan><tspan x="-106.143" y="27"> </tspan><tspan x="-107" y="27">التي تشمها؟</tspan></text>
</svg>
