<svg id="ماذا_تسمع_" data-name="ماذا تسمع؟" xmlns="http://www.w3.org/2000/svg" xmlns:xlink="http://www.w3.org/1999/xlink" width="373.028" height="83.511" viewBox="0 0 373.028 83.511">
  <defs>
    <clipPath id="clip-path">
      <path id="Path_381" data-name="Path 381" d="M276.494,0,228.269,83.51h11.068L287.562,0Z" transform="translate(-228.269 0)" fill="none"/>
    </clipPath>
    <clipPath id="clip-path-2">
      <path id="Path_383" data-name="Path 383" d="M41.776,0a41.755,41.755,0,1,0,0,83.51H86.548v-28h25.964a13.752,13.752,0,1,0,0-27.5H86.548V0Z" fill="none"/>
    </clipPath>
    <clipPath id="clip-path-3">
      <rect id="Rectangle_366" data-name="Rectangle 366" width="373.028" height="83.51" fill="none"/>
    </clipPath>
    <clipPath id="clip-path-4">
      <rect id="Rectangle_367" data-name="Rectangle 367" width="64.531" height="57.041" fill="none"/>
    </clipPath>
  </defs>
  <g id="Group_804" data-name="Group 804" transform="translate(313.734)">
    <g id="Group_803" data-name="Group 803" clip-path="url(#clip-path)">
      <rect id="Rectangle_364" data-name="Rectangle 364" width="59.293" height="83.51" fill="#fff"/>
    </g>
  </g>
  <path id="Path_382" data-name="Path 382" d="M67.179,0V83.51H283.422L331.648,0Z" transform="translate(25.152 0)" fill="#cf5300"/>
  <g id="Group_806" data-name="Group 806" transform="translate(0 0)">
    <g id="Group_805" data-name="Group 805" clip-path="url(#clip-path-2)">
      <path id="Path_388" data-name="Path 388" d="M0,0H126.285V83.51H0Z" transform="translate(0 0)" fill="#fff"/>
    </g>
  </g>
  <g id="Group_808" data-name="Group 808">
    <g id="Group_807" data-name="Group 807" clip-path="url(#clip-path-3)">
      <path id="Path_384" data-name="Path 384" d="M91.728,32.219a6.752,6.752,0,1,1-6.752-6.752,6.753,6.753,0,0,1,6.752,6.752" transform="translate(29.287 9.535)" fill="#cf5300" fill-rule="evenodd"/>
    </g>
    <g id="Group_811" data-name="Group 811" transform="translate(18.732 10.602)">
      <g id="Group_810" data-name="Group 810" clip-path="url(#clip-path-4)">
        <path id="Path_392" data-name="Path 392" d="M791.671,168.7a22.274,22.274,0,0,0-1.119-5.181,23.682,23.682,0,0,0-1.864-4.2,24.865,24.865,0,0,0-3.795-5.1,1.225,1.225,0,1,0-1.764,1.7A23.741,23.741,0,0,1,786.244,160a19.4,19.4,0,0,1,1.983,4.329,29.258,29.258,0,0,1,.887,3.865,21.975,21.975,0,0,1,.261,3.444,20.857,20.857,0,0,1-.667,5.2,22.541,22.541,0,0,1-2.031,5.214,22.941,22.941,0,0,1-3.569,4.873,1.4,1.4,0,0,0-.343.711,1.149,1.149,0,0,0,.717,1.271,1.193,1.193,0,0,0,1.411-.31,24.43,24.43,0,0,0,4.82-7.136,21.645,21.645,0,0,0,1.753-5.908c.183-1.374.322-2.754.456-3.918-.1-1.129-.176-2.031-.251-2.934" transform="translate(-727.391 -142.923)" fill="#032e00"/>
        <path id="Path_393" data-name="Path 393" d="M723.365,243.369a16.072,16.072,0,0,0-.819-4.6c-.261-.773-.554-1.538-.886-2.282A15.94,15.94,0,0,0,718.9,232.3a1.187,1.187,0,0,0-1.707-.078,1.228,1.228,0,0,0-.1,1.736A15.105,15.105,0,0,1,717.109,254a1.39,1.39,0,0,0-.313.689,1.17,1.17,0,0,0,.794,1.29,1.21,1.21,0,0,0,1.437-.447,17.468,17.468,0,0,0,3.732-7.047,18.623,18.623,0,0,0,.6-5.121" transform="translate(-666.091 -215.499)" fill="#032e00"/>
        <path id="Path_394" data-name="Path 394" d="M647.119,302.68a1.223,1.223,0,0,0-1.871,1.574,8.382,8.382,0,0,1,1.65,3.442,7.856,7.856,0,0,1-.085,3.736,8.04,8.04,0,0,1-1.56,3.032,1.115,1.115,0,0,0-.247,1.085,1.213,1.213,0,0,0,.979.9,1.269,1.269,0,0,0,1.282-.561,10.5,10.5,0,0,0,2.264-6.511,10.141,10.141,0,0,0-.455-3.092,9.949,9.949,0,0,0-1.956-3.606" transform="translate(-599.346 -280.872)" fill="#032e00"/>
        <path id="Path_395" data-name="Path 395" d="M38.047,14.244A17.7,17.7,0,0,0,36.5,10.486,18.686,18.686,0,0,0,33.186,6a18.071,18.071,0,0,0-5.012-3.54A25.416,25.416,0,0,0,24.75,1.127C23.544.756,22.3.523,21.06.254a22.948,22.948,0,0,0-8.221.26,14.542,14.542,0,0,0-5.19,2.565,17.463,17.463,0,0,0-5.906,8.4A1.21,1.21,0,0,0,2.7,13.026a1.189,1.189,0,0,0,1.415-.914A15.277,15.277,0,0,1,6.647,7.5,12.958,12.958,0,0,1,15,2.578a18.217,18.217,0,0,1,6.867.306,31.43,31.43,0,0,1,3.4,1,16.385,16.385,0,0,1,4.823,2.66,34.838,34.838,0,0,1,3.285,3.5,17.943,17.943,0,0,1,1.9,3.64,21.594,21.594,0,0,1,1.191,4.622,27.654,27.654,0,0,1,.23,4.793A9.948,9.948,0,0,1,36,26.537a28.369,28.369,0,0,1-2.042,4.17,27.22,27.22,0,0,1-7.348,7.987,46.5,46.5,0,0,0-5.989,5.161,15.612,15.612,0,0,0-2.887,4.071c-.4.843-.756,1.712-1.213,2.523a8.514,8.514,0,0,1-2.854,3.064,7.226,7.226,0,0,1-5.238.959,10.1,10.1,0,0,1-3.275-1.288,2.867,2.867,0,0,1-1.03-1.125A18.263,18.263,0,0,1,3.177,50.4a9.637,9.637,0,0,1-.588-5.188A1.235,1.235,0,0,0,1.57,43.867,1.241,1.241,0,0,0,.2,44.759a11.741,11.741,0,0,0,.255,5.347,9.052,9.052,0,0,0,2.365,4.166A9.5,9.5,0,0,0,8.5,56.946a9.486,9.486,0,0,0,5.74-.937,11.371,11.371,0,0,0,5.243-5.985,13.651,13.651,0,0,1,2.461-3.966,48.2,48.2,0,0,1,6.759-5.879,28.507,28.507,0,0,0,5.88-5.953,30.079,30.079,0,0,0,3.446-6.148,13.484,13.484,0,0,0,1.107-4.948,26.171,26.171,0,0,0-.234-4.9c-.224-1.34-.509-2.674-.857-3.987" transform="translate(0 -0.001)" fill="#032e00"/>
        <path id="Path_396" data-name="Path 396" d="M69.092,128.888c-.088.1-.177.2-.269.294l-.422.4s-.129.107-.341.3h0v0a18.018,18.018,0,0,0-2.07,2.257l-.005-.007-.022.043q-.135.178-.268.364l-.036-.022-.006.081c-.126.179-.249.363-.368.551a11.225,11.225,0,0,0-.846,1.7,4.12,4.12,0,0,0,.6,3.907,7.656,7.656,0,0,0,3.7,2.586,1.228,1.228,0,0,0,1.592-.773,1.246,1.246,0,0,0-.83-1.553,5.806,5.806,0,0,1-2.3-1.484,1.738,1.738,0,0,1-.4-2.011,8.445,8.445,0,0,1,1.1-1.77c.823-.966,1.732-1.859,2.605-2.783A11.228,11.228,0,0,0,72.7,128a3.982,3.982,0,0,0,.45-1.45,5.626,5.626,0,0,0-.341-3,8.679,8.679,0,0,1,3.61.711,4.745,4.745,0,0,1,2.4,2.164,5.533,5.533,0,0,1,.56,3.008,6.5,6.5,0,0,1-1.626,4.095,1.307,1.307,0,0,0-.077,1.619,1.122,1.122,0,0,0,1.475.312,3.691,3.691,0,0,0,1.045-1.045,9.225,9.225,0,0,0,1.314-7.789,6.969,6.969,0,0,0-4.436-4.75,13.028,13.028,0,0,0-5.152-.819.981.981,0,0,1-.942-.486,5.234,5.234,0,0,1-.658-5.24,7.543,7.543,0,0,1,6.369-4.592,8.473,8.473,0,0,1,4.528.793,12.746,12.746,0,0,1,4.442,3.159,10.75,10.75,0,0,1,2.867,6.085,11.23,11.23,0,0,1-.714,5.254,16.315,16.315,0,0,1-1.955,3.629,1.25,1.25,0,0,0,.231,1.7,1.212,1.212,0,0,0,1.766-.289,16.879,16.879,0,0,0,3.06-7.23,12.481,12.481,0,0,0-1.478-8.1,14.45,14.45,0,0,0-4.635-5.02,13.194,13.194,0,0,0-6.748-2.459,10.238,10.238,0,0,0-4.089.588,10.508,10.508,0,0,0-4.276,2.892,8.368,8.368,0,0,0-2.166,4.594,7.809,7.809,0,0,0,1.359,5.5c.5.731,1.035,1.441,1.457,2.214a3.048,3.048,0,0,1,.148,2.874,8.1,8.1,0,0,1-1.39,1.959" transform="translate(-59.652 -100.593)" fill="#032e00"/>
      </g>
    </g>
  </g>
</svg>
