<svg id="ما_هو_شعورك_" data-name="ما هو شعورك؟" xmlns="http://www.w3.org/2000/svg" xmlns:xlink="http://www.w3.org/1999/xlink" width="373.028" height="83.511" viewBox="0 0 373.028 83.511">
  <defs>
    <clipPath id="clip-path">
      <path id="Path_381" data-name="Path 381" d="M276.494,0,228.269,83.51h11.068L287.562,0Z" transform="translate(-228.269 0)" fill="none"/>
    </clipPath>
    <clipPath id="clip-path-2">
      <path id="Path_383" data-name="Path 383" d="M41.776,0a41.755,41.755,0,1,0,0,83.51H86.548v-28h25.964a13.752,13.752,0,1,0,0-27.5H86.548V0Z" fill="none"/>
    </clipPath>
    <clipPath id="clip-path-3">
      <rect id="Rectangle_366" data-name="Rectangle 366" width="373.028" height="83.51" fill="none"/>
    </clipPath>
  </defs>
  <g id="Group_804" data-name="Group 804" transform="translate(313.734)">
    <g id="Group_803" data-name="Group 803" clip-path="url(#clip-path)">
      <rect id="Rectangle_364" data-name="Rectangle 364" width="59.293" height="83.51" fill="#fff"/>
    </g>
  </g>
  <path id="Path_382" data-name="Path 382" d="M67.179,0V83.51H283.422L331.648,0Z" transform="translate(25.152 0)" fill="#bc611e"/>
  <g id="Group_806" data-name="Group 806" transform="translate(0 0)">
    <g id="Group_805" data-name="Group 805" clip-path="url(#clip-path-2)">
      <path id="Path_388" data-name="Path 388" d="M0,0H126.285V83.51H0Z" transform="translate(0 0)" fill="#fff"/>
    </g>
  </g>
  <g id="Group_808" data-name="Group 808">
    <g id="Group_807" data-name="Group 807" clip-path="url(#clip-path-3)">
      <path id="Path_384" data-name="Path 384" d="M91.728,32.219a6.752,6.752,0,1,1-6.752-6.752,6.753,6.753,0,0,1,6.752,6.752" transform="translate(29.287 9.535)" fill="#bc611e" fill-rule="evenodd"/>
    </g>
    <g id="Group_819" data-name="Group 819" transform="translate(14.348 20.701)">
      <path id="Path_401" data-name="Path 401" d="M77.919,22.073a5.928,5.928,0,0,0-1.361-1.059,15.4,15.4,0,0,0-2.526-1.22,1.763,1.763,0,0,0-.493-.384c-.172-.119-.348-.237-.518-.351l-.279-.187c-.362-.245-.733-.487-1.093-.722-.806-.526-1.64-1.07-2.4-1.668-.938-.734-1.85-1.538-2.732-2.317-.395-.348-.8-.709-1.21-1.059-.192-.166-.386-.338-.574-.5-.465-.412-.946-.837-1.454-1.219A9.029,9.029,0,0,0,60.8,10.207c-.162-.058-.324-.115-.485-.174-.4-.148-.814-.293-1.211-.434-.587-.207-1.194-.422-1.782-.649-.454-.175-2.524-1.065-3.76-1.6-.515-.222-.856-.368-.915-.392-1.561-.635-3.162-1.281-4.759-1.921A6.731,6.731,0,0,0,45.372,4.5a5.22,5.22,0,0,0-.61.036c-.273.032-.549.071-.815.109-.358.05-.728.1-1.09.138-.562.056-1.135.1-1.69.15-.448.037-.91.076-1.366.118-.083.008-1.171.07-1.467.086-.422.023-.849.051-1.263.078-.74.049-1.5.1-2.256.119-1.479.04-2.94.061-4.345.061-2.086,0-4.137-.045-6.1-.134-.528-.024-1.067-.081-1.589-.136-.2-.021-.392-.041-.588-.06-.307-.03-1.345-.266-1.487-.309l-.551-.165C19.516,4.4,18.852,4.2,18.2,4c-.995-.315-2-.642-2.981-.959l-.774-.251q-.479-.155-.956-.313c-.6-.2-1.214-.4-1.826-.589C10.311,1.467,9.2,1.14,8.182.855,7.325.616,6.449.4,5.6.188l-.415-.1A2.985,2.985,0,0,0,4.737.019C4.676.013,4.615.008,4.555,0L4.428.525c.493.178,1,.333,1.483.482.234.072.476.146.713.222,1.557.5,3.4,1.091,5.242,1.7.567.188,1.142.392,1.7.59.446.158.907.322,1.364.478,1.532.521,2.934.99,4.286,1.433.123.04.246.082.369.124a8.658,8.658,0,0,0,1.492.411c1.044.157,2.419.346,3.8.418,1.806.094,3.738.146,5.907.158l.728,0c1.634,0,3.331-.031,5.044-.093,1.3-.047,2.622-.158,3.9-.265l.369-.031.428-.035c.992-.082,2.019-.166,3.02-.331a5.867,5.867,0,0,1,3.251.381q.822.333,1.642.669c.846.345,1.721.7,2.584,1.049l.671.276c1.408.581,4.338,1.79,5.36,2.19.435.17.883.317,1.317.458.393.128.8.261,1.187.409a16.988,16.988,0,0,1,2.14.937,5.515,5.515,0,0,1,.956.733c.106.094.216.191.327.284.571.481,1.15.973,1.709,1.449.922.784,1.874,1.594,2.822,2.38a29.97,29.97,0,0,0,3.8,2.549l.432.259c.194.117.387.248.59.387a.648.648,0,0,0-.364.661,2.726,2.726,0,0,0,.115.5h0a2.8,2.8,0,0,0,1.205,1.7l0,.012.241.11c.133.06.267.126.4.189a7.536,7.536,0,0,0,.953.411,5.77,5.77,0,0,0,.717.176,4.183,4.183,0,0,1-1.781.406,4.5,4.5,0,0,1-1.016-.121,5.667,5.667,0,0,0-.714-.133c-.212-.051-2.211-.534-3.1-.858-.024-.009-.158-.06-.2-.078a3.156,3.156,0,0,1-.289-.153c-.181-.106-.363-.222-.538-.335a5.46,5.46,0,0,0-1.835-.87,3.857,3.857,0,0,1-.9-.36c-.1-.051-.207-.1-.312-.152a20.486,20.486,0,0,1-3.864-2.234,5.067,5.067,0,0,0-3.053-1.252.509.509,0,0,1-.236-.11c-.179-.128-.359-.267-.532-.4-.2-.158-.417-.321-.635-.474l-.687-.482c-1.208-.847-2.457-1.722-3.7-2.562-.7-.471-1.42-.932-2.118-1.377-.457-.292-.93-.594-1.392-.9-.189-.124-.373-.269-.567-.423-.1-.077-.2-.155-.3-.235l-.639-.488.212.776c.006.023.01.04.013.053a.347.347,0,0,0,.087.181c.05.052.1.107.15.165a2.906,2.906,0,0,0,.427.419c1.108.828,2.193,1.618,3.109,2.282.686.5,1.384,1,2.059,1.486.858.617,1.745,1.256,2.613,1.888.366.266.734.545,1.09.814.562.425,1.143.864,1.735,1.271a4.951,4.951,0,0,1,1.672,1.8q.21.4.417.806c.294.57.6,1.16.915,1.732a50.914,50.914,0,0,0,3.205,4.924c.51.714.968,1.491,1.41,2.243q.162.275.324.549a3.906,3.906,0,0,1,.469,1.273,1.577,1.577,0,0,0-.9.6,3.289,3.289,0,0,0-.465,3.407,5.137,5.137,0,0,0,.557,1.167,6.386,6.386,0,0,1-2.254-1.841c-.394-.526-.765-1.088-1.124-1.631-.318-.481-.646-.977-.992-1.453a9.5,9.5,0,0,1-.682-1.147l-.005-.01c-.282-.53-.61-1.04-.928-1.534l-.221-.345c-1.355-2.13-2.66-4.364-3.88-6.639a4.867,4.867,0,0,0-1.611-1.937c-.962-.608-1.953-1.2-2.911-1.777l-.085-.051c-1.485-.891-3-1.791-4.46-2.661l-.659-.392c-.18-.107-.364-.21-.542-.31l-.248-.14-.227-.129-.317.508.2.15c.113.085.226.172.338.258.248.191.5.388.771.568,1.143.766,2.28,1.515,3.38,2.227.539.349,1.089.7,1.622,1.034s1.073.679,1.605,1.024c.138.089.28.172.418.253a2.931,2.931,0,0,1,1.073.869c.307.481.6.985.886,1.472.168.289.343.587.518.879l.536.889c1.005,1.669,2.044,3.4,3.08,5.085.255.416.542.817.82,1.2.108.15.215.3.32.449.033.05.247.427.389.676.155.273.244.429.27.471a4.846,4.846,0,0,1,.622,1.61,1.613,1.613,0,0,0-.43.1,1.355,1.355,0,0,0-.778,1,4.318,4.318,0,0,0,.447,2.991,2.807,2.807,0,0,0,.771.941,1.508,1.508,0,0,1-.423.063,1.7,1.7,0,0,1-1.186-.561,23.428,23.428,0,0,1-2.429-2.982c-.337-.463-.684-.941-1.043-1.4-.208-.267-.414-.545-.614-.814-.274-.369-.558-.751-.854-1.116-.825-1.017-1.67-2.045-2.487-3.039q-.783-.952-1.563-1.9c-.061-.075-.119-.152-.181-.235a2.186,2.186,0,0,0-.94-.833c-.417-.161-.843-.319-1.254-.473l-.225-.084a5.735,5.735,0,0,1-.561-.279.951.951,0,0,0-.126-.061l-.007,0a1.743,1.743,0,0,1-.645-.364,14.907,14.907,0,0,0-4.5-3.362,23.4,23.4,0,0,1-3.671-2.358.706.706,0,0,0-.178-.1l-.041-.018-.187-.093L39.47,21l-.194.218.129.177c.02.027.038.056.057.085a1.3,1.3,0,0,0,.19.243A20.925,20.925,0,0,0,43.1,24.219c.248.154.5.307.747.454.585.351,1.189.714,1.737,1.122a12.253,12.253,0,0,1,2.357,2.423c.054.073.38.526.465.643a1.7,1.7,0,0,1,.1.166,6.843,6.843,0,0,0,1.5,1.85c.213.2.432.4.644.591.5.453,1.016.921,1.471,1.42.552.6,1.076,1.26,1.583,1.894.225.282.459.574.692.858l.031.038A2.111,2.111,0,0,0,52.847,37.2a3.308,3.308,0,0,0,1.2,3.074c.039.033.085.076.134.122a1.218,1.218,0,0,0,.419.307,2.789,2.789,0,0,0,.929.175l.092,0a2.446,2.446,0,0,1-.251.013,2.038,2.038,0,0,1-.677-.109,7.866,7.866,0,0,1-.909-.417c-.122-.062-.248-.126-.375-.188l-.006,0c-.088-.057-.519-.4-.894-.707l-.055-.045-.168-.138c-.3-.249-.619-.507-.919-.769-2.056-1.8-4.143-3.625-6.162-5.394L43.535,31.66a14.4,14.4,0,0,0-4.112-2.56c-1.115-.448-2.024-.8-2.859-1.093a18.65,18.65,0,0,0-2.2-.679c-1.485-.331-2.625-.544-3.7-.691-1.287-.177-2.6-.3-3.871-.413l-.675-.062c-.469-.044-.945-.073-1.406-.1s-.908-.056-1.358-.1a43.265,43.265,0,0,1-4.407-.593,14.664,14.664,0,0,1-4.267-1.541,23.781,23.781,0,0,1-3.63-2.61L10.786,21A9.966,9.966,0,0,0,9.2,19.842a17.468,17.468,0,0,0-1.779-.8c-.305-.124-.62-.253-.924-.388-.1-.043-2.309-.724-2.325-.728l-.493-.127c-.706-.182-1.436-.37-2.156-.549-.262-.065-.528-.12-.785-.174L.39,17l-.268-.058-.056.268L0,17.523l.22.082.089.034c.071.028.144.056.222.08l.588.178c.257.077.522.157.782.238l.854.268c.431.136.875.276,1.315.411l0,0c.706.241,1.782.61,1.853.637.156.063.313.123.47.183.3.115.606.233.9.364A8.852,8.852,0,0,1,9.4,21.2q.4.337.8.676c.751.635,1.527,1.292,2.321,1.9a14.655,14.655,0,0,0,4.184,2.226,22.494,22.494,0,0,0,4.827.99c1.11.123,2.241.207,3.334.287.649.048,1.319.1,1.977.155,1.224.106,2.224.211,3.148.33.792.1,1.567.234,2.3.393.98.212,2.021.444,3.025.744.763.228,1.528.511,2.269.785l.673.248a12.494,12.494,0,0,1,3.3,1.7c.811.607,1.6,1.276,2.367,1.924l.086.072c1.035.875,2.083,1.77,3.1,2.635.9.768,1.832,1.563,2.75,2.342.521.441,2.577,2.066,2.664,2.135l.037.028.007,0a3.526,3.526,0,0,0,.561.3,3.309,3.309,0,0,1,.415.213,3.061,3.061,0,0,0,1.682.509,3.37,3.37,0,0,0,1.322-.282A2.329,2.329,0,0,0,57.859,40.3a2.013,2.013,0,0,0-.08-1.572,5.16,5.16,0,0,0-.4-.7c-.039-.062-.079-.124-.118-.186l-.114-.185c-.187-.3-.442-.721-.6-.929l-.058-.084c-.044-.064-.09-.13-.141-.194q-1.2-1.5-2.408-3.007-.159-.2-.317-.4a15.447,15.447,0,0,0-1.8-2.022A22.705,22.705,0,0,1,50,29.269a9.118,9.118,0,0,1-.687-.89l.159.078.244.134a3.991,3.991,0,0,0,.364.17,3.026,3.026,0,0,1,.356.17,2.043,2.043,0,0,1,.508.4,4.042,4.042,0,0,1,.3.423c.088.134.179.272.284.4l.612.767c1.078,1.351,2.192,2.749,3.312,4.105.126.152.251.311.373.464a12.779,12.779,0,0,0,.931,1.09,4.579,4.579,0,0,1,.629.891c.125.209.254.425.4.628a18.622,18.622,0,0,0,2.617,2.969,2.555,2.555,0,0,0,1.71.736,2.478,2.478,0,0,0,1.385-.46.594.594,0,0,1,.292-.094,1.71,1.71,0,0,0,1.492-1,2.036,2.036,0,0,0-.116-1.888q-.1-.184-.21-.366a8.392,8.392,0,0,0,1.074.81,3.981,3.981,0,0,0,2.1.736,2.75,2.75,0,0,0,.845-.136,1.93,1.93,0,0,0,1.485-2.31,8.9,8.9,0,0,0-1.267-3.045l-.134-.234a4.162,4.162,0,0,1-.5-1.257,4.909,4.909,0,0,0-.283-.925,20.417,20.417,0,0,0-1.765-3.122l-.209-.323c-.25-.389-.51-.78-.76-1.158-.452-.681-.919-1.384-1.343-2.094-.722-1.207-1.326-2.316-1.848-3.387a7.178,7.178,0,0,0-1.406-2.027l.162.123a19,19,0,0,0,1.7,1.195c.926.553,1.908,1.039,2.857,1.508l.509.252a4.234,4.234,0,0,0,.624.234,3.678,3.678,0,0,1,.556.208,6.7,6.7,0,0,1,.677.414c.175.117.356.238.546.346.163.094.584.3.974.48l.1.047.337.163.006-.046.232.081.012.026.135.024.312.071c1,.23,1.95.445,2.068.467a9.832,9.832,0,0,0,1.809.218h0a4.368,4.368,0,0,0,.994-.108,4.54,4.54,0,0,0,2.326-1.224,1.27,1.27,0,0,0,.042-1.936m-4.18-1.179.029-.018a.679.679,0,0,0,.2-.155h0c.163.062.329.12.489.177s.316.112.472.171l.093.035a3.606,3.606,0,0,1,.527.229,5.036,5.036,0,0,1,.627.443l.1.082c.347.278.706.565,1.031.87a.319.319,0,0,1,.065.394c-.09.209-.185.227-.276.227h-.033l-.05,0a4.634,4.634,0,0,1-.537-.057,4.811,4.811,0,0,1-1.493-.641,3.759,3.759,0,0,1-1.421-1.582.333.333,0,0,1,0-.033c.005-.01.034-.047.18-.138m-4.73,17.422a.725.725,0,0,1-.341.109.582.582,0,0,1-.4-.2,3.288,3.288,0,0,1-.86-1.5,5.92,5.92,0,0,1-.163-.746c-.019-.108-.039-.219-.061-.33a2.137,2.137,0,0,1,.654-1.573c.119-.114.164-.115.165-.115s.046,0,.16.126a4.856,4.856,0,0,1,.994,1.77,8.3,8.3,0,0,1,.356,1.388.858.858,0,0,1-.5,1.07m-5.084,1.916a.619.619,0,0,1-.147.018.745.745,0,0,1-.5-.231,2.7,2.7,0,0,1-.763-1.351,6.642,6.642,0,0,1-.144-.736c-.016-.1-.032-.2-.049-.3.012-.065.022-.128.031-.19a2.355,2.355,0,0,1,.091-.419c.04-.113.157-.376.363-.376a.507.507,0,0,1,.327.168A4.13,4.13,0,0,1,64.5,39.3a.791.791,0,0,1-.572.929m-7.569-.505a1.8,1.8,0,0,1-.755.173,1.774,1.774,0,0,1-.629-.12c-.317-.234-.98-.861-.978-1.11a1.292,1.292,0,0,0-.109-.467,1.511,1.511,0,0,1-.068-.21,1.182,1.182,0,0,1,.087-.842,1.1,1.1,0,0,1,.92-.611.943.943,0,0,1,.755.425c.08.107.215.249.251.287.054.065.119.14.19.222a5.057,5.057,0,0,1,.783,1.067.886.886,0,0,1-.447,1.185" fill="#032e00"/>
      <path id="Path_402" data-name="Path 402" d="M343.043,630.247a.722.722,0,0,0-.9-.086c-.8.457-1.6.92-2.4,1.38-.29.166-.414.135-.578-.145-.3-.518-.591-1.044-.9-1.557a1.7,1.7,0,0,0-2.3-.581c-.511.286-1.017.581-1.526.873-.356.2-.455.181-.651-.159-.291-.5-.578-1.011-.872-1.514a1.692,1.692,0,0,0-2.2-.634c-.582.3-1.144.646-1.716.967-.247.139-.388.1-.521-.131q-.429-.746-.857-1.493a1.753,1.753,0,0,0-2.477-.641q-.717.41-1.432.823c-.365.21-.491.167-.687-.19-.276-.5-.552-1.007-.856-1.493a1.7,1.7,0,0,0-2.331-.551c-.516.3-1.031.594-1.547.889-.279.16-.416.12-.575-.16-.276-.483-.566-.959-.827-1.45a1.748,1.748,0,0,0-2.473-.632c-.457.29-.936.545-1.406.814-.373.214-.479.184-.689-.184q-.647-1.132-1.3-2.263a.727.727,0,0,0-1.011-.313.716.716,0,0,0-.251,1.022c.239.424.485.844.727,1.267.23.4.453.8.69,1.2a1.713,1.713,0,0,0,2.381.593c.508-.291,1.016-.584,1.524-.876.285-.163.419-.13.579.148.283.489.562.98.845,1.47a1.7,1.7,0,0,0,2.425.629c.509-.29,1.015-.586,1.524-.875.258-.146.394-.108.54.144.288.5.57,1,.859,1.492a1.751,1.751,0,0,0,2.44.632c.494-.28.985-.567,1.479-.848.339-.193.437-.167.632.17.275.474.545.95.82,1.424a1.74,1.74,0,0,0,2.453.64c.509-.289,1.015-.585,1.524-.875.258-.147.389-.113.538.143.3.519.594,1.042.9,1.559a1.7,1.7,0,0,0,2.318.592c.494-.281.985-.566,1.478-.849.4-.231.488-.21.708.172.278.482.554.965.833,1.446a1.707,1.707,0,0,0,2.31.632c.877-.487,1.742-1,2.608-1.5a.78.78,0,0,0,.25-.23.685.685,0,0,0-.1-.885" transform="translate(-292.807 -587.913)" fill="#990404"/>
      <path id="Path_403" data-name="Path 403" d="M431.844,782.1q-.325-.565-.65-1.131c-.181-.314-.284-.339-.613-.152-.54.307-1.072.63-1.622.919a1.7,1.7,0,0,1-2.246-.639c-.3-.511-.589-1.025-.885-1.537-.163-.283-.285-.313-.578-.146-.516.3-1.031.594-1.547.889a1.709,1.709,0,0,1-2.312-.545c-.321-.517-.613-1.051-.919-1.577-.168-.288-.277-.317-.574-.147-.786.45-1.57.9-2.356,1.352a.72.72,0,0,1-1.129-.375.647.647,0,0,1,.224-.729,2.6,2.6,0,0,1,.374-.252c.826-.467,1.641-.958,2.487-1.386a1.671,1.671,0,0,1,2.137.648c.3.5.58,1.01.864,1.518.181.324.323.367.658.175.493-.282.985-.567,1.478-.849a1.693,1.693,0,0,1,2.4.628c.288.5.571,1,.859,1.492.151.261.289.3.561.14q.728-.416,1.455-.836a1.745,1.745,0,0,1,2.521.617c.462.777.908,1.564,1.353,2.351a.738.738,0,1,1-1.279.724c-.223-.383-.442-.768-.663-1.153" transform="translate(-393.739 -734.265)" fill="#990404"/>
    </g>
  </g>
  <text id="ما_هو_شعورك_2" data-name="ما هو شعورك؟" transform="translate(281.028 50.096)" fill="#fff" font-size="20" font-family="SegoeUI, Segoe UI"><tspan x="-122.852" y="0">ما هو شعورك؟</tspan></text>
</svg>
