<svg xmlns="http://www.w3.org/2000/svg" xmlns:xlink="http://www.w3.org/1999/xlink" width="274.1" height="176.18" viewBox="0 0 274.1 176.18">
  <defs>
    <clipPath id="clip-path">
      <rect id="Rectangle_398" data-name="Rectangle 398" width="126.825" height="97.645" fill="none"/>
    </clipPath>
  </defs>
  <g id="Group_862" data-name="Group 862" transform="translate(0 0)">
    <path id="Path_432" data-name="Path 432" d="M0,0V174.662H155.953L256.817,0Z" fill="#fff"/>
    <path id="Path_433" data-name="Path 433" d="M526.73,3.991,427.045,178.654H437.9L538.76,3.991Z" transform="translate(-264.66 -2.474)" fill="#c09b52"/>
    <g id="Group_861" data-name="Group 861" transform="translate(25.734 26.351)">
      <g id="Group_867" data-name="Group 867" transform="translate(-1.656 12.723)">
        <rect id="Rectangle_394" data-name="Rectangle 394" width="114.224" height="67.798" transform="translate(6.505 18.62)" fill="#126800"/>
        <g id="Group_866" data-name="Group 866">
          <g id="Group_865" data-name="Group 865" clip-path="url(#clip-path)">
            <path id="Path_636" data-name="Path 636" d="M151.722,6.27H88.4V6a.516.516,0,0,1,.516-.516h62.287a.516.516,0,0,1,.516.516Z" transform="translate(-56.542 -3.507)" fill="#a3a3a3"/>
            <path id="Path_637" data-name="Path 637" d="M126.61,20.45H0v-.29a.828.828,0,0,1,.828-.828H125.781a.828.828,0,0,1,.828.828Z" transform="translate(0 -12.364)" fill="#a3a3a3"/>
            <rect id="Rectangle_395" data-name="Rectangle 395" width="63.319" height="4.203" transform="translate(31.861 2.764)" fill="#c4c4c4"/>
            <rect id="Rectangle_396" data-name="Rectangle 396" width="126.61" height="6.868" transform="translate(0 8.086)" fill="#c4c4c4"/>
            <path id="Path_638" data-name="Path 638" d="M125.393,45.158H1.433A1.433,1.433,0,0,1,0,43.725V41.491H126.825v2.234a1.433,1.433,0,0,1-1.433,1.433" transform="translate(0 -26.537)" fill="#a3a3a3"/>
            <path id="Path_639" data-name="Path 639" d="M18.048,119.463H132.272v-67.8H18.048ZM80.231,53.008H94.414a1.654,1.654,0,0,1,0,3.309H80.231a1.654,1.654,0,0,1,0-3.309m-25.525,0H68.889a1.654,1.654,0,1,1,0,3.309H54.706a1.654,1.654,0,0,1,0-3.309M27.425,54.662a1.655,1.655,0,0,1,1.654-1.655H43.262a1.654,1.654,0,1,1,0,3.309H29.079a1.654,1.654,0,0,1-1.654-1.654m86.638,50.823a4.045,4.045,0,0,1-4.045,4.045H39.751a4.045,4.045,0,0,1-4.045-4.045V62.261a4.045,4.045,0,0,1,4.045-4.045h70.266a4.045,4.045,0,0,1,4.045,4.045ZM120.4,56.317H106.214a1.654,1.654,0,0,1,0-3.309H120.4a1.654,1.654,0,0,1,0,3.309" transform="translate(-11.543 -33.045)" fill="#c4c4c4"/>
            <rect id="Rectangle_397" data-name="Rectangle 397" width="117.559" height="11.226" transform="translate(4.339 86.419)" fill="#c4c4c4"/>
            <path id="Path_640" data-name="Path 640" d="M44.274,0h8.154l.678,6.967H43.467Z" transform="translate(-27.801 0)" fill="#29abe2"/>
            <path id="Path_641" data-name="Path 641" d="M286.938,0h8.154l.678,6.967h-9.639Z" transform="translate(-183.008 0)" fill="#c1272d"/>
            <path id="Path_642" data-name="Path 642" d="M151.317,95.719l.368-.544-4.792-.934-.182.373c-.261-.015-.523-.025-.788-.025a13.76,13.76,0,0,0-4.652,26.639l-.417,2.794,2.515-2.211a13.465,13.465,0,0,0,2.554.246,13.761,13.761,0,0,0,5.393-26.338m-17.588,12.6a12.268,12.268,0,0,1,12.195-12.34l.12,0-7.578,15.572,8.427-3.427-3.9,9.721-1.119-.644-.389,2.606a12.339,12.339,0,0,1-7.753-11.492m12.195,12.34c-.4,0-.793-.021-1.182-.059l1.163-1.023-1.017-.678,7.288-14.746-8,2.135,6.347-9.4a12.363,12.363,0,0,1-4.6,23.769" transform="translate(-84.651 -60.276)" fill="#fbae17"/>
          </g>
        </g>
      </g>
    </g>
  </g>
</svg>
