<svg xmlns="http://www.w3.org/2000/svg" xmlns:xlink="http://www.w3.org/1999/xlink" width="274.1" height="176.18" viewBox="0 0 274.1 176.18">
  <defs>
    <clipPath id="clip-path">
      <rect id="Rectangle_392" data-name="Rectangle 392" width="112.098" height="115.489" fill="none"/>
    </clipPath>
  </defs>
  <g id="Group_859" data-name="Group 859" transform="translate(0 0)">
    <path id="Path_432" data-name="Path 432" d="M0,0V174.662H155.953L256.817,0Z" fill="#fff"/>
    <path id="Path_433" data-name="Path 433" d="M526.73,3.991,427.045,178.654H437.9L538.76,3.991Z" transform="translate(-264.66 -2.474)" fill="#032e00"/>
    <g id="Group_861" data-name="Group 861" transform="translate(25.734 26.351)">
      <g id="Group_860" data-name="Group 860" clip-path="url(#clip-path)">
        <path id="Path_630" data-name="Path 630" d="M131.1,191.219h58.066a11.081,11.081,0,0,0,11.081-11.081V123.714a11.081,11.081,0,0,0-11.081-11.081H131.1Z" transform="translate(-88.148 -75.732)" fill="#c7c7f7"/>
        <path id="Path_631" data-name="Path 631" d="M42.956,191.219H11.088A11.081,11.081,0,0,1,.007,180.138V123.714a11.081,11.081,0,0,1,11.081-11.081H42.956Z" transform="translate(-0.005 -75.732)" fill="#e2e4fb"/>
        <path id="Path_632" data-name="Path 632" d="M132.944,232.5h57.749a10.791,10.791,0,0,0,10.791-10.791V179.469c-2.241-3.5-11.556-5.431-15.712-5.439-7.735-.016-12.453,5.8-19.46,5.56s-12.812-5.542-20.876-5.56c-4.595-.01-8.332,2.589-12.492,4.383Z" transform="translate(-89.389 -117.014)" fill="#1cd9df"/>
        <path id="Path_633" data-name="Path 633" d="M43.555,232.5H10.723A10.723,10.723,0,0,1,0,221.779V180.557c2.106-2.78,10.754-6.52,14.8-6.527,9.065-.017,14.142,5.8,21.152,6.043a17.323,17.323,0,0,0,7.607-1.66Z" transform="translate(0 -117.014)" fill="#1de7f1"/>
        <rect id="Rectangle_390" data-name="Rectangle 390" width="16.401" height="16.489" transform="translate(42.949 20.413)" fill="#c4c9f7"/>
        <rect id="Rectangle_391" data-name="Rectangle 391" width="16.401" height="16.489" transform="translate(26.548 20.413)" fill="#e2e4fb"/>
        <path id="Path_634" data-name="Path 634" d="M129.505,20.413h19.287a3.872,3.872,0,0,0,3.872-3.872V3.871A3.871,3.871,0,0,0,148.792,0H129.857Z" transform="translate(-87.076)" fill="#013a93"/>
        <path id="Path_635" data-name="Path 635" d="M82.842,0H63.2a3.872,3.872,0,0,0-3.872,3.872v12.67A3.871,3.871,0,0,0,63.2,20.413H82.49Z" transform="translate(-39.894)" fill="#0050b1"/>
      </g>
    </g>
  </g>
</svg>
