<svg xmlns="http://www.w3.org/2000/svg" xmlns:xlink="http://www.w3.org/1999/xlink" width="274.1" height="176.18" viewBox="0 0 274.1 176.18">
  <defs>
    <clipPath id="clip-path">
      <rect id="Rectangle_389" data-name="Rectangle 389" width="112.382" height="101.932" fill="none"/>
    </clipPath>
  </defs>
  <g id="Group_856" data-name="Group 856" transform="translate(0 0)">
    <path id="Path_432" data-name="Path 432" d="M0,0V174.662H155.953L256.817,0Z" fill="#fff"/>
    <path id="Path_433" data-name="Path 433" d="M526.73,3.991,427.045,178.654H437.9L538.76,3.991Z" transform="translate(-264.66 -2.474)" fill="#c09b52"/>
    <g id="Group_858" data-name="Group 858" transform="translate(31.078 32.94)">
      <g id="Group_857" data-name="Group 857" clip-path="url(#clip-path)">
        <path id="Path_495" data-name="Path 495" d="M140.649,50.966A50.966,50.966,0,1,1,89.683,0a50.966,50.966,0,0,1,50.966,50.966" transform="translate(-28.267)" fill="#b5b4b4"/>
        <path id="Path_496" data-name="Path 496" d="M174.752,105.07a30.965,30.965,0,1,1-30.965-30.965,30.965,30.965,0,0,1,30.965,30.965" transform="translate(-82.371 -54.104)" fill="#4f4f4f"/>
        <path id="Path_497" data-name="Path 497" d="M174.752,105.07a30.965,30.965,0,1,1-30.965-30.965,30.965,30.965,0,0,1,30.965,30.965" transform="translate(-82.371 -54.104)" fill="#4f4f4f"/>
        <path id="Path_498" data-name="Path 498" d="M209.314,159.9a10.694,10.694,0,1,1-10.694-10.695A10.695,10.695,0,0,1,209.314,159.9" transform="translate(-137.204 -108.937)" fill="#e0e0e0"/>
        <path id="Path_499" data-name="Path 499" d="M211.447,163.288A9.443,9.443,0,1,1,202,153.844a9.443,9.443,0,0,1,9.443,9.444" transform="translate(-140.588 -112.321)" fill="#c1c1c1"/>
        <rect id="Rectangle_380" data-name="Rectangle 380" width="20.319" height="1.987" transform="translate(50.773 18.945) rotate(-60.001)" fill="#9b9a9a"/>
        <path id="Path_500" data-name="Path 500" d="M288.8,22.351a1.14,1.14,0,1,1-1-1.267,1.139,1.139,0,0,1,1,1.267" transform="translate(-209.191 -15.387)" fill="#4f4f4f"/>
        <path id="Path_501" data-name="Path 501" d="M265.221,26.079a1.14,1.14,0,1,1-1-1.267,1.14,1.14,0,0,1,1,1.267" transform="translate(-191.979 -18.109)" fill="#4f4f4f"/>
        <path id="Path_502" data-name="Path 502" d="M241.645,33.464a1.14,1.14,0,1,1-1-1.267,1.14,1.14,0,0,1,1,1.267" transform="translate(-174.767 -23.501)" fill="#4f4f4f"/>
        <path id="Path_503" data-name="Path 503" d="M225.6,46.544a1.14,1.14,0,1,1-1-1.267,1.14,1.14,0,0,1,1,1.267" transform="translate(-163.05 -33.051)" fill="#4f4f4f"/>
        <path id="Path_504" data-name="Path 504" d="M210.965,61.66a1.14,1.14,0,1,1-1-1.267,1.14,1.14,0,0,1,1,1.267" transform="translate(-152.367 -44.087)" fill="#4f4f4f"/>
        <path id="Path_505" data-name="Path 505" d="M242.507,61.574a1.14,1.14,0,1,1-1.089-1.188,1.14,1.14,0,0,1,1.089,1.188" transform="translate(-175.391 -44.087)" fill="#4f4f4f"/>
        <path id="Path_506" data-name="Path 506" d="M260.592,50.637a1.14,1.14,0,1,1-1.089-1.188,1.139,1.139,0,0,1,1.089,1.188" transform="translate(-188.595 -36.102)" fill="#4f4f4f"/>
        <path id="Path_507" data-name="Path 507" d="M286.205,45.1a1.14,1.14,0,1,1-1.089-1.188,1.14,1.14,0,0,1,1.089,1.188" transform="translate(-207.295 -32.057)" fill="#4f4f4f"/>
        <path id="Path_508" data-name="Path 508" d="M310.907,43.339a1.14,1.14,0,1,1-1.089-1.188,1.139,1.139,0,0,1,1.089,1.188" transform="translate(-225.33 -30.774)" fill="#4f4f4f"/>
        <rect id="Rectangle_381" data-name="Rectangle 381" width="1.987" height="20.319" transform="translate(29.152 13.267) rotate(-9.997)" fill="#9b9a9a"/>
        <path id="Path_509" data-name="Path 509" d="M168.714,19.227a1.14,1.14,0,1,1-1.577-.33,1.14,1.14,0,0,1,1.577.33" transform="translate(-121.65 -13.661)" fill="#4f4f4f"/>
        <path id="Path_510" data-name="Path 510" d="M153.051,37.237a1.14,1.14,0,1,1-1.578-.33,1.14,1.14,0,0,1,1.578.33" transform="translate(-110.214 -26.81)" fill="#4f4f4f"/>
        <path id="Path_511" data-name="Path 511" d="M139.739,58.049a1.14,1.14,0,1,1-1.578-.33,1.14,1.14,0,0,1,1.578.33" transform="translate(-100.495 -42.005)" fill="#4f4f4f"/>
        <path id="Path_512" data-name="Path 512" d="M135.853,78.384a1.14,1.14,0,1,1-1.578-.33,1.14,1.14,0,0,1,1.578.33" transform="translate(-97.658 -56.852)" fill="#4f4f4f"/>
        <path id="Path_513" data-name="Path 513" d="M134.361,99.368a1.14,1.14,0,1,1-1.578-.33,1.14,1.14,0,0,1,1.578.33" transform="translate(-96.569 -72.172)" fill="#4f4f4f"/>
        <path id="Path_514" data-name="Path 514" d="M158.468,79.03a1.14,1.14,0,1,1-1.6-.21,1.14,1.14,0,0,1,1.6.21" transform="translate(-114.205 -57.374)" fill="#4f4f4f"/>
        <path id="Path_515" data-name="Path 515" d="M165.291,59.025a1.14,1.14,0,1,1-1.6-.21,1.14,1.14,0,0,1,1.6.21" transform="translate(-119.187 -42.768)" fill="#4f4f4f"/>
        <path id="Path_516" data-name="Path 516" d="M181.351,38.318a1.14,1.14,0,1,1-1.6-.21,1.14,1.14,0,0,1,1.6.21" transform="translate(-130.912 -27.651)" fill="#4f4f4f"/>
        <path id="Path_517" data-name="Path 517" d="M199.144,21.094a1.14,1.14,0,1,1-1.6-.21,1.14,1.14,0,0,1,1.6.21" transform="translate(-143.903 -15.075)" fill="#4f4f4f"/>
        <rect id="Rectangle_382" data-name="Rectangle 382" width="1.987" height="20.319" transform="translate(12.467 42.825) rotate(-49.997)" fill="#9b9a9a"/>
        <path id="Path_518" data-name="Path 518" d="M74.719,94.022a1.14,1.14,0,1,1-1.42.761,1.14,1.14,0,0,1,1.42-.761" transform="translate(-53.479 -68.609)" fill="#4f4f4f"/>
        <path id="Path_519" data-name="Path 519" d="M74.3,117.887a1.14,1.14,0,1,1-1.42.761,1.14,1.14,0,0,1,1.42-.761" transform="translate(-53.171 -86.033)" fill="#4f4f4f"/>
        <path id="Path_520" data-name="Path 520" d="M77.476,142.386a1.14,1.14,0,1,1-1.42.761,1.14,1.14,0,0,1,1.42-.761" transform="translate(-55.492 -103.92)" fill="#4f4f4f"/>
        <path id="Path_521" data-name="Path 521" d="M87.57,160.462a1.14,1.14,0,1,1-1.42.761,1.14,1.14,0,0,1,1.42-.761" transform="translate(-62.862 -117.117)" fill="#4f4f4f"/>
        <path id="Path_522" data-name="Path 522" d="M99.917,177.5a1.14,1.14,0,1,1-1.42.761,1.139,1.139,0,0,1,1.42-.761" transform="translate(-71.876 -129.554)" fill="#4f4f4f"/>
        <path id="Path_523" data-name="Path 523" d="M105.31,146.419a1.14,1.14,0,1,1-1.359.866,1.14,1.14,0,0,1,1.359-.866" transform="translate(-75.875 -106.881)" fill="#4f4f4f"/>
        <path id="Path_524" data-name="Path 524" d="M97.677,126.709a1.14,1.14,0,1,1-1.359.866,1.139,1.139,0,0,1,1.359-.866" transform="translate(-70.302 -92.49)" fill="#4f4f4f"/>
        <path id="Path_525" data-name="Path 525" d="M96.671,100.524a1.14,1.14,0,1,1-1.359.866,1.14,1.14,0,0,1,1.359-.866" transform="translate(-69.567 -73.373)" fill="#4f4f4f"/>
        <path id="Path_526" data-name="Path 526" d="M99.23,75.892a1.14,1.14,0,1,1-1.359.866,1.14,1.14,0,0,1,1.359-.866" transform="translate(-71.436 -55.389)" fill="#4f4f4f"/>
        <rect id="Rectangle_383" data-name="Rectangle 383" width="20.32" height="1.987" transform="translate(18.686 74.207)" fill="#9b9a9a"/>
        <path id="Path_527" data-name="Path 527" d="M50.793,211.737a1.14,1.14,0,1,1-.6,1.5,1.14,1.14,0,0,1,.6-1.5" transform="translate(-36.579 -154.522)" fill="#4f4f4f"/>
        <path id="Path_528" data-name="Path 528" d="M65.809,230.289a1.14,1.14,0,1,1-.6,1.5,1.14,1.14,0,0,1,.6-1.5" transform="translate(-47.542 -168.066)" fill="#4f4f4f"/>
        <path id="Path_529" data-name="Path 529" d="M83.993,247.013a1.14,1.14,0,1,1-.6,1.5,1.14,1.14,0,0,1,.6-1.5" transform="translate(-60.819 -180.277)" fill="#4f4f4f"/>
        <path id="Path_530" data-name="Path 530" d="M103.343,254.372a1.14,1.14,0,1,1-.6,1.5,1.14,1.14,0,0,1,.6-1.5" transform="translate(-74.946 -185.649)" fill="#4f4f4f"/>
        <path id="Path_531" data-name="Path 531" d="M123.75,259.485a1.14,1.14,0,1,1-.6,1.5,1.14,1.14,0,0,1,.6-1.5" transform="translate(-89.845 -189.382)" fill="#4f4f4f"/>
        <path id="Path_532" data-name="Path 532" d="M107.906,232.212a1.14,1.14,0,1,1-.484,1.537,1.139,1.139,0,0,1,.484-1.537" transform="translate(-78.334 -169.443)" fill="#4f4f4f"/>
        <path id="Path_533" data-name="Path 533" d="M89.39,222.019a1.14,1.14,0,1,1-.484,1.537,1.139,1.139,0,0,1,.484-1.537" transform="translate(-64.815 -162.001)" fill="#4f4f4f"/>
        <path id="Path_534" data-name="Path 534" d="M71.788,202.608a1.14,1.14,0,1,1-.484,1.537,1.14,1.14,0,0,1,.484-1.537" transform="translate(-51.964 -147.83)" fill="#4f4f4f"/>
        <path id="Path_535" data-name="Path 535" d="M57.914,182.094a1.14,1.14,0,1,1-.484,1.537,1.139,1.139,0,0,1,.484-1.537" transform="translate(-41.835 -132.852)" fill="#4f4f4f"/>
        <rect id="Rectangle_384" data-name="Rectangle 384" width="20.319" height="1.987" transform="matrix(0.766, -0.643, 0.643, 0.766, 43.622, 96.236)" fill="#9b9a9a"/>
        <path id="Path_536" data-name="Path 536" d="M108.129,317.292a1.14,1.14,0,1,1,.5,1.531,1.14,1.14,0,0,1-.5-1.531" transform="translate(-78.856 -231.198)" fill="#4f4f4f"/>
        <path id="Path_537" data-name="Path 537" d="M131.557,321.852a1.14,1.14,0,1,1,.5,1.531,1.14,1.14,0,0,1-.5-1.531" transform="translate(-95.96 -234.527)" fill="#4f4f4f"/>
        <path id="Path_538" data-name="Path 538" d="M156.237,322.975a1.14,1.14,0,1,1,.5,1.531,1.14,1.14,0,0,1-.5-1.531" transform="translate(-113.979 -235.347)" fill="#4f4f4f"/>
        <path id="Path_539" data-name="Path 539" d="M175.79,316.173a1.14,1.14,0,1,1,.5,1.531,1.14,1.14,0,0,1-.5-1.531" transform="translate(-128.254 -230.38)" fill="#4f4f4f"/>
        <path id="Path_540" data-name="Path 540" d="M194.709,306.972a1.14,1.14,0,1,1,.5,1.531,1.14,1.14,0,0,1-.5-1.531" transform="translate(-142.067 -223.663)" fill="#4f4f4f"/>
        <path id="Path_541" data-name="Path 541" d="M165.041,296.265a1.14,1.14,0,1,1,.617,1.489,1.14,1.14,0,0,1-.617-1.489" transform="translate(-120.433 -215.789)" fill="#4f4f4f"/>
        <path id="Path_542" data-name="Path 542" d="M144.3,300.358a1.14,1.14,0,1,1,.617,1.489,1.139,1.139,0,0,1-.617-1.489" transform="translate(-105.293 -218.777)" fill="#4f4f4f"/>
        <path id="Path_543" data-name="Path 543" d="M118.343,296.8a1.14,1.14,0,1,1,.617,1.489,1.14,1.14,0,0,1-.617-1.489" transform="translate(-86.339 -216.182)" fill="#4f4f4f"/>
        <path id="Path_544" data-name="Path 544" d="M94.53,290.005a1.14,1.14,0,1,1,.617,1.489,1.14,1.14,0,0,1-.617-1.489" transform="translate(-68.953 -211.219)" fill="#4f4f4f"/>
        <rect id="Rectangle_385" data-name="Rectangle 385" width="20.319" height="1.987" transform="translate(76.882 97.082) rotate(-79.995)" fill="#9b9a9a"/>
        <path id="Path_545" data-name="Path 545" d="M219.9,361.3a1.14,1.14,0,1,1,1.369.849,1.139,1.139,0,0,1-1.369-.849" transform="translate(-160.527 -262.76)" fill="#4f4f4f"/>
        <path id="Path_546" data-name="Path 546" d="M240.779,349.73a1.14,1.14,0,1,1,1.369.849,1.14,1.14,0,0,1-1.369-.849" transform="translate(-175.771 -254.315)" fill="#4f4f4f"/>
        <path id="Path_547" data-name="Path 547" d="M260.407,334.728a1.14,1.14,0,1,1,1.37.85,1.14,1.14,0,0,1-1.37-.85" transform="translate(-190.101 -243.362)" fill="#4f4f4f"/>
        <path id="Path_548" data-name="Path 548" d="M271.013,316.947a1.14,1.14,0,1,1,1.369.849,1.14,1.14,0,0,1-1.369-.849" transform="translate(-197.844 -230.38)" fill="#4f4f4f"/>
        <path id="Path_549" data-name="Path 549" d="M279.591,297.738a1.14,1.14,0,1,1,1.369.849,1.14,1.14,0,0,1-1.369-.849" transform="translate(-204.107 -216.356)" fill="#4f4f4f"/>
        <path id="Path_550" data-name="Path 550" d="M249.983,308.606a1.14,1.14,0,1,1,1.43.744,1.14,1.14,0,0,1-1.43-.744" transform="translate(-182.473 -224.231)" fill="#4f4f4f"/>
        <path id="Path_551" data-name="Path 551" d="M236.728,325.07a1.14,1.14,0,1,1,1.429.744,1.14,1.14,0,0,1-1.429-.744" transform="translate(-172.796 -236.251)" fill="#4f4f4f"/>
        <path id="Path_552" data-name="Path 552" d="M214.556,339.035a1.14,1.14,0,1,1,1.43.744,1.14,1.14,0,0,1-1.43-.744" transform="translate(-156.608 -246.447)" fill="#4f4f4f"/>
        <path id="Path_553" data-name="Path 553" d="M191.944,349.135a1.14,1.14,0,1,1,1.43.744,1.14,1.14,0,0,1-1.43-.744" transform="translate(-140.1 -253.821)" fill="#4f4f4f"/>
        <rect id="Rectangle_386" data-name="Rectangle 386" width="1.987" height="20.319" transform="translate(92.748 58.754) rotate(-29.999)" fill="#9b9a9a"/>
        <path id="Path_554" data-name="Path 554" d="M333.808,323.161a1.14,1.14,0,1,1,1.6-.229,1.139,1.139,0,0,1-1.6.229" transform="translate(-243.379 -234.441)" fill="#4f4f4f"/>
        <path id="Path_555" data-name="Path 555" d="M342.367,300.88a1.14,1.14,0,1,1,1.6-.229,1.14,1.14,0,0,1-1.6.229" transform="translate(-249.628 -218.174)" fill="#4f4f4f"/>
        <path id="Path_556" data-name="Path 556" d="M347.76,276.771a1.14,1.14,0,1,1,1.6-.23,1.14,1.14,0,0,1-1.6.23" transform="translate(-253.566 -200.572)" fill="#4f4f4f"/>
        <path id="Path_557" data-name="Path 557" d="M344.456,256.333a1.14,1.14,0,1,1,1.6-.229,1.139,1.139,0,0,1-1.6.229" transform="translate(-251.153 -185.65)" fill="#4f4f4f"/>
        <path id="Path_558" data-name="Path 558" d="M338.68,236.1a1.14,1.14,0,1,1,1.6-.229,1.139,1.139,0,0,1-1.6.229" transform="translate(-246.936 -170.881)" fill="#4f4f4f"/>
        <path id="Path_559" data-name="Path 559" d="M322.984,263.462a1.14,1.14,0,1,1,1.573-.349,1.14,1.14,0,0,1-1.573.349" transform="translate(-235.425 -190.819)" fill="#4f4f4f"/>
        <path id="Path_560" data-name="Path 560" d="M323.413,284.593a1.14,1.14,0,1,1,1.574-.349,1.14,1.14,0,0,1-1.574.349" transform="translate(-235.739 -206.247)" fill="#4f4f4f"/>
        <path id="Path_561" data-name="Path 561" d="M315.4,309.543a1.14,1.14,0,1,1,1.573-.349,1.139,1.139,0,0,1-1.573.349" transform="translate(-229.892 -224.463)" fill="#4f4f4f"/>
        <path id="Path_562" data-name="Path 562" d="M304.575,331.815a1.14,1.14,0,1,1,1.574-.349,1.139,1.139,0,0,1-1.574.349" transform="translate(-221.985 -240.724)" fill="#4f4f4f"/>
        <rect id="Rectangle_387" data-name="Rectangle 387" width="1.987" height="20.319" transform="translate(90.423 36.793) rotate(-70.007)" fill="#9b9a9a"/>
        <path id="Path_563" data-name="Path 563" d="M396.554,220.729a1.14,1.14,0,1,1,1.074-1.2,1.14,1.14,0,0,1-1.074,1.2" transform="translate(-288.645 -159.491)" fill="#4f4f4f"/>
        <path id="Path_564" data-name="Path 564" d="M388.788,198.159a1.14,1.14,0,1,1,1.074-1.2,1.139,1.139,0,0,1-1.074,1.2" transform="translate(-282.976 -143.013)" fill="#4f4f4f"/>
        <path id="Path_565" data-name="Path 565" d="M377.421,176.225a1.14,1.14,0,1,1,1.075-1.2,1.14,1.14,0,0,1-1.075,1.2" transform="translate(-274.677 -126.999)" fill="#4f4f4f"/>
        <path id="Path_566" data-name="Path 566" d="M361.754,162.692a1.14,1.14,0,1,1,1.074-1.2,1.14,1.14,0,0,1-1.074,1.2" transform="translate(-263.237 -117.118)" fill="#4f4f4f"/>
        <path id="Path_567" data-name="Path 567" d="M344.326,150.908a1.14,1.14,0,1,1,1.074-1.2,1.139,1.139,0,0,1-1.074,1.2" transform="translate(-250.514 -108.515)" fill="#4f4f4f"/>
        <path id="Path_568" data-name="Path 568" d="M349.888,181.953a1.14,1.14,0,1,1,.981-1.279,1.139,1.139,0,0,1-.981,1.279" transform="translate(-254.512 -131.187)" fill="#4f4f4f"/>
        <path id="Path_569" data-name="Path 569" d="M363.8,197.865a1.14,1.14,0,1,1,.981-1.279,1.14,1.14,0,0,1-.981,1.279" transform="translate(-264.669 -142.804)" fill="#4f4f4f"/>
        <path id="Path_570" data-name="Path 570" d="M373.7,222.126a1.14,1.14,0,1,1,.981-1.279,1.14,1.14,0,0,1-.981,1.279" transform="translate(-271.899 -160.517)" fill="#4f4f4f"/>
        <path id="Path_571" data-name="Path 571" d="M379.722,246.148a1.14,1.14,0,1,1,.981-1.279,1.139,1.139,0,0,1-.981,1.279" transform="translate(-276.294 -178.055)" fill="#4f4f4f"/>
        <rect id="Rectangle_388" data-name="Rectangle 388" width="20.319" height="1.987" transform="translate(73.846 19.594) rotate(-19.991)" fill="#9b9a9a"/>
        <path id="Path_572" data-name="Path 572" d="M378.777,101.93a1.14,1.14,0,1,1,.051-1.611,1.14,1.14,0,0,1-.051,1.611" transform="translate(-275.143 -72.98)" fill="#4f4f4f"/>
        <path id="Path_573" data-name="Path 573" d="M358.321,89.632a1.14,1.14,0,1,1,.051-1.611,1.14,1.14,0,0,1-.051,1.611" transform="translate(-260.208 -64.001)" fill="#4f4f4f"/>
        <path id="Path_574" data-name="Path 574" d="M335.514,80.136a1.14,1.14,0,1,1,.051-1.611,1.14,1.14,0,0,1-.051,1.611" transform="translate(-243.557 -57.068)" fill="#4f4f4f"/>
        <path id="Path_575" data-name="Path 575" d="M314.813,79.84a1.14,1.14,0,1,1,.051-1.611,1.14,1.14,0,0,1-.051,1.611" transform="translate(-228.443 -56.852)" fill="#4f4f4f"/>
        <path id="Path_576" data-name="Path 576" d="M293.888,82.015a1.14,1.14,0,1,1,.051-1.611,1.14,1.14,0,0,1-.051,1.611" transform="translate(-213.166 -58.44)" fill="#4f4f4f"/>
        <path id="Path_577" data-name="Path 577" d="M318.1,102.223a1.14,1.14,0,1,1-.071-1.61,1.14,1.14,0,0,1,.071,1.61" transform="translate(-230.802 -73.239)" fill="#4f4f4f"/>
        <path id="Path_578" data-name="Path 578" d="M338.99,105.469a1.14,1.14,0,1,1-.07-1.61,1.14,1.14,0,0,1,.07,1.61" transform="translate(-246.051 -75.608)" fill="#4f4f4f"/>
        <path id="Path_579" data-name="Path 579" d="M362.17,117.689a1.14,1.14,0,1,1-.07-1.61,1.14,1.14,0,0,1,.07,1.61" transform="translate(-262.975 -84.53)" fill="#4f4f4f"/>
        <path id="Path_580" data-name="Path 580" d="M382.223,132.221a1.14,1.14,0,1,1-.07-1.61,1.14,1.14,0,0,1,.07,1.61" transform="translate(-277.615 -95.14)" fill="#4f4f4f"/>
        <path id="Path_581" data-name="Path 581" d="M207.545,179.617l-3.121-5.405,3.121-5.405h6.241l3.121,5.405-3.121,5.405Z" transform="translate(-149.25 -123.246)" fill="#4f4f4f"/>
        <path id="Path_582" data-name="Path 582" d="M224.678,126.409a1.684,1.684,0,1,1-1.684-1.684,1.684,1.684,0,0,1,1.684,1.684" transform="translate(-161.578 -91.062)" fill="#e0e0e0"/>
        <path id="Path_583" data-name="Path 583" d="M168.478,164.793a1.684,1.684,0,1,1-2.122,1.081,1.684,1.684,0,0,1,2.122-1.081" transform="translate(-121.396 -120.255)" fill="#e0e0e0"/>
        <path id="Path_584" data-name="Path 584" d="M187.617,230.1a1.684,1.684,0,1,1,.372,2.352,1.684,1.684,0,0,1-.372-2.352" transform="translate(-136.744 -167.491)" fill="#e0e0e0"/>
        <path id="Path_585" data-name="Path 585" d="M255.645,232.083a1.684,1.684,0,1,1,2.352.372,1.684,1.684,0,0,1-2.352-.372" transform="translate(-186.411 -167.491)" fill="#e0e0e0"/>
        <path id="Path_586" data-name="Path 586" d="M216.824,74.105a31.245,31.245,0,0,0-3.965.262l.378,2.371a3.589,3.589,0,0,0,7.173,0l.378-2.371a31.242,31.242,0,0,0-3.965-.262" transform="translate(-155.408 -54.104)" fill="#333"/>
        <path id="Path_587" data-name="Path 587" d="M182.114,77.078a31.168,31.168,0,0,0-3.69,1.474l1.092,2.138a3.589,3.589,0,0,0,6.822-2.217l-.372-2.372a31.274,31.274,0,0,0-3.852.977" transform="translate(-130.267 -55.562)" fill="#333"/>
        <path id="Path_588" data-name="Path 588" d="M151.852,90.285a31.211,31.211,0,0,0-3.054,2.542l1.7,1.7a3.589,3.589,0,0,0,5.8-4.216l-1.088-2.14a31.158,31.158,0,0,0-3.361,2.119" transform="translate(-108.637 -64.37)" fill="#333"/>
        <path id="Path_589" data-name="Path 589" d="M129,113.137a31.223,31.223,0,0,0-2.119,3.361l2.14,1.088a3.589,3.589,0,0,0,4.216-5.8l-1.7-1.7A31.213,31.213,0,0,0,129,113.137" transform="translate(-92.636 -80.371)" fill="#333"/>
        <path id="Path_590" data-name="Path 590" d="M115.795,143.4a31.175,31.175,0,0,0-.977,3.851l2.372.373a3.589,3.589,0,0,0,2.216-6.822l-2.138-1.093a31.261,31.261,0,0,0-1.474,3.69" transform="translate(-83.828 -102)" fill="#333"/>
        <path id="Path_591" data-name="Path 591" d="M112.822,178.108a31.2,31.2,0,0,0,.261,3.965l2.371-.378a3.589,3.589,0,0,0,0-7.173l-2.371-.378a31.189,31.189,0,0,0-.261,3.965" transform="translate(-82.371 -127.142)" fill="#333"/>
        <path id="Path_592" data-name="Path 592" d="M115.795,212.7a31.2,31.2,0,0,0,1.474,3.69l2.138-1.092a3.589,3.589,0,0,0-2.216-6.822l-2.372.373a31.216,31.216,0,0,0,.977,3.852" transform="translate(-83.828 -152.165)" fill="#333"/>
        <path id="Path_593" data-name="Path 593" d="M129,242.869a31.177,31.177,0,0,0,2.542,3.054l1.7-1.7a3.589,3.589,0,0,0-4.216-5.8l-2.14,1.087A31.183,31.183,0,0,0,129,242.869" transform="translate(-92.636 -173.702)" fill="#333"/>
        <path id="Path_594" data-name="Path 594" d="M151.852,266.652a31.246,31.246,0,0,0,3.361,2.119l1.088-2.14a3.589,3.589,0,0,0-5.8-4.216l-1.7,1.7a31.216,31.216,0,0,0,3.054,2.542" transform="translate(-108.637 -190.634)" fill="#333"/>
        <path id="Path_595" data-name="Path 595" d="M182.114,281.855a31.221,31.221,0,0,0,3.851.977l.372-2.371a3.589,3.589,0,0,0-6.822-2.217l-1.092,2.138a31.263,31.263,0,0,0,3.69,1.474" transform="translate(-130.267 -201.439)" fill="#333"/>
        <path id="Path_596" data-name="Path 596" d="M216.824,287.085a31.2,31.2,0,0,0,3.965-.261l-.378-2.371a3.589,3.589,0,0,0-7.173,0l-.378,2.371a31.189,31.189,0,0,0,3.965.261" transform="translate(-155.408 -205.153)" fill="#333"/>
        <path id="Path_597" data-name="Path 597" d="M251.416,281.855a31.236,31.236,0,0,0,3.69-1.474l-1.092-2.138a3.589,3.589,0,0,0-6.822,2.217l.373,2.371a31.226,31.226,0,0,0,3.852-.977" transform="translate(-180.432 -201.439)" fill="#333"/>
        <path id="Path_598" data-name="Path 598" d="M281.586,266.652a31.184,31.184,0,0,0,3.054-2.542l-1.7-1.7a3.589,3.589,0,0,0-5.8,4.216l1.087,2.14a31.249,31.249,0,0,0,3.361-2.119" transform="translate(-201.969 -190.634)" fill="#333"/>
        <path id="Path_599" data-name="Path 599" d="M305.368,242.869a31.225,31.225,0,0,0,2.119-3.361l-2.14-1.087a3.589,3.589,0,0,0-4.216,5.8l1.7,1.7a31.213,31.213,0,0,0,2.542-3.054" transform="translate(-218.901 -173.702)" fill="#333"/>
        <path id="Path_600" data-name="Path 600" d="M320.571,212.7a31.208,31.208,0,0,0,.977-3.852l-2.371-.373a3.589,3.589,0,0,0-2.217,6.822l2.138,1.093a31.244,31.244,0,0,0,1.474-3.69" transform="translate(-229.705 -152.165)" fill="#333"/>
        <path id="Path_601" data-name="Path 601" d="M325.8,178.108a31.24,31.24,0,0,0-.261-3.965l-2.371.378a3.589,3.589,0,0,0,0,7.173l2.371.378a31.25,31.25,0,0,0,.261-3.965" transform="translate(-233.42 -127.142)" fill="#333"/>
        <path id="Path_602" data-name="Path 602" d="M320.571,143.4a31.262,31.262,0,0,0-1.474-3.69l-2.138,1.093a3.589,3.589,0,0,0,2.217,6.822l2.371-.373a31.216,31.216,0,0,0-.977-3.851" transform="translate(-229.705 -102)" fill="#333"/>
        <path id="Path_603" data-name="Path 603" d="M305.368,113.137a31.218,31.218,0,0,0-2.542-3.054l-1.7,1.7a3.589,3.589,0,0,0,4.216,5.8l2.14-1.087a31.18,31.18,0,0,0-2.119-3.361" transform="translate(-218.901 -80.371)" fill="#333"/>
        <path id="Path_604" data-name="Path 604" d="M281.586,90.285a31.161,31.161,0,0,0-3.361-2.119l-1.087,2.14a3.589,3.589,0,0,0,5.8,4.216l1.7-1.7a31.175,31.175,0,0,0-3.054-2.542" transform="translate(-201.969 -64.37)" fill="#333"/>
        <path id="Path_605" data-name="Path 605" d="M251.416,77.078a31.275,31.275,0,0,0-3.852-.977l-.373,2.372a3.589,3.589,0,0,0,6.822,2.217l1.092-2.138a31.145,31.145,0,0,0-3.69-1.474" transform="translate(-180.432 -55.562)" fill="#333"/>
        <path id="Path_606" data-name="Path 606" d="M278.548,168a1.684,1.684,0,1,1,1.081-2.122A1.684,1.684,0,0,1,278.548,168" transform="translate(-201.758 -120.254)" fill="#e0e0e0"/>
        <path id="Path_607" data-name="Path 607" d="M222.616,181.008a2.893,2.893,0,1,1-2.893-2.893,2.893,2.893,0,0,1,2.893,2.893" transform="translate(-158.307 -130.042)" fill="#c1c1c1"/>
        <path id="Path_608" data-name="Path 608" d="M221.241,82.827l-.984-1.7.984-1.7h1.968l.984,1.7-.984,1.7Z" transform="translate(-160.809 -57.983)" fill="#e2e2e2"/>
        <path id="Path_609" data-name="Path 609" d="M190.217,87.5l-1.463-1.317.409-1.925,1.872-.608,1.463,1.317-.409,1.925Z" transform="translate(-137.809 -61.07)" fill="#e2e2e2"/>
        <path id="Path_610" data-name="Path 610" d="M162.29,102.086l-1.8-.8-.206-1.957,1.592-1.157,1.8.8.206,1.957Z" transform="translate(-117.025 -71.675)" fill="#e2e2e2"/>
        <path id="Path_611" data-name="Path 611" d="M139.646,125.166l-1.958-.206-.8-1.8,1.157-1.592,1.958.206.8,1.8Z" transform="translate(-99.942 -88.758)" fill="#e2e2e2"/>
        <path id="Path_612" data-name="Path 612" d="M125.6,153.372l-1.925.409-1.317-1.463.608-1.872,1.925-.409,1.317,1.463Z" transform="translate(-89.336 -109.542)" fill="#e2e2e2"/>
        <path id="Path_613" data-name="Path 613" d="M121.543,184.493l-1.7.984-1.7-.984v-1.968l1.7-.984,1.7.984Z" transform="translate(-86.25 -132.542)" fill="#e2e2e2"/>
        <path id="Path_614" data-name="Path 614" d="M126.213,216.038,124.9,217.5l-1.925-.409-.608-1.872,1.317-1.463,1.925.409Z" transform="translate(-89.337 -156.064)" fill="#e2e2e2"/>
        <path id="Path_615" data-name="Path 615" d="M140.8,244.364l-.8,1.8-1.957.206-1.157-1.592.8-1.8,1.957-.206Z" transform="translate(-99.942 -177.247)" fill="#e2e2e2"/>
        <path id="Path_616" data-name="Path 616" d="M163.882,266.146l-.206,1.957-1.8.8-1.593-1.157.206-1.957,1.8-.8Z" transform="translate(-117.024 -193.468)" fill="#e2e2e2"/>
        <path id="Path_617" data-name="Path 617" d="M192.089,280.362l.409,1.925-1.463,1.317L189.163,283l-.409-1.925,1.463-1.317Z" transform="translate(-137.809 -204.248)" fill="#e2e2e2"/>
        <path id="Path_618" data-name="Path 618" d="M223.209,285.616l.984,1.7-.984,1.7h-1.968l-.984-1.7.984-1.7Z" transform="translate(-160.809 -208.528)" fill="#e2e2e2"/>
        <path id="Path_619" data-name="Path 619" d="M254.754,279.753l1.463,1.317L255.807,283l-1.872.608-1.463-1.317.409-1.925Z" transform="translate(-184.33 -204.247)" fill="#e2e2e2"/>
        <path id="Path_620" data-name="Path 620" d="M283.079,264.989l1.8.8.206,1.957-1.592,1.157-1.8-.8-.206-1.957Z" transform="translate(-205.513 -193.468)" fill="#e2e2e2"/>
        <path id="Path_621" data-name="Path 621" d="M304.862,242.771l1.957.206.8,1.8-1.157,1.592-1.958-.206-.8-1.8Z" transform="translate(-221.735 -177.247)" fill="#e2e2e2"/>
        <path id="Path_622" data-name="Path 622" d="M319.078,214.166l1.925-.409,1.317,1.463-.608,1.872-1.925.409-1.317-1.463Z" transform="translate(-232.514 -156.063)" fill="#e2e2e2"/>
        <path id="Path_623" data-name="Path 623" d="M324.333,182.525l1.7-.984,1.7.984v1.968l-1.7.984-1.7-.984Z" transform="translate(-236.795 -132.543)" fill="#e2e2e2"/>
        <path id="Path_624" data-name="Path 624" d="M318.469,151.5l1.317-1.463,1.925.409.608,1.872L321,153.782l-1.925-.409Z" transform="translate(-232.514 -109.542)" fill="#e2e2e2"/>
        <path id="Path_625" data-name="Path 625" d="M303.705,123.574l.8-1.8,1.957-.206,1.157,1.592-.8,1.8-1.957.206Z" transform="translate(-221.735 -88.759)" fill="#e2e2e2"/>
        <path id="Path_626" data-name="Path 626" d="M281.487,100.93l.206-1.958,1.8-.8,1.592,1.157-.206,1.958-1.8.8Z" transform="translate(-205.514 -71.675)" fill="#e2e2e2"/>
        <path id="Path_627" data-name="Path 627" d="M252.882,86.888l-.409-1.925,1.463-1.317,1.872.608.409,1.925L254.754,87.5Z" transform="translate(-184.33 -61.07)" fill="#e2e2e2"/>
        <path id="Path_628" data-name="Path 628" d="M10.5,43.227h0a3.1,3.1,0,0,1-3.1,3.1h0a7.4,7.4,0,0,0-7.4,7.4v42.3a7.4,7.4,0,0,0,7.4,7.4h0a3.1,3.1,0,0,1,3.1,3.1A11.713,11.713,0,0,0,22.21,118.232h3.036a3.1,3.1,0,0,0,3.1-3.1V34.617a3.1,3.1,0,0,0-3.1-3.1H22.21A11.713,11.713,0,0,0,10.5,43.227" transform="translate(0 -23.008)" fill="#d83d3d"/>
        <path id="Path_629" data-name="Path 629" d="M27.756,77.488a3.1,3.1,0,0,1-3.017,2.407h0a7.34,7.34,0,0,0-.983.1v56.889a7.3,7.3,0,0,0,.983.1h0a3.1,3.1,0,0,1,3.017,2.407Z" transform="translate(-17.343 -56.574)" fill="#bc2a2a"/>
      </g>
    </g>
  </g>
</svg>
