<svg xmlns="http://www.w3.org/2000/svg" xmlns:xlink="http://www.w3.org/1999/xlink" width="274.1" height="176.18" viewBox="0 0 274.1 176.18">
  <defs>
    <clipPath id="clip-path">
      <rect id="Rectangle_372" data-name="Rectangle 372" width="274.1" height="176.18" fill="none"/>
    </clipPath>
  </defs>
  <g id="Group_836" data-name="Group 836" transform="translate(0 0)">
    <path id="Path_432" data-name="Path 432" d="M0,0V174.662H155.953L256.817,0Z" fill="#fff"/>
    <path id="Path_433" data-name="Path 433" d="M526.73,3.991,427.045,178.654H437.9L538.76,3.991Z" transform="translate(-264.66 -2.474)" fill="#cf5300"/>
    <g id="Group_835" data-name="Group 835" transform="translate(0 0)">
      <g id="Group_834" data-name="Group 834" clip-path="url(#clip-path)">
        <path id="Path_434" data-name="Path 434" d="M128.395,152.057a6.494,6.494,0,0,1-.183-2.655,176.619,176.619,0,0,1,.421-18.556c.438-4.31,1.329-8.587,2.074-12.875.507-2.919,1.257-5.817,1.506-8.759a14.274,14.274,0,0,0,.3-1.58c.64-.136.472-.581.561-.877a22.752,22.752,0,0,1,2.7-6.067,7.529,7.529,0,0,1,4.744-3.331,61.878,61.878,0,0,1,9.22-1.586c2.7-.264,5.413-.494,8.183-.744-1.872-.9-2.049-1.106-1.693-1.905a19.638,19.638,0,0,0,7.939,1.018,160.545,160.545,0,0,1,18.215.315c3.848.309,7.715.654,11.568-.023.168.29-.5.331-.311.692,1.9.158,3.851.308,5.8.487a75.924,75.924,0,0,1,11.554,1.757,7.8,7.8,0,0,1,4.439,2.419,20.96,20.96,0,0,1,3.384,6.814,10.79,10.79,0,0,0,1.03,3.151c.1,3.277,1.008,6.489,1.6,9.724,1.292,7.083,2.384,14.169,2.21,21.331-.084,3.434-.028,6.87-.035,10.306a1.756,1.756,0,0,1-.19,1.036,2.786,2.786,0,0,0-.467.332,15.939,15.939,0,0,1-5.363,3.591c-4.837,2.2-8.7,5.054-10.8,9.018a65.388,65.388,0,0,0-3.288,8.4l-2.722-.32c-.389-.046-.85-.176-.789.334a7.962,7.962,0,0,0-2.4-.365l-.024-.294c2.267.181,2.382.151,2.683-1.521.287-1.595.269-3.211.436-4.811.287-2.745.628-5.492.692-8.24.125-5.406.043-10.815.1-16.222.044-4.5-.561-9.04,1.234-13.46.112-.276-.055-.413-.43-.429-.6-.025-1.195-.061-1.792-.058-4.265.022-8.585.217-12.85.245,0-.041,0-.278-.01-.319,1.346-.015,2.569-.013,3.833-.03,3.591-.047,7.178-.191,10.77-.234a1.381,1.381,0,0,0,1.262-.506c2.259-3.163,5.366-5.908,8.276-8.752,2.266-2.215,5.021-4.147,7.056-6.495a2.037,2.037,0,0,0,.545-1.99,60.4,60.4,0,0,0-2.029-6.4c-1.361-3.529-4-5.975-9.322-6.692-3.6-.486-7.2-.949-10.842-1.249a24.206,24.206,0,0,0-5.341-.247,19.224,19.224,0,0,1-4.124.175c-6.518-.5-13.068-.539-19.608-.667a124.788,124.788,0,0,0-13.979.668,104.329,104.329,0,0,0-12.109,1.635c-3.083.657-5.086,2.017-6.278,4.141a33.329,33.329,0,0,0-3.179,8.679,1.9,1.9,0,0,0,.56,1.811c1.981,2.31,4.708,4.19,6.922,6.368,2.988,2.937,6.239,5.74,8.5,9.032a1.372,1.372,0,0,0,1.273.487c2.506.032,5.011.109,7.517.12,8.006.034,22.4.216,30.41.142-.013.087-.008.217-.021.3-1.718.026-9.85.094-11.566.069-4.859-.071-9.717-.2-14.576-.271-3.7-.059-7.4-.1-11.1.023-.743.025-1.329.1-1.032.851a17.029,17.029,0,0,1,1,6.262c.04,4.4-.024,8.809-.065,13.213,0,.514,0,.955,1.093.9-1.023-.045-1.017.355-.991.834.043.782.026,1.567,0,2.351a100.591,100.591,0,0,0,.642,13.2c.039.4.115.714,1.042.691-.905.266-.963.269-.931.566.183,1.719.071,3.461.743,5.143a1.54,1.54,0,0,0,1.448,1.087l-1.247.214-.463-.608a6.831,6.831,0,0,1-3.337.628c-.379-1.071-.781-2.138-1.131-3.214a24.823,24.823,0,0,0-3.622-7.376c-2.308-3.095-5.905-5.257-9.925-7.087a14.036,14.036,0,0,1-3.941-2.481c-.447-.426-.907-.845-1.361-1.267m8.689-35.952a48.29,48.29,0,0,0-1.41,5.79c-.786,5.065-.744,10.09,1.434,15,2.044,4.613,5.6,8.332,11.869,10.449.637.215,1.059.408,1.054-.386-.028-4.055.049-8.112,0-12.167-.041-3.046-.471-6.035-2.768-8.734a99.191,99.191,0,0,0-7.675-7.782,18.788,18.788,0,0,0-2.5-2.174m77.662.123a127.923,127.923,0,0,0-9.752,9.615,11.5,11.5,0,0,0-2.864,6.076c-.675,5.048-.158,10.1-.228,15.155-.005.389.154.6.712.374,2.931-1.2,5.952-2.364,7.918-4.42a21.033,21.033,0,0,0,4.748-7.384,26.755,26.755,0,0,0,.988-13.2,32.109,32.109,0,0,0-1.523-6.214" transform="translate(-79.43 -57.711)" fill="#9d7352"/>
        <path id="Path_435" data-name="Path 435" d="M220.387,370.859a.954.954,0,0,1,.324.837,18.363,18.363,0,0,1-1.593,8.456c-1.031,2.213-3.167,3.822-5.365,5.413-.4.287-.843.539-1.218.839-2.464,1.969-5.643,2.712-9.2,2.891-6.7.338-13.394.787-20.1,1.046-4.215.163-8.449.082-12.674.082-5.908,0-11.822.09-17.723-.07-5.74-.155-11.465-.6-17.2-.868-2.013-.1-4.017-.215-6.018-.4-3.123-.286-5.293-1.7-7.542-3.115-4.743-2.978-7.05-6.728-7.345-11.22-.069-1.053-.123-2.1-.109-3.154,0-.225-.219-.568.34-.668a6.616,6.616,0,0,0,1.371,1.114c.407.226.844.473.966.855a8.044,8.044,0,0,0,1.746,2.484,9.485,9.485,0,0,0,5.315,2.873,111.439,111.439,0,0,0,12.17,1.5c3.925.224,7.854.392,11.781.58,3.12.149,6.254.149,9.381.215,0,0,2.849.108,4.265.116,7.168.044,14.329-.008,21.494-.263,3.721-.132,7.443-.287,11.168-.388,2.08-.056,4.16-.19,6.228-.36,3.179-.262,6.294-.8,9.425-1.256a9.633,9.633,0,0,0,6.037-3.04c.469-.7,1.286-1.265,1.5-2.06a2,2,0,0,1,.99-1.139,5.668,5.668,0,0,0,1.583-1.3" transform="translate(-71.013 -229.839)" fill="#f8be55"/>
        <path id="Path_436" data-name="Path 436" d="M119.569,333.21a8.036,8.036,0,0,1-1.746-2.484c-.122-.382-.559-.629-.966-.855a6.6,6.6,0,0,1-1.371-1.113c-.294-2.529.545-5,.824-7.492a11.728,11.728,0,0,1,3.175-7c.27-.285.635-.538.618-.924a1.334,1.334,0,0,0,.811-.391q2.71-1.9,5.414-3.805c2.5-2.275,6.01-3.437,9.572-4.546,1.491-.464,3.137-.6,4.577-1.162a6.839,6.839,0,0,0,3.337-.628l.463.608a6.9,6.9,0,0,0-1.123,2.455l-.118.338a4,4,0,0,0-.328,2.261.25.25,0,0,0-.024.142,6.8,6.8,0,0,0-.467,2.73c-.633.157-1.1-.254-1.7-.255-3.283-.006-6.572-.2-9.8.473-3.648.758-5.788,2.914-5.467,5.653.18,1.534.368,3.068.638,4.594a3.491,3.491,0,0,0,.736,2.089c-.042.237-.294.371-.5.519a22.531,22.531,0,0,0-3.48,3.063,8.389,8.389,0,0,0-2.607,5.663l-.465.071" transform="translate(-71.534 -187.665)" fill="#9d7352"/>
        <path id="Path_437" data-name="Path 437" d="M345.86,329.114a5.669,5.669,0,0,1-1.583,1.3,2,2,0,0,0-.99,1.139c-.213.8-1.031,1.361-1.5,2.06-.176.011-.363.112-.519-.033a2.876,2.876,0,0,0-.256-1.743c-.859-3-3.449-5.235-6.305-7.345a5.146,5.146,0,0,0,.569-1.557c.386-1.814.535-3.644.77-5.469.286-2.22-1.517-4.368-4.4-5.2a32.583,32.583,0,0,0-9.161-.779,8.5,8.5,0,0,0-3.348.444,9.436,9.436,0,0,0-.507-2.869c0-.055-.009-.11-.013-.165a3.617,3.617,0,0,0-.413-2.278q-.025-.16-.051-.321a7.213,7.213,0,0,0-1.1-2.412c-.061-.511.4-.38.789-.335l2.722.32a3.322,3.322,0,0,0,1.137.3c5.055,1.126,9.917,2.5,13.495,5.51,1.411,1.266,3.247,2.216,4.819,3.365.481.352.65.947,1.472,1.047a1.334,1.334,0,0,0,.2.454,12.086,12.086,0,0,1,3.345,7.384c.269,2.395,1.027,4.761.831,7.183" transform="translate(-196.487 -188.094)" fill="#9d7352"/>
        <path id="Path_438" data-name="Path 438" d="M148.368,269.539c-1.441.562-3.087.7-4.577,1.162-3.563,1.109-7.071,2.271-9.573,4.546-.641-.326.092-.675-.032-1.01a8.765,8.765,0,0,1,2.077-2.285,15.67,15.67,0,0,1,4.907-1.825l-3.6-1.405a5.806,5.806,0,0,0-2.232-.639c-1.612-.734-3.229-1.466-4.02-2.811a9.9,9.9,0,0,1-1.55-4.6,5.43,5.43,0,0,0-.492-2.927c-1.045-2.914-.8-5.91-1.079-8.872-.024-.257-.133-.542.2-.759.454.422.914.841,1.36,1.267a14.043,14.043,0,0,0,3.941,2.481c4.019,1.83,7.617,3.992,9.925,7.087a24.821,24.821,0,0,1,3.622,7.376c.35,1.076.752,2.143,1.131,3.214" transform="translate(-79.424 -153.767)" fill="#fbae17"/>
        <path id="Path_439" data-name="Path 439" d="M340.922,275.5c-3.578-3.014-8.44-4.384-13.495-5.51a3.3,3.3,0,0,1-1.137-.3,65.32,65.32,0,0,1,3.288-8.4c2.1-3.964,5.967-6.817,10.8-9.018a15.937,15.937,0,0,0,5.363-3.591,2.788,2.788,0,0,1,.467-.332,14.124,14.124,0,0,1,.052,4.256,23.487,23.487,0,0,1-.773,5.2,4.789,4.789,0,0,0-.629,2.911,7.77,7.77,0,0,1-4.564,7.119l-2.236.713c-1.659.287-2.835,1.215-4.7,1.683,2.419.508,4.4,1.093,5.858,2.32a6.113,6.113,0,0,1,1.772,2.647l-.065.3" transform="translate(-202.218 -153.915)" fill="#fbae17"/>
        <path id="Path_440" data-name="Path 440" d="M301.056,47.821a7.049,7.049,0,0,0,2.866-3.926c.879-2.4.537-4.866.322-7.312-.1-1.127-.1-2.256-.265-3.383-.385-2.56-.717-5.126-1.04-7.69a34.248,34.248,0,0,0-1.643-6.9c-.032-.094.029-.2.044-.288.383-.106.459.1.5.233A31.911,31.911,0,0,1,303.3,24.09c.368,2.616.762,5.23,1.092,7.848.209,1.659.4,3.323.453,4.987a28.3,28.3,0,0,1,.25,3.871,8.871,8.871,0,0,1-1.231,4.385,1.181,1.181,0,0,0-.1.8c-.151.2-.63.309-.46.59s.594.159.907.179a67.542,67.542,0,0,1,10.825,1.62,12.214,12.214,0,0,1,8.533,6.193,25.809,25.809,0,0,1,3.008,8.188c.037.212.1.429-.078.629a10.784,10.784,0,0,1-1.03-3.151,20.957,20.957,0,0,0-3.384-6.814,7.8,7.8,0,0,0-4.439-2.419,76.021,76.021,0,0,0-11.554-1.757c-1.948-.178-3.9-.328-5.8-.486-.189-.362.479-.4.311-.692l-.013.006a.363.363,0,0,0,.47-.243" transform="translate(-186.081 -11.339)" fill="#fbae17"/>
        <path id="Path_441" data-name="Path 441" d="M186.777,41.754c-2.224-2.351-2.154-4.8-.51-7.281,1.04-1.569,1.206-3.274,1.616-4.938.875-3.554,1.2-7.177,2.508-10.678a3.471,3.471,0,0,1,1.546-2.1c.285.511,0,1-.145,1.486-.555,1.891-1.05,3.789-1.425,5.7-.432,2.2-.834,4.41-1.247,6.616s-.775,4.416-1.252,6.615a30.584,30.584,0,0,1-1.09,4.575" transform="translate(-114.695 -10.387)" fill="#fbae17"/>
        <path id="Path_442" data-name="Path 442" d="M189.564,41.111a30.6,30.6,0,0,0,1.09-4.575c.477-2.2.839-4.409,1.252-6.615s.815-4.412,1.247-6.616c.375-1.913.87-3.812,1.425-5.7.142-.484.43-.975.145-1.486.186-.181.3-.432.717-.39-.231,1.579-.786,3.117-1.143,4.679-.514,2.25-.91,4.514-1.366,6.771-.58,2.868-1.191,5.733-1.75,8.6-.352,1.807-.637,3.622-.944,5.434-.04.237.041.51-.448.549l-.226-.65" transform="translate(-117.482 -9.744)" fill="#fbae17"/>
        <path id="Path_443" data-name="Path 443" d="M132.663,286.288c-.029-.836-.016-1.673-.021-2.509-1.612-.733-3.229-1.467-4.02-2.81a9.9,9.9,0,0,1-1.55-4.6,5.428,5.428,0,0,0-.492-2.928c-1.42.217-2.316.784-2.413,1.885q-.028.158-.056.316c-.072,1.074-.075,2.153-.232,3.221-.313,2.127.609,4.169.725,6.267.184,3.338.461,6.674.7,10.01a1.335,1.335,0,0,0,.811-.391q2.71-1.9,5.414-3.805c-.641-.326.092-.675-.032-1.01-.046-.91-.3-1.856.674-2.618a1.148,1.148,0,0,0,.494-1.027" transform="translate(-76.734 -169.463)" fill="#9d7352"/>
        <path id="Path_444" data-name="Path 444" d="M235.641,232.879a33.2,33.2,0,0,0-4.253.033c-4.432.59-8.916.431-13.371.565-7.538.227-15.082-.1-22.625-.13-.186,0-.374-.006-.559-.021a71.03,71.03,0,0,0-9.236-.443,6.9,6.9,0,0,1,1.123-2.455c.324-.056-.013-.828-.2-1.3-.672-1.681-.56-3.424-.743-5.143-.032-.3-.072-.859-.111-1.258a100.576,100.576,0,0,1-.642-13.2c.026-.783.043-1.569,0-2.351-.026-.478-.107-1.22-.1-1.734.041-4.4.1-8.809.064-13.213a17.02,17.02,0,0,0-1-6.262c-.3-.747.289-.826,1.032-.851,3.7-.124,7.4-.081,11.1-.023,4.859.077,9.717.2,14.576.271,1.716.025,3.436-.043,5.154-.069,2.133.045,4.3.024,6.412,0,4.265-.029,8.5-.207,12.769-.23.6,0,1.2.033,1.792.057.375.016.542.152.43.429-1.795,4.42-1.189,8.958-1.234,13.461-.053,5.407.03,10.816-.1,16.222-.064,2.748-.4,5.495-.691,8.24-.167,1.6-.149,3.217-.436,4.811-.3,1.672.758,3.72.843,4.591" transform="translate(-113.975 -114.677)" fill="#fbae17"/>
        <path id="Path_445" data-name="Path 445" d="M148.561,153.566a18.789,18.789,0,0,1,2.5,2.174,99.067,99.067,0,0,1,7.675,7.783c2.3,2.7,2.728,5.688,2.768,8.734.054,4.055-.023,8.111,0,12.167.005.793-.417.6-1.054.386-6.264-2.116-9.825-5.836-11.868-10.449-2.177-4.914-2.22-9.939-1.434-15a48.36,48.36,0,0,1,1.411-5.79" transform="translate(-90.907 -95.172)" fill="#fbae17"/>
        <path id="Path_446" data-name="Path 446" d="M334.722,153.888a32.111,32.111,0,0,1,1.522,6.214,26.755,26.755,0,0,1-.988,13.2,21.033,21.033,0,0,1-4.748,7.384c-1.966,2.056-4.987,3.219-7.918,4.42-.558.229-.717.015-.712-.374.07-5.052-.447-10.107.228-15.155a11.5,11.5,0,0,1,2.864-6.076,127.921,127.921,0,0,1,9.752-9.615" transform="translate(-199.406 -95.372)" fill="#fbae17"/>
        <path id="Path_447" data-name="Path 447" d="M239.63,303.153c-7.781.014-19.445.035-27.225.041-6.1,0-12.2-.014-18.294-.011-.767,0-1.534.071-2.575.124.068-.257.021-.33.021-.33.426-.073,1.929-.131,2.332-.131q16.779,0,33.558,0c2.759,0,9.358-.152,12.116,0,.008.1.06.21.068.307" transform="translate(-118.704 -187.648)" fill="#fbae17"/>
        <path id="Path_448" data-name="Path 448" d="M301.6,95.942a.363.363,0,0,1-.47.243l.47-.243" transform="translate(-186.623 -59.46)" fill="#9d7352"/>
        <path id="Path_449" data-name="Path 449" d="M223.07,382.581c.156.146.343.044.519.033a9.632,9.632,0,0,1-6.037,3.04c-3.131.461-6.246.995-9.425,1.256-2.068.17-4.148.3-6.228.361-3.725.1-7.448.255-11.168.387-7.164.255-14.326.307-21.494.263-1.429.118-2.837-.183-4.265-.116-3.127-.066-6.261-.066-9.381-.215-3.927-.187-7.856-.356-11.781-.579a111.532,111.532,0,0,1-12.171-1.5,9.486,9.486,0,0,1-5.315-2.873l.465-.071a11.512,11.512,0,0,0,6.231,2.766,110.556,110.556,0,0,0,13.227,1.42c5.024.2,10.044.453,15.077.555,1.926.039,3.873-.049,5.78.157.911.1,1.361.032,1.268-.837.264.391.033.81.692.808.708,0,1.384.155,2.1.156,5.713.008,11.417-.115,17.124-.3,3.2-.1,6.4-.2,9.6-.322a146.523,146.523,0,0,0,15.869-1.166c3.48-.511,7.007-.936,9.3-3.225" transform="translate(-78.289 -237.098)" fill="#fbae17"/>
        <path id="Path_450" data-name="Path 450" d="M223.828,357.936c-2.3,2.289-5.823,2.714-9.3,3.225a146.531,146.531,0,0,1-15.869,1.166c-3.2.118-6.4.218-9.6.322-5.707.186-11.411.31-17.124.3-.721,0-1.4-.159-2.1-.156-.659,0-.429-.416-.692-.808.094.868-.357.935-1.268.837-1.907-.206-3.854-.119-5.78-.157-5.033-.1-10.054-.354-15.077-.555a110.55,110.55,0,0,1-13.227-1.42,11.512,11.512,0,0,1-6.231-2.766,8.39,8.39,0,0,1,2.607-5.663,22.5,22.5,0,0,1,3.48-3.063c.211-.148.462-.282.5-.519a4.293,4.293,0,0,0,.578-.227,81.054,81.054,0,0,1,7.482-3.931c2.117-.944,4.224-2.081,7-1.522a7.219,7.219,0,0,0,1.432.155c6.792-.03,13.577.142,20.364.309,6.232.154,12.462-.061,18.689-.28,2.537-.089,5.084-.006,7.627-.022,1.638-.011,3.272.033,4.918-.119a6.359,6.359,0,0,1,2.736-.106c1.057.4,2.193.667,3.218,1.107a70.464,70.464,0,0,1,9.08,4.8c2.856,2.11,5.446,4.342,6.305,7.345a2.884,2.884,0,0,1,.256,1.743" transform="translate(-79.047 -212.453)" fill="#fbae17"/>
        <path id="Path_451" data-name="Path 451" d="M236.736,321.984c-2.676.146-5.351.3-8.027.436-1.448.076-2.9.185-4.349.188-8.412.018-16.827.106-25.234-.032-4.076-.067-8.176-.226-12.234-.668-1.034-.112-1.421-.382-1.146-1.108a6.794,6.794,0,0,1,.467-2.729,11.23,11.23,0,0,0,4.23.77,42.642,42.642,0,0,1,4.464.161c3.164.105,6.335.053,9.5.177,4.474.176,8.971.047,13.458.043.324,0,.684.072.939-.159l5.767-.034a58.621,58.621,0,0,0,6.439-.182,20.926,20.926,0,0,0,6.194-.758,9.436,9.436,0,0,1,.507,2.869c.416.7-.33.828-.956,1.016l-.02.011" transform="translate(-115.063 -197.123)" fill="#fbae17"/>
        <path id="Path_452" data-name="Path 452" d="M237.62,311.46a3.618,3.618,0,0,1,.413,2.278,2.265,2.265,0,0,0-.445,0,66.168,66.168,0,0,1-10.944.8,4.192,4.192,0,0,0-1.318.126c-1.871.142-3.747.06-5.621.075-.334-.014-.669-.037-1-.04-6.371-.046-12.743.108-19.115-.138a99.329,99.329,0,0,1-12.508-.825,4,4,0,0,1,.328-2.26c1.086.08,2.141-.27,3.226-.134a86.668,86.668,0,0,0,10.222.6c6.128.041,12.262-.092,18.384.053,6.157.146,12.239-.664,18.381-.542" transform="translate(-115.904 -192.937)" fill="#fbae17"/>
        <path id="Path_453" data-name="Path 453" d="M238.253,311.079c-6.142-.122-12.224.688-18.381.542-6.122-.145-12.256-.012-18.384-.053a86.681,86.681,0,0,1-10.222-.6c-1.085-.136-2.14.214-3.226.134l.118-.338a71.083,71.083,0,0,1,9.237.443c.185.016.372.021.559.022,7.543.025,15.087.357,22.625.13,4.455-.134,8.938.024,13.37-.565a33.2,33.2,0,0,1,4.253-.033l.051.321" transform="translate(-116.537 -192.556)" fill="#fbae17"/>
        <path id="Path_454" data-name="Path 454" d="M187.136,317.7a99.331,99.331,0,0,0,12.508.825c6.371.245,12.743.091,19.115.138.334,0,6.373-.077,6.708-.063v.206l-5.925.168a3.746,3.746,0,0,1-.778.02c-4.487,0-8.984.133-13.458-.043-3.166-.125-6.336-.072-9.5-.177a42.744,42.744,0,0,0-4.463-.161,11.216,11.216,0,0,1-4.23-.77.251.251,0,0,1,.024-.142" transform="translate(-115.961 -196.891)" fill="#fbae17"/>
        <path id="Path_455" data-name="Path 455" d="M287.759,318.6a4.18,4.18,0,0,1,1.318-.125,66.132,66.132,0,0,0,10.944-.8,2.286,2.286,0,0,1,.445,0c0,.055.009.11.013.165a20.932,20.932,0,0,1-6.194.757,58.605,58.605,0,0,1-6.439.183l-.088-.173" transform="translate(-178.338 -196.865)" fill="#fbae17"/>
        <path id="Path_456" data-name="Path 456" d="M143.911,306.784c-.046-.91-.3-1.856.674-2.618a1.148,1.148,0,0,0,.494-1.027c-.028-.836-.016-1.673-.021-2.509a5.812,5.812,0,0,1,2.233.639,2.271,2.271,0,0,1-.937,2.266.921.921,0,0,0-.367.965,8.776,8.776,0,0,0-2.077,2.285" transform="translate(-89.15 -186.315)" fill="#9d7352"/>
        <path id="Path_457" data-name="Path 457" d="M359.463,299.6c-.431,1.059-.143,2.142-.189,3.213,0,.116.119.258.239.351,1.475,1.157.837,2.5.64,3.8a6.121,6.121,0,0,0-1.773-2.647c.082-.507.211-1.081-.263-1.466a2.665,2.665,0,0,1-.89-2.537l2.236-.713" transform="translate(-221.382 -185.678)" fill="#9d7352"/>
        <path id="Path_458" data-name="Path 458" d="M371.669,279.2c-.042-1.076-.112-2.152-.09-3.228.037-1.907-.98-2.694-3.65-2.747a4.789,4.789,0,0,0-.629,2.911,7.769,7.769,0,0,1-4.564,7.119c-.431,1.059-.143,2.142-.189,3.213,0,.116.12.258.239.351,1.475,1.157.837,2.5.64,3.8l-.066.3c1.411,1.267,3.248,2.216,4.819,3.365.481.352.65.948,1.472,1.048.316-3.144,2.079-14.609,2.019-16.13" transform="translate(-224.654 -169.33)" fill="#9d7352"/>
        <path id="Path_459" data-name="Path 459" d="M198.526,130.948c3.591-.047,7.178-.192,10.77-.234a1.38,1.38,0,0,0,1.262-.507c2.259-3.163,5.366-5.908,8.277-8.752,2.266-2.215,5.02-4.147,7.056-6.495a2.035,2.035,0,0,0,.545-1.989,60.342,60.342,0,0,0-2.029-6.4c-1.361-3.529-4-5.975-9.322-6.693-3.6-.485-7.2-.949-10.842-1.249a24.205,24.205,0,0,0-5.341-.247,19.248,19.248,0,0,1-4.124.175c-6.518-.5-13.068-.539-19.608-.667a124.6,124.6,0,0,0-13.978.668,104.342,104.342,0,0,0-12.11,1.635c-3.083.657-5.085,2.017-6.278,4.141a33.333,33.333,0,0,0-3.179,8.679,1.9,1.9,0,0,0,.561,1.811c1.981,2.31,4.707,4.19,6.922,6.368,2.988,2.937,6.24,5.74,8.5,9.031a1.371,1.371,0,0,0,1.274.487c2.505.032,5.011.11,7.516.121,8.006.034,16.009.259,24.016.185" transform="translate(-86.498 -60.66)" fill="#fbae17"/>
        <path id="Path_460" data-name="Path 460" d="M301.141,96.566h0l-.012.006Z" transform="translate(-186.623 -59.846)" fill="#fbae17"/>
        <path id="Path_461" data-name="Path 461" d="M238.73,35.392a5.9,5.9,0,0,1-.765-2.187,37.432,37.432,0,0,1-.206-4.856c0-3.755-1.37-7.362-2.3-11.013-.292-1.149-1.415-1.947-3.186-2.068-.779-.053-1.555-.134-2.335-.176-5.4-.294-10.792-.55-16.2-.678-5.005-.119-10.006-.193-15.005.038a7.408,7.408,0,0,0-2.923.395c-.231,1.579-.786,3.117-1.143,4.679-.514,2.25-.91,4.514-1.366,6.771-.58,2.868-1.19,5.732-1.749,8.6-.352,1.807-.637,3.622-.945,5.433-.04.237.041.51-.448.549a11.4,11.4,0,0,0,2.625,2.488,2.258,2.258,0,0,0,1.508.6c.242.024.333.14.355.3a19.638,19.638,0,0,0,7.939,1.018,160.546,160.546,0,0,1,18.215.315c3.848.309,7.715.654,11.567-.023l.458-.237a7.046,7.046,0,0,0,2.866-3.926c.879-2.4.537-4.866.322-7.312-.1-1.127-.095-2.256-.265-3.384-.385-2.56-.717-5.126-1.04-7.69a34.252,34.252,0,0,0-1.643-6.9c-.032-.093.029-.2.044-.288.383-.105.459.1.5.233a31.849,31.849,0,0,1,1.456,5.533c.368,2.616.762,5.23,1.092,7.848.209,1.659.4,3.323.453,4.987a28.233,28.233,0,0,1,.25,3.871,8.873,8.873,0,0,1-1.231,4.385,1.18,1.18,0,0,0-.1.8,3.714,3.714,0,0,0,1.162-.97c2.166-2.154,3.629-4.4,2.041-7.14" transform="translate(-117.851 -8.863)" fill="#fbae17"/>
        <path id="Path_462" data-name="Path 462" d="M221.164,331.378c1.938.028,3.861-.144,5.791-.216,2.643-.1,5.289-.159,7.934-.233.361-.01.663.027.7.368a10.163,10.163,0,0,0,1.021,3.355c.23.462.029.6-.635.66-3.652.329-7.316.05-10.969.158-4.583.136-9.169.225-13.751.352-3.358.093-6.69-.045-10.03-.181-.149-.006-.3-.006-.449-.007-5.228-.017-10.451-.281-15.68-.157-1.089.025-2.153-.109-3.229-.173-.7-.042-.683-.346-.554-.676a11.458,11.458,0,0,0,1.093-3.267c.023-.338.366-.443.792-.428,2.6.088,5.208.21,7.814.255,2.085.036,4.153.342,6.248.193l23.9,0" transform="translate(-112.326 -205.092)" fill="#fbae17"/>
        <path id="Path_463" data-name="Path 463" d="M199.472,329.65a.821.821,0,0,0-.6-.168c-2.161-.058-4.322-.1-6.481-.181-2.3-.086-4.6-.208-6.905-.311-.327-.014-.621-.051-.586-.353s.382-.3.674-.267c13.11,1.375,26.3.667,39.456.755a99.074,99.074,0,0,0,10.774-.6c.187-.019.372-.032.457-.181l.019-.011c.529.085,1.134-.1,1.616.226a1,1,0,0,1-.855.431c-2.453.1-4.9.219-7.356.313-1.9.073-3.8.115-5.7.182a2.021,2.021,0,0,0-.5.146l-24.024.016" transform="translate(-114.591 -203.485)" fill="#fbae17"/>
        <path id="Path_464" data-name="Path 464" d="M162.811,92.632c-.021-.16-.113-.276-.355-.3-.041.376-.449.3-.759.3a53.671,53.671,0,0,0-10.435,1.306c-4.239.845-7.433,2.562-9.142,5.567-.156.274-.362.533-.524.805a17.069,17.069,0,0,0-2.484,6.737l-.011.01s-.25,1.117-.311,1.732a7.443,7.443,0,0,0,.809-2.073c.035-.154.022-.319.063-.455a22.76,22.76,0,0,1,2.7-6.067,7.529,7.529,0,0,1,4.744-3.331,61.831,61.831,0,0,1,9.22-1.587c2.7-.264,5.413-.494,8.183-.744-1.872-.9-2.049-1.106-1.693-1.906" transform="translate(-86.015 -57.222)" fill="#fbae17"/>
        <path id="Path_465" data-name="Path 465" d="M222.677,325.269a32.581,32.581,0,0,0-9.161-.779,8.494,8.494,0,0,0-3.348.444c.416.7-.33.828-.956,1.016.529.085,1.134-.1,1.616.225a1,1,0,0,1-.856.432c-2.453.1-4.9.218-7.356.313-1.863.072-3.728.114-5.591.179h0l-24.489.018-.354-.018v.042a1.5,1.5,0,0,0-.381-.043c-2.161-.058-4.322-.1-6.481-.181-2.3-.086-4.6-.208-6.905-.31-.327-.015-.621-.052-.586-.353s.382-.3.674-.267c13.109,1.375,26.3.667,39.456.755,3.585.024,8.423-.328,12-.7.187-.019.568-.211-.746-.095-2.676.146-5.37.307-8.047.447-1.448.075-2.9.185-4.349.188-8.412.018-16.827.106-25.234-.032-4.076-.067-8.176-.226-12.234-.668-1.034-.113-1.421-.382-1.146-1.108-.634.157-1.1-.255-1.7-.256-3.283-.006-6.572-.2-9.8.473-3.648.758-5.788,2.914-5.467,5.653.18,1.534.368,3.068.638,4.594a3.491,3.491,0,0,0,.736,2.089,4.275,4.275,0,0,0,.579-.227,81.054,81.054,0,0,1,7.482-3.931c2.117-.944,4.224-2.08,7-1.522a7.177,7.177,0,0,0,1.432.156c6.792-.031,13.576.142,20.363.309,6.232.154,12.462-.062,18.689-.28,2.537-.089,5.084-.006,7.627-.023,1.639-.011,3.272.033,4.917-.119a6.374,6.374,0,0,1,2.736-.106c1.056.4,2.192.668,3.218,1.107a70.526,70.526,0,0,1,9.08,4.8,5.154,5.154,0,0,0,.569-1.557c.386-1.814.534-3.644.77-5.469.286-2.22-1.516-4.368-4.4-5.2m-11.506,6.052c-3.652.329-7.315.05-10.969.158-4.583.136-9.169.225-13.751.352-3.358.093-6.69-.045-10.031-.181-.149-.006-.3-.006-.448-.007-5.228-.017-10.451-.281-15.681-.157-1.088.026-2.153-.109-3.229-.173-.7-.042-.683-.346-.554-.676a11.465,11.465,0,0,0,1.093-3.268c.023-.338.366-.443.792-.429,2.6.088,5.208.21,7.814.256,1.995.035,3.974.315,5.976.209h0l3.129-.017,13.259,0h8.455c1.712-.013,3.414-.154,5.122-.218,2.643-.1,5.289-.158,7.934-.233.361-.01.664.027.7.369a10.159,10.159,0,0,0,1.021,3.355c.229.462.029.6-.635.66" transform="translate(-87.511 -201.1)" fill="#fbae17"/>
        <path id="Path_466" data-name="Path 466" d="M235.3,406.423a117.8,117.8,0,0,1-17.219,1.493,78.925,78.925,0,0,1-16.742-1.493c-.5,0-.905-.293-.905-.654s.4-.654.905-.654a144.979,144.979,0,0,0,16.742,1.493,170.4,170.4,0,0,0,17.219-1.493c.5,0,.9.293.9.654s-.405.654-.9.654" transform="translate(-124.217 -251.069)" fill="#9d7352"/>
        <path id="Path_467" data-name="Path 467" d="M212.19,176.376c-1.692,0-3.063.991-3.063,2.214v6.174C164.153,146.537,97.957,82,97.957,82h7.635c1.692,0,3.063-.991,3.063-2.214s-1.371-2.214-3.063-2.214H83.447c-1.692,0-3.063.991-3.063,2.214S81.755,82,83.447,82h6.012s81.285,83.68,111.36,103.748c0,0-85.434-.778-112.447-13.206v-6.8c0-1.223-1.372-2.214-3.063-2.214h0c-1.691,0-3.063.991-3.063,2.214v16.007c0,1.223,1.372,2.214,3.063,2.214h0c1.691,0,3.063-.991,3.063-2.214V177.5c10.406,3.576,47.559,14.381,114.953,13.72l5.8-1.128v4.5c0,1.223,1.372,2.214,3.063,2.214s3.063-.991,3.063-2.214V178.59c0-1.223-1.371-2.214-3.063-2.214" transform="translate(-49.818 -48.077)" fill="#314659"/>
      </g>
    </g>
  </g>
</svg>
