<svg xmlns="http://www.w3.org/2000/svg" xmlns:xlink="http://www.w3.org/1999/xlink" width="274.1" height="176.18" viewBox="0 0 274.1 176.18">
  <defs>
    <clipPath id="clip-path">
      <rect id="Rectangle_379" data-name="Rectangle 379" width="131.478" height="131.478" fill="none"/>
    </clipPath>
    <clipPath id="clip-path-3">
      <rect id="Rectangle_377" data-name="Rectangle 377" width="65.738" height="131.478" fill="none"/>
    </clipPath>
  </defs>
  <g id="Group_848" data-name="Group 848" transform="translate(0 0)">
    <path id="Path_432" data-name="Path 432" d="M0,0V174.662H155.953L256.817,0Z" fill="#fff"/>
    <path id="Path_433" data-name="Path 433" d="M526.73,3.991,427.045,178.654H437.9L538.76,3.991Z" transform="translate(-264.66 -2.474)" fill="#c90"/>
    <g id="Group_855" data-name="Group 855" transform="translate(26.078 18.074)">
      <g id="Group_854" data-name="Group 854" clip-path="url(#clip-path)">
        <g id="Group_853" data-name="Group 853">
          <g id="Group_852" data-name="Group 852" clip-path="url(#clip-path)">
            <path id="Path_480" data-name="Path 480" d="M65.738,0a65.739,65.739,0,1,0,65.74,65.738A65.739,65.739,0,0,0,65.738,0M45.493,40.065a27.093,27.093,0,0,1,16.1-6.894,3.719,3.719,0,0,1,1.566.737,6.218,6.218,0,0,1,.542.986V57.538a5.166,5.166,0,0,1-.45.859c-.128.07-.261.136-.395.2a4.78,4.78,0,0,1-1.081-.229L45.521,42.118a4.851,4.851,0,0,1-.2-.64,2.686,2.686,0,0,1,.174-1.413m-6.451,6.4a3.7,3.7,0,0,1,1.627-.585,6.193,6.193,0,0,1,1.081.314L57.763,62.209a5.358,5.358,0,0,1,.289.925c-.041.14-.089.282-.14.419a4.751,4.751,0,0,1-.925.6H34.006a4.368,4.368,0,0,1-.6-.31,2.68,2.68,0,0,1-.876-1.122,27.092,27.092,0,0,1,6.507-16.255m2.14,40.893a2.653,2.653,0,0,1-1.415-.15,27.094,27.094,0,0,1-7.173-15.974A3.711,3.711,0,0,1,33.3,69.66a6.227,6.227,0,0,1,.976-.559l22.64-.394a5.284,5.284,0,0,1,.868.435c.072.127.141.26.2.391a4.6,4.6,0,0,1-.21,1.085L41.819,87.148a4.788,4.788,0,0,1-.638.213m22.29,9.5a5.209,5.209,0,0,1-.319.592,2.673,2.673,0,0,1-1.136.859,27.1,27.1,0,0,1-16.16-6.736,3.738,3.738,0,0,1-.563-1.636,6.272,6.272,0,0,1,.329-1.076L61.86,73.076a5.2,5.2,0,0,1,.93-.276c.14.043.281.091.417.144a4.716,4.716,0,0,1,.589.935Zm4.311-61.962a6.133,6.133,0,0,1,.542-.986,3.712,3.712,0,0,1,1.564-.737,27.084,27.084,0,0,1,16.094,6.894,2.669,2.669,0,0,1,.175,1.413,4.641,4.641,0,0,1-.2.64L69.708,58.366a4.769,4.769,0,0,1-1.082.229c-.133-.062-.266-.128-.395-.2a5.241,5.241,0,0,1-.449-.859ZM85.621,91.57a27.1,27.1,0,0,1-16.162,6.736,2.692,2.692,0,0,1-1.136-.859,5.148,5.148,0,0,1-.318-.592l-.327-22.977a4.77,4.77,0,0,1,.59-.935c.137-.053.276-.1.418-.144a5.255,5.255,0,0,1,.929.276L85.854,88.858a6.474,6.474,0,0,1,.331,1.076,3.756,3.756,0,0,1-.564,1.636m6.088-4.36a2.651,2.651,0,0,1-1.415.15,4.846,4.846,0,0,1-.637-.213L73.694,70.617a4.845,4.845,0,0,1-.211-1.085c.065-.132.133-.264.206-.391a5.284,5.284,0,0,1,.866-.435L97.2,69.1a6.316,6.316,0,0,1,.977.559,3.7,3.7,0,0,1,.709,1.577A27.086,27.086,0,0,1,91.709,87.21m6.357-23.365a4.5,4.5,0,0,1-.6.31H74.49a4.762,4.762,0,0,1-.925-.6c-.052-.137-.1-.279-.14-.419a5.334,5.334,0,0,1,.291-.925L89.728,46.2a6.142,6.142,0,0,1,1.079-.314,3.707,3.707,0,0,1,1.629.585,27.106,27.106,0,0,1,6.505,16.255,2.679,2.679,0,0,1-.875,1.122" fill="#363635"/>
            <path id="Path_481" data-name="Path 481" d="M65.738,0a65.739,65.739,0,1,0,65.74,65.738A65.739,65.739,0,0,0,65.738,0M45.493,40.065a27.093,27.093,0,0,1,16.1-6.894,3.719,3.719,0,0,1,1.566.737,6.218,6.218,0,0,1,.542.986V57.538a5.166,5.166,0,0,1-.45.859c-.128.07-.261.136-.395.2a4.78,4.78,0,0,1-1.081-.229L45.521,42.118a4.851,4.851,0,0,1-.2-.64,2.686,2.686,0,0,1,.174-1.413m-6.451,6.4a3.7,3.7,0,0,1,1.627-.585,6.193,6.193,0,0,1,1.081.314L57.763,62.209a5.358,5.358,0,0,1,.289.925c-.041.14-.089.282-.14.419a4.751,4.751,0,0,1-.925.6H34.006a4.368,4.368,0,0,1-.6-.31,2.68,2.68,0,0,1-.876-1.122,27.092,27.092,0,0,1,6.507-16.255m2.14,40.893a2.653,2.653,0,0,1-1.415-.15,27.094,27.094,0,0,1-7.173-15.974A3.711,3.711,0,0,1,33.3,69.66a6.227,6.227,0,0,1,.976-.559l22.64-.394a5.284,5.284,0,0,1,.868.435c.072.127.141.26.2.391a4.6,4.6,0,0,1-.21,1.085L41.819,87.148a4.788,4.788,0,0,1-.638.213m22.29,9.5a5.209,5.209,0,0,1-.319.592,2.673,2.673,0,0,1-1.136.859,27.1,27.1,0,0,1-16.16-6.736,3.738,3.738,0,0,1-.563-1.636,6.272,6.272,0,0,1,.329-1.076L61.86,73.076a5.2,5.2,0,0,1,.93-.276c.14.043.281.091.417.144a4.716,4.716,0,0,1,.589.935Zm4.311-61.962a6.133,6.133,0,0,1,.542-.986,3.712,3.712,0,0,1,1.564-.737,27.084,27.084,0,0,1,16.094,6.894,2.669,2.669,0,0,1,.175,1.413,4.641,4.641,0,0,1-.2.64L69.708,58.366a4.769,4.769,0,0,1-1.082.229c-.133-.062-.266-.128-.395-.2a5.241,5.241,0,0,1-.449-.859ZM85.621,91.57a27.1,27.1,0,0,1-16.162,6.736,2.692,2.692,0,0,1-1.136-.859,5.148,5.148,0,0,1-.318-.592l-.327-22.977a4.77,4.77,0,0,1,.59-.935c.137-.053.276-.1.418-.144a5.255,5.255,0,0,1,.929.276L85.854,88.858a6.474,6.474,0,0,1,.331,1.076,3.756,3.756,0,0,1-.564,1.636m6.088-4.36a2.651,2.651,0,0,1-1.415.15,4.846,4.846,0,0,1-.637-.213L73.694,70.617a4.845,4.845,0,0,1-.211-1.085c.065-.132.133-.264.206-.391a5.284,5.284,0,0,1,.866-.435L97.2,69.1a6.316,6.316,0,0,1,.977.559,3.7,3.7,0,0,1,.709,1.577A27.086,27.086,0,0,1,91.709,87.21m6.357-23.365a4.5,4.5,0,0,1-.6.31H74.49a4.762,4.762,0,0,1-.925-.6c-.052-.137-.1-.279-.14-.419a5.334,5.334,0,0,1,.291-.925L89.728,46.2a6.142,6.142,0,0,1,1.079-.314,3.707,3.707,0,0,1,1.629.585,27.106,27.106,0,0,1,6.505,16.255,2.679,2.679,0,0,1-.875,1.122" fill="#222"/>
            <path id="Path_482" data-name="Path 482" d="M104.624,60.022a44.6,44.6,0,1,0,44.605,44.6,44.6,44.6,0,0,0-44.605-44.6M84.379,78.952a27.094,27.094,0,0,1,16.1-6.894,3.719,3.719,0,0,1,1.566.737,6.2,6.2,0,0,1,.542.986V96.426a5.166,5.166,0,0,1-.45.859c-.128.07-.261.136-.395.2a4.8,4.8,0,0,1-1.081-.229L84.408,81.005a4.885,4.885,0,0,1-.2-.64,2.688,2.688,0,0,1,.175-1.413m-6.451,6.4a3.7,3.7,0,0,1,1.627-.585,6.193,6.193,0,0,1,1.081.314L96.649,101.1a5.379,5.379,0,0,1,.289.925c-.041.14-.089.282-.14.419a4.8,4.8,0,0,1-.925.6H72.892a4.433,4.433,0,0,1-.6-.31,2.681,2.681,0,0,1-.875-1.123,27.089,27.089,0,0,1,6.507-16.255m2.14,40.893a2.662,2.662,0,0,1-1.415-.15,27.1,27.1,0,0,1-7.173-15.974,3.7,3.7,0,0,1,.711-1.577,6.256,6.256,0,0,1,.976-.56l22.64-.394a5.245,5.245,0,0,1,.868.435c.071.127.141.259.2.391a4.64,4.64,0,0,1-.21,1.085l-15.962,16.53a4.738,4.738,0,0,1-.638.213m22.29,9.5a5.178,5.178,0,0,1-.32.592,2.669,2.669,0,0,1-1.136.859,27.1,27.1,0,0,1-16.16-6.736,3.729,3.729,0,0,1-.563-1.636,6.231,6.231,0,0,1,.329-1.076l16.238-15.782a5.2,5.2,0,0,1,.93-.276c.14.043.281.091.417.144a4.7,4.7,0,0,1,.589.935Zm27.336-50.973a3.707,3.707,0,0,1,1.629.585,27.1,27.1,0,0,1,6.5,16.255,2.677,2.677,0,0,1-.875,1.123,4.537,4.537,0,0,1-.6.31H113.377a4.785,4.785,0,0,1-.925-.6c-.052-.137-.1-.279-.14-.419a5.324,5.324,0,0,1,.291-.925l16.013-16.012a6.154,6.154,0,0,1,1.079-.314M106.668,73.781a6.147,6.147,0,0,1,.542-.986,3.712,3.712,0,0,1,1.564-.737,27.086,27.086,0,0,1,16.094,6.894,2.674,2.674,0,0,1,.175,1.413,4.624,4.624,0,0,1-.2.64L108.594,97.254a4.787,4.787,0,0,1-1.082.229c-.133-.062-.266-.128-.395-.2a5.269,5.269,0,0,1-.449-.859Zm17.839,56.676a27.107,27.107,0,0,1-16.162,6.736,2.693,2.693,0,0,1-1.136-.859,5.17,5.17,0,0,1-.318-.592l-.327-22.977a4.754,4.754,0,0,1,.59-.935c.137-.053.276-.1.418-.144a5.262,5.262,0,0,1,.929.276l16.237,15.782a6.463,6.463,0,0,1,.331,1.076,3.756,3.756,0,0,1-.564,1.636m6.088-4.36a2.658,2.658,0,0,1-1.415.15,4.778,4.778,0,0,1-.637-.213L112.58,109.5a4.848,4.848,0,0,1-.211-1.085c.065-.132.133-.263.206-.391a5.256,5.256,0,0,1,.866-.435l22.64.394a6.362,6.362,0,0,1,.977.56,3.693,3.693,0,0,1,.71,1.577A27.089,27.089,0,0,1,130.6,126.1" transform="translate(-38.886 -38.888)"/>
            <path id="Path_483" data-name="Path 483" d="M111.767,71.046a40.722,40.722,0,1,0,40.722,40.722,40.722,40.722,0,0,0-40.722-40.722M91.522,86.095a27.094,27.094,0,0,1,16.1-6.894,3.719,3.719,0,0,1,1.566.737,6.2,6.2,0,0,1,.542.986v22.644a5.167,5.167,0,0,1-.45.859c-.128.07-.261.136-.395.2a4.8,4.8,0,0,1-1.081-.229L91.551,88.148a4.885,4.885,0,0,1-.2-.64,2.688,2.688,0,0,1,.175-1.413m-6.451,6.4a3.7,3.7,0,0,1,1.627-.585,6.192,6.192,0,0,1,1.081.314l16.013,16.012a5.379,5.379,0,0,1,.289.925c-.041.14-.089.282-.14.419a4.8,4.8,0,0,1-.925.6H80.035a4.434,4.434,0,0,1-.6-.31,2.68,2.68,0,0,1-.875-1.123A27.089,27.089,0,0,1,85.071,92.5m2.14,40.893a2.662,2.662,0,0,1-1.415-.15,27.1,27.1,0,0,1-7.173-15.974,3.7,3.7,0,0,1,.711-1.577,6.256,6.256,0,0,1,.976-.56l22.64-.394a5.245,5.245,0,0,1,.868.434c.071.127.141.259.2.391a4.64,4.64,0,0,1-.21,1.085l-15.962,16.53a4.737,4.737,0,0,1-.638.213m22.29,9.5a5.178,5.178,0,0,1-.32.592,2.669,2.669,0,0,1-1.136.859,27.1,27.1,0,0,1-16.16-6.736,3.729,3.729,0,0,1-.563-1.636,6.231,6.231,0,0,1,.329-1.076l16.238-15.782a5.2,5.2,0,0,1,.93-.276c.14.043.281.091.417.144a4.7,4.7,0,0,1,.589.935Zm27.336-50.973a3.707,3.707,0,0,1,1.629.585,27.1,27.1,0,0,1,6.5,16.255,2.677,2.677,0,0,1-.875,1.123,4.537,4.537,0,0,1-.6.31H120.52a4.785,4.785,0,0,1-.925-.6c-.052-.137-.1-.279-.14-.419a5.324,5.324,0,0,1,.291-.925l16.013-16.012a6.154,6.154,0,0,1,1.079-.314M113.811,80.924a6.146,6.146,0,0,1,.542-.986,3.712,3.712,0,0,1,1.564-.737,27.086,27.086,0,0,1,16.094,6.894,2.674,2.674,0,0,1,.175,1.413,4.623,4.623,0,0,1-.2.64L115.737,104.4a4.787,4.787,0,0,1-1.082.229c-.133-.062-.266-.128-.395-.2a5.27,5.27,0,0,1-.449-.859ZM131.65,137.6a27.107,27.107,0,0,1-16.162,6.736,2.693,2.693,0,0,1-1.136-.859,5.17,5.17,0,0,1-.318-.592l-.327-22.977a4.753,4.753,0,0,1,.59-.935c.137-.053.276-.1.418-.144a5.262,5.262,0,0,1,.929.276l16.237,15.782a6.466,6.466,0,0,1,.331,1.076,3.756,3.756,0,0,1-.564,1.636m6.088-4.36a2.658,2.658,0,0,1-1.415.15,4.779,4.779,0,0,1-.637-.213l-15.964-16.53a4.849,4.849,0,0,1-.211-1.085c.065-.132.133-.263.206-.391a5.255,5.255,0,0,1,.866-.434l22.64.394a6.362,6.362,0,0,1,.977.56,3.692,3.692,0,0,1,.71,1.577,27.089,27.089,0,0,1-7.173,15.974" transform="translate(-46.029 -46.03)" fill="#d5d3cb"/>
            <path id="Path_484" data-name="Path 484" d="M176.652,164.693a11.96,11.96,0,1,1-11.962-11.961,11.96,11.96,0,0,1,11.962,11.961" transform="translate(-98.953 -98.953)" fill="#d5d3cb"/>
            <path id="Path_485" data-name="Path 485" d="M183.227,179.095a4.133,4.133,0,1,1-4.133-4.133,4.133,4.133,0,0,1,4.133,4.133" transform="translate(-113.356 -113.356)" fill="#009245"/>
            <path id="Path_486" data-name="Path 486" d="M203.216,167.25a1.488,1.488,0,1,1-1.488-1.488,1.487,1.487,0,0,1,1.488,1.488" transform="translate(-129.732 -107.395)" fill="#4c4c49"/>
            <path id="Path_487" data-name="Path 487" d="M185.6,161.214a1.488,1.488,0,1,1-1.488-1.489,1.489,1.489,0,0,1,1.488,1.489" transform="translate(-118.323 -103.484)" fill="#4c4c49"/>
            <path id="Path_488" data-name="Path 488" d="M167.675,167.9a1.489,1.489,0,1,1-1.489-1.488,1.488,1.488,0,0,1,1.489,1.488" transform="translate(-106.706 -107.816)" fill="#4c4c49"/>
            <path id="Path_489" data-name="Path 489" d="M203.216,204.224a1.488,1.488,0,1,0-1.488,1.489,1.488,1.488,0,0,0,1.488-1.489" transform="translate(-129.732 -131.35)" fill="#4c4c49"/>
            <path id="Path_490" data-name="Path 490" d="M211.5,186.569a1.489,1.489,0,1,0-1.488,1.488,1.488,1.488,0,0,0,1.488-1.488" transform="translate(-135.102 -119.912)" fill="#4c4c49"/>
            <path id="Path_491" data-name="Path 491" d="M159.388,186.569a1.489,1.489,0,1,0-1.489,1.488,1.488,1.488,0,0,0,1.489-1.488" transform="translate(-101.336 -119.912)" fill="#4c4c49"/>
            <path id="Path_492" data-name="Path 492" d="M185.6,210.263a1.488,1.488,0,1,0-1.488,1.488,1.488,1.488,0,0,0,1.488-1.488" transform="translate(-118.323 -135.262)" fill="#4c4c49"/>
            <path id="Path_493" data-name="Path 493" d="M167.675,203.579a1.489,1.489,0,1,0-1.489,1.489,1.488,1.488,0,0,0,1.489-1.489" transform="translate(-106.706 -130.932)" fill="#4c4c49"/>
            <g id="Group_851" data-name="Group 851" style="mix-blend-mode: overlay;isolation: isolate">
              <g id="Group_850" data-name="Group 850">
                <g id="Group_849" data-name="Group 849" clip-path="url(#clip-path-3)">
                  <path id="Path_494" data-name="Path 494" d="M0,65.738a65.739,65.739,0,0,0,65.737,65.74V0A65.739,65.739,0,0,0,0,65.738M45.493,40.065a27.1,27.1,0,0,1,16.1-6.894,3.717,3.717,0,0,1,1.565.737,6.148,6.148,0,0,1,.543.986V57.538a5.167,5.167,0,0,1-.45.859c-.128.07-.261.136-.395.2a4.776,4.776,0,0,1-1.081-.229L45.522,42.118a4.779,4.779,0,0,1-.2-.64,2.684,2.684,0,0,1,.174-1.413m-6.451,6.4a3.7,3.7,0,0,1,1.627-.585,6.192,6.192,0,0,1,1.081.314L57.763,62.209a5.411,5.411,0,0,1,.289.925c-.042.14-.089.282-.141.419a4.779,4.779,0,0,1-.925.6H34.007a4.41,4.41,0,0,1-.6-.31,2.678,2.678,0,0,1-.875-1.123,27.091,27.091,0,0,1,6.506-16.255m2.14,40.893a2.658,2.658,0,0,1-1.415-.15,27.1,27.1,0,0,1-7.173-15.974A3.707,3.707,0,0,1,33.3,69.66a6.223,6.223,0,0,1,.976-.559l22.64-.394a5.232,5.232,0,0,1,.868.435c.071.127.141.26.2.391a4.637,4.637,0,0,1-.21,1.085L41.82,87.147a4.755,4.755,0,0,1-.638.213m22.29,9.5a5.266,5.266,0,0,1-.32.592,2.672,2.672,0,0,1-1.136.859,27.1,27.1,0,0,1-16.16-6.736,3.729,3.729,0,0,1-.563-1.636,6.211,6.211,0,0,1,.33-1.076L61.861,73.076a5.22,5.22,0,0,1,.93-.276c.14.043.28.091.417.144a4.7,4.7,0,0,1,.589.935Z" transform="translate(-0.001)" fill="#4d4d4d"/>
                </g>
              </g>
            </g>
          </g>
        </g>
      </g>
    </g>
  </g>
</svg>
