<svg xmlns="http://www.w3.org/2000/svg" xmlns:xlink="http://www.w3.org/1999/xlink" width="274.1" height="176.18" viewBox="0 0 274.1 176.18">
  <defs>
    <clipPath id="clip-path">
      <rect id="Rectangle_399" data-name="Rectangle 399" width="170.281" height="105.002" fill="none"/>
    </clipPath>
  </defs>
  <g id="Group_863" data-name="Group 863" transform="translate(0 0)">
    <path id="Path_432" data-name="Path 432" d="M0,0V174.662H155.953L256.817,0Z" fill="#fff"/>
    <path id="Path_433" data-name="Path 433" d="M526.73,3.991,427.045,178.654H437.9L538.76,3.991Z" transform="translate(-264.66 -2.474)" fill="#c4946b"/>
    <g id="Group_869" data-name="Group 869" transform="translate(16.078 36.074)">
      <g id="Group_868" data-name="Group 868" clip-path="url(#clip-path)">
        <path id="Path_643" data-name="Path 643" d="M54.618,102.819C46.727,96.072,8.315,65.232,1.629,59.2,1.1,58.73.538,58.164,0,57.627c4.3-3.9,28.663-34.751,90.522-34.751,43.328,0,74.666,30.179,78.729,33.826,1.484,1.332,1.276,2.184-.05,3.5q-21.379,21.251-42.656,42.6c-1.362,1.362-2.674,2.774-4,4.171a1.29,1.29,0,0,1-2.108.118,53.992,53.992,0,0,0-15-9.8,50.7,50.7,0,0,0-17.624-4.122,51.379,51.379,0,0,0-18.987,2.571,42.822,42.822,0,0,0-12,5.981,4.925,4.925,0,0,1-2.2,1.091" transform="translate(0 -13.771)" fill="#1cd9df"/>
        <path id="Path_644" data-name="Path 644" d="M171.639,166.911l-24.4-47.859a2.3,2.3,0,0,1,.982-3.1l.266-.139a2.3,2.3,0,0,1,3.1.982l24.4,47.859a2.3,2.3,0,0,1-.981,3.1l-.267.139a2.3,2.3,0,0,1-3.1-.982" transform="translate(-88.483 -69.564)" fill="#03246a"/>
        <path id="Path_645" data-name="Path 645" d="M286.877,21.136a2.362,2.362,0,0,0,0-.249c-.587-7.39-13.338-20.4-13.338-20.4L273.115,0l-.424.485s-9.6,9.737-12.768,18.56a9.839,9.839,0,0,0-.961,4.222c0,6.423,6.3,11.629,14.077,11.629s14.077-5.207,14.077-11.629a9.711,9.711,0,0,0-.24-2.131" transform="translate(-155.895)" fill="#168afc"/>
        <path id="Path_646" data-name="Path 646" d="M213.492,234.472a7.292,7.292,0,1,1-7.293-7.293,7.293,7.293,0,0,1,7.293,7.293" transform="translate(-119.742 -136.762)" fill="#003c97"/>
      </g>
    </g>
  </g>
</svg>
