<svg id="Group_784" data-name="Group 784" xmlns="http://www.w3.org/2000/svg" xmlns:xlink="http://www.w3.org/1999/xlink" width="81.883" height="60.494" viewBox="0 0 81.883 60.494">
  <defs>
    <clipPath id="clip-path">
      <rect id="Rectangle_345" data-name="Rectangle 345" width="81.883" height="60.494" fill="none"/>
    </clipPath>
  </defs>
  <g id="Group_783" data-name="Group 783" clip-path="url(#clip-path)">
    <path id="Path_349" data-name="Path 349" d="M11.973,86.053l23.274-.878V110.8h-.806q-13.673,0-27.346.01a3.641,3.641,0,0,1-3.3-1.689,22.308,22.308,0,0,1-3.776-11.7,8.185,8.185,0,0,1,3.689-7.235c.2-.143.391-.292.585-.442.014-.011.01-.043.028-.13-.345-.061-.7-.111-1.04-.188A4.266,4.266,0,0,1,.264,87.163a1.646,1.646,0,0,1,1.5-2.575c1.325-.043,2.653-.027,3.98,0a2.6,2.6,0,0,1,2.092,1.2,1.107,1.107,0,0,0,.8.414c.218-.009.513-.306.619-.545a71.825,71.825,0,0,1,5.221-9.889,12.519,12.519,0,0,1,8.148-5.694,58.114,58.114,0,0,1,12.132-1.328,4.369,4.369,0,0,1,.485.053V71.4c-1.1,0-2.192-.043-3.284.008A41.555,41.555,0,0,0,21.8,73a8.262,8.262,0,0,0-4.409,3.14,52.526,52.526,0,0,0-5.393,9.786.235.235,0,0,0-.02.123m4,19.608a28.951,28.951,0,0,0,3.61-.88,1.637,1.637,0,0,0,.817-2.6,6.126,6.126,0,0,0-1.208-1.469,14.945,14.945,0,0,0-7.2-3.493,7.423,7.423,0,0,0-1.83-.088A1.618,1.618,0,0,0,8.483,98.6a19.391,19.391,0,0,0-.022,3.354,2.935,2.935,0,0,0,2.13,2.564,22.712,22.712,0,0,0,5.379,1.143" transform="translate(0 -58.604)" fill="#006838"/>
    <path id="Path_350" data-name="Path 350" d="M250.16,90.828h39.612V41.764h-7.988V38.971c.236-.014.429-.037.622-.037q4.312,0,8.623,0c1.151,0,1.657.511,1.657,1.675q0,25.686,0,51.372c0,1.2-.5,1.7-1.713,1.7q-21.005.005-42.01,0c-1.273,0-1.7-.494-1.7-1.928q0-16.731,0-33.462,0-8.66,0-17.32c0-1.664.374-2.036,2.032-2.037h8.642v2.79H250.16Z" transform="translate(-210.805 -33.191)" fill="#666"/>
    <path id="Path_351" data-name="Path 351" d="M335.075,4.118c.323-2.78,1.569-4.137,3.693-4.118s3.357,1.391,3.612,4.084c.246.011.505.032.764.033,1.744,0,3.488.02,5.232,0,.7-.009.98.293.972.969q-.021,1.842,0,3.685c.008.674-.276.977-.973.976q-9.727-.016-19.454,0c-.669,0-1.01-.24-1-.944.016-1.253.014-2.506,0-3.758-.008-.652.279-.932.934-.927,1.793.016,3.586,0,5.379,0h.841m5.7-.506a2.061,2.061,0,0,0-2.034-2.089A2.083,2.083,0,0,0,336.7,3.545a2.035,2.035,0,1,0,4.069.066" transform="translate(-279.576 0)" fill="#666"/>
    <path id="Path_352" data-name="Path 352" d="M31.062,360.19c1.18.1,2.242.253,3.305.268,2.621.038,5.244.012,7.978.012,0,.673,0,1.3,0,1.927,0,1.251.01,2.5,0,3.753a1.257,1.257,0,0,1-1.4,1.421q-4.231.022-8.463,0c-.81,0-1.383-.409-1.4-1.115-.046-2.125-.017-4.252-.017-6.268" transform="translate(-26.474 -307.087)" fill="#006838"/>
    <path id="Path_353" data-name="Path 353" d="M283.559,196.237v-10.8h10.748c.219,1.206.145,1.354-.968,1.924l-.076-.787h-8.6v8.513H293.3a22.607,22.607,0,0,0-.016-2.293,1.459,1.459,0,0,1,1.039-1.683v5.124Z" transform="translate(-241.754 -158.099)" fill="#666"/>
    <path id="Path_354" data-name="Path 354" d="M294.43,97.467v5.125H283.651V91.808h10.707c.295,1.149.227,1.3-.93,1.955l-.091-.834h-8.583v8.561h8.625a21.393,21.393,0,0,0-.019-2.373,1.481,1.481,0,0,1,1.069-1.65" transform="translate(-241.832 -78.273)" fill="#666"/>
    <path id="Path_355" data-name="Path 355" d="M284.815,288.577h8.622a22.018,22.018,0,0,0-.017-2.3,1.45,1.45,0,0,1,1.055-1.718v5.108H283.718v-10.8h10.723c.226,1.225.179,1.323-.966,1.964l-.076-.844h-8.584Z" transform="translate(-241.889 -237.755)" fill="#666"/>
    <rect id="Rectangle_336" data-name="Rectangle 336" width="20.516" height="1.009" transform="translate(56 32.238)" fill="#666"/>
    <rect id="Rectangle_337" data-name="Rectangle 337" width="20.5" height="1.022" transform="translate(56.041 37.106)" fill="#666"/>
    <rect id="Rectangle_338" data-name="Rectangle 338" width="20.511" height="1.008" transform="translate(56.003 13.548)" fill="#666"/>
    <rect id="Rectangle_339" data-name="Rectangle 339" width="20.541" height="0.999" transform="translate(56.01 27.343)" fill="#666"/>
    <rect id="Rectangle_340" data-name="Rectangle 340" width="20.515" height="1.008" transform="translate(56.025 41.127)" fill="#666"/>
    <rect id="Rectangle_341" data-name="Rectangle 341" width="20.515" height="0.993" transform="translate(56.012 18.441)" fill="#666"/>
    <rect id="Rectangle_342" data-name="Rectangle 342" width="20.517" height="0.983" transform="translate(56.01 23.336)" fill="#666"/>
    <rect id="Rectangle_343" data-name="Rectangle 343" width="20.517" height="0.987" transform="translate(56.01 46.027)" fill="#666"/>
    <rect id="Rectangle_344" data-name="Rectangle 344" width="20.503" height="0.962" transform="translate(56.038 50.925)" fill="#666"/>
    <path id="Path_359" data-name="Path 359" d="M391.547,12.417a2.035,2.035,0,1,1-4.069-.066,2.083,2.083,0,0,1,2.035-2.023,2.061,2.061,0,0,1,2.034,2.089" transform="translate(-330.352 -8.805)" fill="#fff"/>
  </g>
</svg>
