<svg id="Group_788" data-name="Group 788" xmlns="http://www.w3.org/2000/svg" xmlns:xlink="http://www.w3.org/1999/xlink" width="69.722" height="69.569" viewBox="0 0 69.722 69.569">
  <defs>
    <clipPath id="clip-path">
      <rect id="Rectangle_347" data-name="Rectangle 347" width="69.722" height="69.569" fill="none"/>
    </clipPath>
  </defs>
  <g id="Group_787" data-name="Group 787" clip-path="url(#clip-path)">
    <path id="Path_365" data-name="Path 365" d="M69.723,13.808A14.006,14.006,0,0,1,55.665,27.872a16,16,0,0,0-10.641,3.857,75.567,75.567,0,0,0-5.285,5.453Q25.452,52.3,11.175,67.436a6.183,6.183,0,0,1-6.319,1.917,6.023,6.023,0,0,1-4.6-4.52,6.043,6.043,0,0,1,1.75-6.287Q13.225,47.9,24.5,37.315c4.109-3.876,8.253-7.717,12.3-11.654a15.854,15.854,0,0,0,4.9-11.647A13.877,13.877,0,0,1,53.459.113a23.561,23.561,0,0,1,4.767.049,1.132,1.132,0,0,1,.854.6,1.253,1.253,0,0,1-.371.984c-1.926,1.973-3.89,3.91-5.837,5.863-1.224,1.228-1.22,2.252,0,3.478q2.865,2.868,5.735,5.729a2.03,2.03,0,0,0,3.236.014c1.955-1.944,3.889-3.909,5.864-5.833.282-.274.845-.6,1.092-.486A1.664,1.664,0,0,1,69.47,11.6a19.4,19.4,0,0,1,.253,2.213M9.468,63.219a3.05,3.05,0,1,0-6.1-.063,3.05,3.05,0,0,0,6.1.063" transform="translate(0 0)"/>
    <path id="Path_366" data-name="Path 366" d="M206.165,240.7l7.6-8.051c1.281,1.2,2.524,2.363,3.761,3.531q8.687,8.2,17.369,16.407a6.39,6.39,0,1,1-9.01,9.044q-9.6-10.148-19.184-20.32c-.167-.177-.324-.366-.539-.61" transform="translate(-172.042 -194.14)" fill="#006838"/>
    <path id="Path_367" data-name="Path 367" d="M14.3,147.8c-.386-.676-.793-1.3-1.108-1.963a1.335,1.335,0,0,1,.449-1.762c.679-.519,1.352-1.047,2.05-1.54a1.957,1.957,0,0,0,.8-2.318c-.209-.771-.431-1.54-.614-2.318a1.98,1.98,0,0,0-1.917-1.638c-.8-.081-1.591-.17-2.382-.285A1.374,1.374,0,0,1,10.2,134.44c-.022-1.3-.017-2.593.006-3.889a1.4,1.4,0,0,1,1.426-1.583q1.271-.167,2.545-.314a1.837,1.837,0,0,0,1.663-1.395c.259-.871.476-1.755.7-2.637a1.89,1.89,0,0,0-.792-2.172q-1.008-.723-1.988-1.485a1.42,1.42,0,0,1-.42-2.1q.953-1.693,1.951-3.362a1.405,1.405,0,0,1,1.905-.657A6.933,6.933,0,0,1,20.07,116.7c1.511,1.716,3.129,3.34,4.729,4.977a.765.765,0,0,1,.118,1.122,18.243,18.243,0,0,0-1.712,15.812.874.874,0,0,1-.2,1.091c-2.781,2.6-5.541,5.217-8.311,7.827a3.647,3.647,0,0,1-.393.273" transform="translate(-8.499 -95.722)"/>
    <path id="Path_368" data-name="Path 368" d="M111.666,50.858a18.819,18.819,0,0,0-16.795,2.035c-1.642-1.562-3.237-3.16-4.923-4.655a7.778,7.778,0,0,1-2.259-3.372,1.487,1.487,0,0,1,.717-2.086q1.6-.943,3.223-1.856a1.457,1.457,0,0,1,2.205.488q.721.957,1.434,1.92a1.859,1.859,0,0,0,2.172.765c.821-.233,1.648-.446,2.476-.653a1.89,1.89,0,0,0,1.551-1.8c.088-.849.2-1.7.319-2.542a1.372,1.372,0,0,1,1.5-1.321q1.984-.023,3.968,0a1.349,1.349,0,0,1,1.505,1.31c.133.843.222,1.693.313,2.542a1.9,1.9,0,0,0,1.542,1.809c.027.007.054.012.08.02,2.1.6,2.118.6,2.016,2.8a12.165,12.165,0,0,1-1.044,4.588" transform="translate(-73.04 -31.521)"/>
    <path id="Path_369" data-name="Path 369" d="M106.391,337.82c2.35-2.491,4.707-4.851,6.893-7.36,1.155-1.326,2.169-1.85,4.029-1.325a16.348,16.348,0,0,0,9.376-.431,1.105,1.105,0,0,1,.933.134c2.771,2.879,5.507,5.79,8.35,8.8a19.493,19.493,0,0,1-1.84.989,1.253,1.253,0,0,1-1.533-.5c-.557-.719-1.1-1.447-1.649-2.174a1.849,1.849,0,0,0-2.113-.732c-.879.233-1.759.463-2.634.71a1.81,1.81,0,0,0-1.4,1.649c-.106.875-.208,1.751-.326,2.625a1.38,1.38,0,0,1-1.483,1.355c-1.323.024-2.647.021-3.97,0a1.377,1.377,0,0,1-1.528-1.3c-.135-.843-.206-1.7-.312-2.543a1.893,1.893,0,0,0-1.606-1.843c-.823-.227-1.647-.454-2.475-.667a1.856,1.856,0,0,0-2.11.749c-.427.575-.863,1.144-1.29,1.719-.876,1.179-1.4,1.293-2.641.561-.189-.112-.373-.231-.668-.414" transform="translate(-88.782 -274.261)" fill="#006838"/>
    <path id="Path_370" data-name="Path 370" d="M300.949,181.794a13.643,13.643,0,0,1,6.309-1.131.649.649,0,0,1,.434.365,7.534,7.534,0,0,1,.318,1.11,1.9,1.9,0,0,0,1.765,1.587c.794.086,1.585.193,2.378.292,1.1.137,1.524.572,1.538,1.655q.026,1.859,0,3.719c-.016,1.124-.445,1.56-1.593,1.692q-1.231.142-2.46.3a1.776,1.776,0,0,0-1.573,1.379q-.376,1.31-.71,2.632a1.9,1.9,0,0,0,.787,2.174c.646.469,1.29.943,1.921,1.432a1.463,1.463,0,0,1,.454,2.217c-.223.409-.466.807-.747,1.29-.225-.18-.417-.312-.585-.47-2.667-2.511-5.322-5.035-8.006-7.528a1.107,1.107,0,0,1-.347-1.35,17.882,17.882,0,0,0,.207-10.653c-.046-.158-.087-.318-.12-.479a.948.948,0,0,1,.031-.233" transform="translate(-250.96 -150.749)" fill="#006838"/>
    <path id="Path_371" data-name="Path 371" d="M2.986,28.359c1.365.9,2.569,1.673,3.751,2.481a1.448,1.448,0,0,1,.48.638,9.621,9.621,0,0,0,2.413,3.417q9.8,9.324,19.583,18.666c.155.148.294.313.5.539l-2.626,2.485-5.925-6.209c-4.512-4.729-9-9.482-13.557-14.166A20.01,20.01,0,0,0,4.8,34.216a4.742,4.742,0,0,1-1.086-.929c-.656-.885-1.22-1.837-1.85-2.741-.282-.4-.318-.7.091-1.051a12.125,12.125,0,0,0,1.029-1.135" transform="translate(-1.378 -23.665)" fill="#006838"/>
  </g>
</svg>
