<svg id="Group_786" data-name="Group 786" xmlns="http://www.w3.org/2000/svg" xmlns:xlink="http://www.w3.org/1999/xlink" width="76.993" height="75.716" viewBox="0 0 76.993 75.716">
  <defs>
    <clipPath id="clip-path">
      <rect id="Rectangle_346" data-name="Rectangle 346" width="76.993" height="75.716" fill="none"/>
    </clipPath>
  </defs>
  <g id="Group_785" data-name="Group 785" clip-path="url(#clip-path)">
    <path id="Path_360" data-name="Path 360" d="M269.047,177.812c-.3-1.489-1.486-1.655-2.647-1.461-2.47.413-4.024-.6-4.988-2.8a18.253,18.253,0,0,0-.969-1.651,7.561,7.561,0,0,0-7.175-4.064c-2.821.034-2.486,0-5.308,0a4.725,4.725,0,0,1-.6,2.068s3.521.021,6.554.166a6.845,6.845,0,0,1,4.2,2.34,40.285,40.285,0,0,1,3.918,6.065c.968,1.612.667,2.143-1.23,2.154-5.183.029-10.365.01-15.548.01v.009h-.45v12.731q2.792-.013,5.581.093a1.531,1.531,0,0,1,1.509,1.481c-.031,1.044-1.016,1.312-1.59,1.376a45.991,45.991,0,0,1-5.074.066v-.007c-.142,0-.284,0-.427,0v2.732q6.911,0,13.821,0c.755,0,1.511.067,2.23.1.432,3.964.432,3.964,4.249,3.963h.213c3.128,0,3.13,0,3.134-3.24,0-2.627.025-5.254,0-7.881-.043-3.912-.029-7.843-2.563-11.43.633-.253.945-.414,1.277-.5,1.193-.322,2.189-.817,1.888-2.315m-5.932,12.578a21.6,21.6,0,0,1-2.641.018c-1.188-.183-3.322.7-3.659-1.688-.31-2.2,1.838-2.135,3.174-2.717a10.758,10.758,0,0,1,2.415-.786,2.62,2.62,0,1,1,.711,5.173" transform="translate(-212.495 -145.682)" fill="#006838"/>
    <path id="Path_361" data-name="Path 361" d="M342.917,35.254a36.81,36.81,0,0,1,7.751,29.961c-.057.315.024.435.3.538,1.166.428,2.326.876,3.578,1.35l-10.793,8.814-2.236-13.746,3.787,1.42c.1-.861.218-1.643.279-2.43a31.217,31.217,0,0,0-23.41-32.841A2.852,2.852,0,0,1,319.8,25.99a2.762,2.762,0,0,1,3.431-3.166,36.65,36.65,0,0,1,12.86,5.989,37.553,37.553,0,0,1,5.321,4.712c.059.063,1.427,1.635,1.5,1.729" transform="translate(-277.557 -19.735)" fill="#666"/>
    <path id="Path_362" data-name="Path 362" d="M114.964,433.685a4.865,4.865,0,0,0-1.208-1.52h0a1.366,1.366,0,0,0-.224-.155l0-.007-.055-.02a2.015,2.015,0,0,0-.451-.162l-.023-.008v0a3.376,3.376,0,0,0-.685-.078v0l-.031,0c-.11,0-.212,0-.3.007a1.4,1.4,0,0,0-.359.037h-.007a2.9,2.9,0,0,0-1.216.723,31.379,31.379,0,0,1-41.642,3.283l3.047-2.662L58.64,428.6l2.668,13.671,3.172-2.751a36.9,36.9,0,0,0,36.891,5.609l.01,0c.257-.1,2.32-.975,2.551-1.087l.017-.007h0a32.633,32.633,0,0,0,6.2-3.869c1.4-1.119,2.717-2.342,4.026-3.567a2.61,2.61,0,0,0,.787-2.913" transform="translate(-50.901 -372.038)" fill="#666" stroke="#666" stroke-width="1"/>
    <path id="Path_363" data-name="Path 363" d="M23.752,0c.22,1.291.408,2.5.644,3.706.074.375-.04.5-.369.622a33.7,33.7,0,0,0-5.721,2.7A36.651,36.651,0,0,0,3.643,22.91h0l-.061.13q-.384.8-.739,1.63c-.027.064-.053.13-.075.2a21.448,21.448,0,0,0-1.5,4.415h0A37.081,37.081,0,0,0,.13,42.042a36.313,36.313,0,0,0,1.659,8.234,2.8,2.8,0,1,0,5.3-1.771,30.7,30.7,0,0,1,.016-19.3A30.6,30.6,0,0,1,24.914,9.958c.153-.065.311-.118.509-.193l.692,3.964L36.823,4.817,23.752,0" transform="translate(0)" fill="#006838"/>
    <path id="Path_364" data-name="Path 364" d="M147.789,146.851c-.167.084-.335.164-.5.251a3.839,3.839,0,0,1-5.649-3.128c-.049-.7-.022-1.4-.022-2.1q0-12.218.011-24.436a1.091,1.091,0,0,0-.575-1.105,8.122,8.122,0,0,1-2.423-11.679,3.412,3.412,0,0,0,.222-.424l1.26-1.26,1.027-.617a6.255,6.255,0,0,1,.072.645c.006,1.728.018,3.456-.006,5.184a.929.929,0,0,0,.527.966c1.042.562,2.048,1.192,3.1,1.736a1.151,1.151,0,0,0,.921.011c1.049-.547,2.045-1.2,3.095-1.742a.89.89,0,0,0,.546-.942c-.02-1.674,0-3.348,0-5.022,0-.261.023-.521.037-.809a8.039,8.039,0,0,1,2.651,11.506,11.488,11.488,0,0,1-2.212,2.207,1.317,1.317,0,0,0-.567,1.2c.014,8.289.008,16.579.024,24.868a6.632,6.632,0,0,1-.739,3.891Zm-1.462-1.438a1.482,1.482,0,0,0-2.111-2.081,1.482,1.482,0,0,0,2.111,2.081" transform="translate(-119.025 -88.843)"/>
  </g>
</svg>
