<svg id="Group_1026" data-name="Group 1026" xmlns="http://www.w3.org/2000/svg" xmlns:xlink="http://www.w3.org/1999/xlink" width="77.055" height="74.355" viewBox="0 0 77.055 74.355">
  <defs>
    <clipPath id="clip-path">
      <rect id="Rectangle_527" data-name="Rectangle 527" width="77.055" height="74.355" fill="none"/>
    </clipPath>
  </defs>
  <g id="Group_1025" data-name="Group 1025" clip-path="url(#clip-path)">
    <path id="Path_836" data-name="Path 836" d="M101.284,37.173c0,11.491-.015,22.982.018,34.473a2.535,2.535,0,0,1-2.8,2.708c-3.522-.088-7.048-.009-10.573,0q-1.9,0-3.807,0a2.352,2.352,0,0,1-2.589-2.586q0-13.456,0-26.912,0-21.122,0-42.245A2.349,2.349,0,0,1,84.109,0Q91.38,0,98.65,0a2.35,2.35,0,0,1,2.634,2.646q0,12.108,0,24.216,0,5.154,0,10.309m-1.874.01v-9.3q0-12.609,0-25.217c0-.713-.078-.787-.791-.787H84.238c-.74,0-.828.086-.828.812q0,34.5,0,68.991c0,.727.09.817.822.817H98.455c.919,0,.954-.035.954-.95q0-17.182,0-34.364" transform="translate(-57.148 0)" fill="#c4c4c4"/>
    <path id="Path_837" data-name="Path 837" d="M160.334,114.117a6.388,6.388,0,0,1,4.351,1.931,5.4,5.4,0,0,0,1.465,1.093,2.891,2.891,0,0,0,3.445-.84,6.758,6.758,0,0,1,3.183-1.984,5.782,5.782,0,0,1,5.511,1.493c.184.163.348.349.524.522a3.077,3.077,0,0,0,4.637.012,2.155,2.155,0,0,1,.876-.533,1.331,1.331,0,0,1,1.515.693,1.474,1.474,0,0,1-.234,1.667,5.882,5.882,0,0,1-8.384.53c-.265-.231-.507-.489-.761-.732a3.031,3.031,0,0,0-4.618.1,6.274,6.274,0,0,1-4.336,2.146,6.034,6.034,0,0,1-4.666-1.984,7.188,7.188,0,0,0-.577-.541,2.954,2.954,0,0,0-3.958.058c-.214.182-.4.4-.629.562a1.413,1.413,0,0,1-1.834-.144,1.394,1.394,0,0,1-.076-1.879,6.14,6.14,0,0,1,4.566-2.167" transform="translate(-108.95 -79.987)" fill="#006837"/>
    <path id="Path_838" data-name="Path 838" d="M167.372,80.456a6.137,6.137,0,0,1-4.581-2.039,3.606,3.606,0,0,0-1.963-1.167,3.121,3.121,0,0,0-2.891,1.077,1.418,1.418,0,0,1-1.33.478,1.4,1.4,0,0,1-.8-2.334,5.779,5.779,0,0,1,7.1-1.449,7.762,7.762,0,0,1,1.81,1.347c1.676,1.666,3.362,1.705,5.01.043a5.892,5.892,0,0,1,8.926,0c1.587,1.611,3.232,1.644,4.856.1a1.407,1.407,0,0,1,2.067-.1,1.437,1.437,0,0,1-.085,2.115,5.883,5.883,0,0,1-8.628.1,7.9,7.9,0,0,0-.854-.787,3.027,3.027,0,0,0-4.259.546,6.117,6.117,0,0,1-4.376,2.074" transform="translate(-108.943 -52.123)" fill="#006837"/>
    <path id="Path_839" data-name="Path 839" d="M180.35,160.02a5.973,5.973,0,0,1-3.583-1.933,3.978,3.978,0,0,0-1.923-1.241,3.09,3.09,0,0,0-3.039,1.063,6.572,6.572,0,0,1-2.595,1.765,5.731,5.731,0,0,1-5.9-1.2c-.282-.238-.528-.517-.8-.77a3.021,3.021,0,0,0-4.4.023c-.089.085-.17.179-.261.262a1.413,1.413,0,0,1-1.963.025,1.385,1.385,0,0,1-.086-1.954,6.011,6.011,0,0,1,4.13-2.1,5.878,5.878,0,0,1,4.516,1.684c.195.178.373.375.563.558a3.033,3.033,0,0,0,4.478.025,13.253,13.253,0,0,1,1.171-1.064,5.815,5.815,0,0,1,7.751.56,9.032,9.032,0,0,0,.932.854,2.9,2.9,0,0,0,3.7-.078c.194-.151.371-.325.549-.494a1.4,1.4,0,0,1,1.952-.076,1.434,1.434,0,0,1,.076,2.041,6.686,6.686,0,0,1-5.263,2.047" transform="translate(-108.949 -107.904)" fill="#006837"/>
    <path id="Path_840" data-name="Path 840" d="M24.7,87.717a1.927,1.927,0,1,1-1.9,1.946,1.956,1.956,0,0,1,1.9-1.946" transform="translate(-15.977 -61.483)" fill="#c1272d"/>
    <path id="Path_841" data-name="Path 841" d="M0,101.605a1.912,1.912,0,0,1,1.927-1.9,1.931,1.931,0,0,1-.006,3.861A1.906,1.906,0,0,1,0,101.605" transform="translate(0 -69.885)" fill="#c1272d"/>
    <path id="Path_842" data-name="Path 842" d="M10.228,141.561a1.916,1.916,0,1,1,1.953-1.932,1.927,1.927,0,0,1-1.953,1.932" transform="translate(-5.832 -96.537)" fill="#c1272d"/>
    <path id="Path_843" data-name="Path 843" d="M45.171,144.106a1.917,1.917,0,1,1-1.948,1.873,1.888,1.888,0,0,1,1.948-1.873" transform="translate(-30.296 -101.007)" fill="#c1272d"/>
    <path id="Path_844" data-name="Path 844" d="M3.868,171.773a1.929,1.929,0,1,1,0,3.857,1.929,1.929,0,0,1,0-3.857" transform="translate(-1.367 -120.399)" fill="#c1272d"/>
    <path id="Path_845" data-name="Path 845" d="M49.446,184.732a1.9,1.9,0,0,1-1.869-1.953,1.93,1.93,0,1,1,1.869,1.953" transform="translate(-33.347 -126.799)" fill="#c1272d"/>
    <path id="Path_846" data-name="Path 846" d="M34.216,42.61a1.921,1.921,0,0,1-3.841-.012,1.918,1.918,0,0,1,1.9-1.937,1.94,1.94,0,0,1,1.944,1.949" transform="translate(-21.29 -28.5)" fill="#c1272d"/>
    <path id="Path_847" data-name="Path 847" d="M51.522,112.61a1.879,1.879,0,0,1,1.933,1.879,1.918,1.918,0,1,1-1.933-1.879" transform="translate(-34.779 -78.93)" fill="#c1272d"/>
    <path id="Path_848" data-name="Path 848" d="M5.792,62.678a1.949,1.949,0,0,1-1.94,1.957,1.931,1.931,0,0,1,0-3.862,1.951,1.951,0,0,1,1.939,1.9" transform="translate(-1.359 -42.597)" fill="#c1272d"/>
    <path id="Path_849" data-name="Path 849" d="M22.736,203.5a1.918,1.918,0,1,1,.018-3.835,1.918,1.918,0,0,1-.018,3.835" transform="translate(-14.588 -139.946)" fill="#c1272d"/>
    <path id="Path_850" data-name="Path 850" d="M53.456,75.6a1.918,1.918,0,1,1-1.913-1.9,1.88,1.88,0,0,1,1.913,1.9" transform="translate(-34.78 -51.66)" fill="#c1272d"/>
    <path id="Path_851" data-name="Path 851" d="M95.7,24.751a3.71,3.71,0,0,1-.738,2.162,2.326,2.326,0,0,0,.008,3.3,3.493,3.493,0,0,1-.073,4.355,2.29,2.29,0,0,0-.022,3.09,3.491,3.491,0,0,1-.011,4.522,2.292,2.292,0,0,0,.007,3.049,3.482,3.482,0,0,1,.058,4.439,2.3,2.3,0,0,0-.016,3.173,3.506,3.506,0,0,1-.019,4.444,2.291,2.291,0,0,0-.015,3.09,3.484,3.484,0,0,1,.044,4.441,2.318,2.318,0,0,0,.02,3.217,3.465,3.465,0,0,1,.008,4.312,2.347,2.347,0,0,0,.028,3.3,3.511,3.511,0,0,1,.009,4.231c-.253.331-.547.548-.935.273s-.317-.608-.074-.968a2.264,2.264,0,0,0-.1-2.965,3.485,3.485,0,0,1,.007-4.48,2.3,2.3,0,0,0-.008-3.093,3.5,3.5,0,0,1,.007-4.482,2.287,2.287,0,0,0-.01-3.089,3.511,3.511,0,0,1,.009-4.484,2.276,2.276,0,0,0-.01-3.086,3.528,3.528,0,0,1-.026-4.448,2.284,2.284,0,0,0-.007-3.169,3.49,3.49,0,0,1-.016-4.358,2.288,2.288,0,0,0,.008-3.213,3.508,3.508,0,0,1,.028-4.4,2.3,2.3,0,0,0,.009-3.135,3.492,3.492,0,0,1-.007-4.438,2.3,2.3,0,0,0-.029-3.173,3.423,3.423,0,0,1-.088-4.221,2.446,2.446,0,0,0,.163-3.274.558.558,0,0,1,.118-.841.59.59,0,0,1,.878.151,3.526,3.526,0,0,1,.319,3.959,6.2,6.2,0,0,1-.391.563,2.268,2.268,0,0,0,.01,2.964,3.841,3.841,0,0,1,.858,2.281" transform="translate(-65.231 -10.301)" fill="#333"/>
    <path id="Path_852" data-name="Path 852" d="M112.784,17.22a3.552,3.552,0,0,1-.792,2.2,2.277,2.277,0,0,0-.023,3.088A3.521,3.521,0,0,1,112,27a2.254,2.254,0,0,0,.011,3.124,3.5,3.5,0,0,1,.044,4.356,2.329,2.329,0,0,0,.015,3.3,3.517,3.517,0,0,1-.074,4.359,2.306,2.306,0,0,0,.041,3.168,3.511,3.511,0,0,1,.085,4.23c-.994,1.382-1,2.064-.017,3.426a3.494,3.494,0,0,1-.052,4.23,2.318,2.318,0,0,0-.008,3.261,3.485,3.485,0,0,1-.06,4.4,2.3,2.3,0,0,0,.03,3.133,3.5,3.5,0,0,1,.066,4.315,2.337,2.337,0,0,0,0,3.342,3.531,3.531,0,0,1,.006,4.235c-.254.334-.559.536-.941.264s-.313-.6-.064-.965a2.249,2.249,0,0,0-.074-2.92,3.507,3.507,0,0,1,.009-4.571,2.273,2.273,0,0,0-.008-3,3.5,3.5,0,0,1,.013-4.566,2.273,2.273,0,0,0,.016-2.964,3.513,3.513,0,0,1,.018-4.653,2.271,2.271,0,0,0-.019-2.924,3.494,3.494,0,0,1-.007-4.605,2.18,2.18,0,0,0,.059-2.87,3.719,3.719,0,0,1,.023-4.841,2.07,2.07,0,0,0-.022-2.735,3.666,3.666,0,0,1-.007-4.792,2.18,2.18,0,0,0-.017-2.83,3.515,3.515,0,0,1-.006-4.693,2.252,2.252,0,0,0,0-2.878,3.5,3.5,0,0,1,0-4.69,2.271,2.271,0,0,0,.062-2.8c-.039-.059-.085-.113-.123-.172a.6.6,0,0,1,.962-.726,3.422,3.422,0,0,1,.825,2.28" transform="translate(-77.211 -10.294)" fill="#333"/>
    <path id="Path_853" data-name="Path 853" d="M129.849,16.889a3.774,3.774,0,0,1-.732,2.458,2.315,2.315,0,0,0,0,3.254,3.515,3.515,0,0,1-.032,4.362,2.3,2.3,0,0,0,0,3.172,3.393,3.393,0,0,1,.046,4.3,2.523,2.523,0,0,0,.01,3.362,3.373,3.373,0,0,1,.134,4q-.173.266-.357.523a2.163,2.163,0,0,0,.022,2.744,3.694,3.694,0,0,1-.013,4.836,2.178,2.178,0,0,0,.132,2.911,3.418,3.418,0,0,1,.639,3.231,4.615,4.615,0,0,1-.694,1.29,2.317,2.317,0,0,0,.021,3.012,3.5,3.5,0,0,1,.048,4.482A2.307,2.307,0,0,0,129.095,68a3.516,3.516,0,0,1,.013,4.358,2.312,2.312,0,0,0-.013,3.215,3.538,3.538,0,0,1,.075,4.276c-.325.427-.671.535-.977.279-.363-.3-.27-.621-.03-.973a2.254,2.254,0,0,0-.1-2.921,3.484,3.484,0,0,1,.009-4.522,2.291,2.291,0,0,0,.021-3.01,3.506,3.506,0,0,1,0-4.611,2.269,2.269,0,0,0,0-2.962,3.478,3.478,0,0,1,.009-4.6,2.285,2.285,0,0,0-.016-2.966,3.5,3.5,0,0,1,.016-4.609,2.284,2.284,0,0,0,.02-2.926,3.52,3.52,0,0,1,.015-4.693,2.269,2.269,0,0,0,.014-2.834,3.512,3.512,0,0,1,.013-4.776,2.138,2.138,0,0,0,0-2.743,3.726,3.726,0,0,1,.016-4.883,2.044,2.044,0,0,0-.016-2.69,3.7,3.7,0,0,1,.019-4.882A2.136,2.136,0,0,0,128.3,16c-.073-.12-.169-.226-.241-.347a.574.574,0,0,1,.143-.839.565.565,0,0,1,.838.134,3.22,3.22,0,0,1,.806,1.94" transform="translate(-89.175 -10.292)" fill="#333"/>
  </g>
</svg>
