<svg xmlns="http://www.w3.org/2000/svg" xmlns:xlink="http://www.w3.org/1999/xlink" width="110.189" height="84.836" viewBox="0 0 110.189 84.836">
  <defs>
    <clipPath id="clip-path">
      <rect id="Rectangle_398" data-name="Rectangle 398" width="110.189" height="84.836" fill="none"/>
    </clipPath>
  </defs>
  <g id="Group_861" data-name="Group 861" transform="translate(1.656 -12.723)">
    <g id="Group_867" data-name="Group 867" transform="translate(-1.656 12.723)">
      <rect id="Rectangle_394" data-name="Rectangle 394" width="99.241" height="58.905" transform="translate(5.651 16.178)" fill="#126800"/>
      <g id="Group_866" data-name="Group 866">
        <g id="Group_865" data-name="Group 865" clip-path="url(#clip-path)">
          <path id="Path_636" data-name="Path 636" d="M143.416,6.167H88.4V5.931a.448.448,0,0,1,.448-.448h54.116a.448.448,0,0,1,.448.448Z" transform="translate(-60.722 -3.766)" fill="#a3a3a3"/>
          <path id="Path_637" data-name="Path 637" d="M110,20.3H0v-.252a.72.72,0,0,1,.72-.72H109.282a.72.72,0,0,1,.72.72Z" transform="translate(0 -13.278)" fill="#a3a3a3"/>
          <rect id="Rectangle_395" data-name="Rectangle 395" width="55.013" height="3.652" transform="translate(27.682 2.401)" fill="#c4c4c4"/>
          <rect id="Rectangle_396" data-name="Rectangle 396" width="110.001" height="5.967" transform="translate(0 7.025)" fill="#c4c4c4"/>
          <path id="Path_638" data-name="Path 638" d="M108.944,44.677H1.245A1.245,1.245,0,0,1,0,43.432V41.491H110.189v1.941a1.245,1.245,0,0,1-1.245,1.245" transform="translate(0 -28.499)" fill="#a3a3a3"/>
          <path id="Path_639" data-name="Path 639" d="M18.048,110.57h99.241v-58.9H18.048ZM72.074,52.832H84.4a1.437,1.437,0,0,1,0,2.875H72.074a1.437,1.437,0,0,1,0-2.875m-22.177,0H62.219a1.437,1.437,0,1,1,0,2.875H49.9a1.437,1.437,0,0,1,0-2.875m-23.7,1.438a1.438,1.438,0,0,1,1.437-1.438H39.954a1.437,1.437,0,1,1,0,2.875H27.632a1.437,1.437,0,0,1-1.437-1.437m75.273,44.156a3.514,3.514,0,0,1-3.515,3.515H36.9a3.514,3.514,0,0,1-3.515-3.515V60.871A3.515,3.515,0,0,1,36.9,57.356H97.953a3.515,3.515,0,0,1,3.515,3.515Zm5.5-42.719H94.649a1.437,1.437,0,0,1,0-2.875h12.323a1.437,1.437,0,0,1,0,2.875" transform="translate(-12.397 -35.487)" fill="#c4c4c4"/>
          <rect id="Rectangle_397" data-name="Rectangle 397" width="102.138" height="9.753" transform="translate(3.77 75.083)" fill="#c4c4c4"/>
          <path id="Path_640" data-name="Path 640" d="M44.168,0h7.085l.589,6.053H43.467Z" transform="translate(-29.856 0)" fill="#29abe2"/>
          <path id="Path_641" data-name="Path 641" d="M286.832,0h7.085l.589,6.053h-8.375Z" transform="translate(-196.535 0)" fill="#c1272d"/>
          <path id="Path_642" data-name="Path 642" d="M148.829,95.525l.319-.473-4.163-.812-.158.324c-.226-.013-.454-.022-.684-.022a11.955,11.955,0,0,0-4.042,23.145l-.362,2.427,2.185-1.921a11.7,11.7,0,0,0,2.219.214,11.956,11.956,0,0,0,4.686-22.883m-15.281,10.951a10.659,10.659,0,0,1,10.6-10.721l.1,0-6.584,13.529,7.322-2.977-3.391,8.446-.972-.56-.338,2.265a10.72,10.72,0,0,1-6.736-9.984m10.6,10.721c-.347,0-.689-.018-1.027-.051l1.01-.889-.883-.589,6.332-12.811-6.951,1.855,5.515-8.166a10.741,10.741,0,0,1-4,20.651" transform="translate(-90.908 -64.731)" fill="#fbae17"/>
        </g>
      </g>
    </g>
  </g>
</svg>
