<svg id="Group_1017" data-name="Group 1017" xmlns="http://www.w3.org/2000/svg" xmlns:xlink="http://www.w3.org/1999/xlink" width="86.669" height="73.464" viewBox="0 0 86.669 73.464">
  <defs>
    <clipPath id="clip-path">
      <rect id="Rectangle_508" data-name="Rectangle 508" width="86.669" height="73.464" fill="none"/>
    </clipPath>
  </defs>
  <g id="Group_1016" data-name="Group 1016" clip-path="url(#clip-path)">
    <path id="Path_766" data-name="Path 766" d="M74.1,83.291V77.777l-3.815-.67a139.5,139.5,0,0,1,34.489-.188c-.48.113-.962.218-1.439.34-.539.139-1.075.293-1.773.485v5.546Z" transform="translate(-44.697 -48.297)" fill="#a3a3a3"/>
    <path id="Path_767" data-name="Path 767" d="M20.1,80.426c-3.166-.033-3.385-.256-2.848-3.4A16.982,16.982,0,0,1,18.3,73.008a2.36,2.36,0,0,1,1.87-1.189A2.588,2.588,0,0,1,21.8,73.388a29.014,29.014,0,0,1,.851,4.087c.531,2.728.313,2.981-2.551,2.951" transform="translate(-10.824 -45.671)" fill="#c1272d"/>
    <path id="Path_768" data-name="Path 768" d="M210.34,80.4c-2.964.022-3.2-.254-2.677-3a27.221,27.221,0,0,1,.864-4.085,2.553,2.553,0,0,1,1.642-1.54,2.3,2.3,0,0,1,1.846,1.235,22.972,22.972,0,0,1,1.208,5.9c.075,2.141-1.917,1.171-2.882,1.493" transform="translate(-131.928 -45.644)" fill="#c1272d"/>
    <path id="Path_769" data-name="Path 769" d="M86.526,41.519a34.9,34.9,0,0,0-1.273-7.752,60.577,60.577,0,0,0-2.91-6.976,5.983,5.983,0,0,0,1.907-.652c.849-.723,2.161-1.651,2.135-2.458a4.108,4.108,0,0,0-1.97-2.849,5.48,5.48,0,0,0-5.8-.141,2.233,2.233,0,0,1-1.319.214c-.191-.02-.382-.052-.573-.09-1.234-6.422-5.1-14.724-5.543-15.655h.02l.185-.715C69.007,3.585,66.7,2.386,64.245,1.92a108.958,108.958,0,0,0-38.893-.335,62.913,62.913,0,0,0-8.763,2.652c-.355.116-.6.568-.829.849l-.035-.017c-.044.092-4.436,9.284-5.654,16.1l.2.036-1.012.028a2.113,2.113,0,0,1-1.114-.448c-2.114-1.45-4.209-.857-6.136.25C-.169,22.288.034,24.892,2.288,26c.725.356,1.5.606,2.408.964-.98,2.353-1.8,4.589-2.827,6.725A15.071,15.071,0,0,0,.494,43.079a11.883,11.883,0,0,1,.214,2.685C.506,49.4.1,53.034.026,56.673c-.079,4.134.03,8.279.234,12.41.161,3.264,1.057,4.078,4.2,4.234a43.115,43.115,0,0,0,4.413-.063,2.769,2.769,0,0,0,2.824-2.6c.192-1.368.261-2.754.4-4.253,2.344.756,4.2.539,5.433-1.87a3.37,3.37,0,0,1,2.289-1.458,75.4,75.4,0,0,1,8.94-.7c10.776-.079,21.555-.131,32.329.036A42.02,42.02,0,0,1,69.5,63.88a2.624,2.624,0,0,1,1.471,1.588c.384,1.141.9,1.652,2.119,1.315.528-.147,1.085-.192,1.882-.326.079.7.133,1.175.188,1.653.558,4.834.981,5.221,5.828,5.344,4.464.113,5.343-.611,5.5-5.083.157-4.554.142-9.114.154-13.671.012-4.394.1-8.8-.113-13.18M9.271,34.835c-3.166-.033-3.384-.255-2.848-3.4a16.98,16.98,0,0,1,1.056-4.015,2.36,2.36,0,0,1,1.87-1.189A2.59,2.59,0,0,1,10.971,27.8a29.065,29.065,0,0,1,.851,4.087c.53,2.728.313,2.981-2.551,2.951m49.364-5.873c-.539.139-1.075.293-1.773.485v5.546H29.4V29.479l-3.815-.67a139.507,139.507,0,0,1,34.489-.188c-.48.113-.962.218-1.439.34m16-8.494c-11.856-.042-23.714-.154-35.569-.019-9.524.108-19.046.5-28.569.753,1.22-6.758,5.568-15.859,5.612-15.95l-.19-.091h55.03l-.19.091c.043.089,4.19,8.771,5.52,15.471a7.79,7.79,0,0,0-1.644-.255m3.78,14.365c-2.963.022-3.2-.254-2.677-3a27.278,27.278,0,0,1,.863-4.085,2.556,2.556,0,0,1,1.642-1.54,2.3,2.3,0,0,1,1.846,1.235,22.972,22.972,0,0,1,1.208,5.9c.075,2.141-1.917,1.171-2.882,1.493" transform="translate(0 0)" fill="#c4c4c4"/>
  </g>
</svg>
