<svg id="Group_1013" data-name="Group 1013" xmlns="http://www.w3.org/2000/svg" xmlns:xlink="http://www.w3.org/1999/xlink" width="100.813" height="100.948" viewBox="0 0 100.813 100.948">
  <defs>
    <clipPath id="clip-path">
      <rect id="Rectangle_506" data-name="Rectangle 506" width="100.813" height="100.948" fill="none"/>
    </clipPath>
  </defs>
  <g id="Group_1012" data-name="Group 1012" clip-path="url(#clip-path)">
    <path id="Path_728" data-name="Path 728" d="M.038,135.848q.019-7.942.035-15.885C.086,104.371-.1,88.779.083,73.186a71.514,71.514,0,0,1,.585-9.017A5.229,5.229,0,0,1,3.3,59.857c.931-.5,1.724-1.249,2.7-1.7a7.16,7.16,0,0,1-1.824,1.873A3.654,3.654,0,0,0,2.664,62.22c-.815,4.85-.714,9.767-1.071,14.65-.165,2.265-.05,4.539-.185,6.816-.227,3.842-.183,7.7-.221,11.555-.131,13.236-.057,26.473-.062,39.71a2.645,2.645,0,0,1-.227,1.5,1.966,1.966,0,0,1-.86-.6" transform="translate(0 -36.278)" fill="#e7ab4f"/>
    <path id="Path_729" data-name="Path 729" d="M2.385,135.783a2.644,2.644,0,0,0,.227-1.5c0-13.237-.069-26.475.062-39.71.038-3.85-.006-7.712.221-11.555.135-2.276.02-4.551.185-6.816.357-4.883.255-9.8,1.07-14.65a3.654,3.654,0,0,1,1.511-2.194,7.148,7.148,0,0,0,1.824-1.873c.252-.217.488-.468.872-.389a2.965,2.965,0,0,1-.637,1,32.427,32.427,0,0,0-2.529,3.414A6.79,6.79,0,0,0,4.864,64q-.4,17.533-.786,35.067-.412,18.471-.547,36.947c0,.183-.031.365-.048.548a2.618,2.618,0,0,1-1.1-.773" transform="translate(-1.488 -35.608)" fill="#da8e2d"/>
    <path id="Path_730" data-name="Path 730" d="M41.922,51.54l-2.479-1.926c.736-1,1.442-2.014,2.219-2.976.567-.7.741-1.366.012-2.005-.766-.673-1.366-.278-1.96.362-.863.929-1.333,2.2-2.515,2.846l-2.348-1.669A20.041,20.041,0,0,1,37.008,43.3a1.741,1.741,0,0,0,.406-1.739,1.238,1.238,0,0,0-1.115-.791c-.836-.075-1.165.67-1.607,1.173-.688.784-1.113,1.8-2.079,2.338a6.444,6.444,0,0,1-2.723-6.7,9.174,9.174,0,0,0,.119-3.919,3.772,3.772,0,0,0-1.127-2.078c.185-.272.36-.552.559-.813,3.031-3.981,6.234-7.829,9.145-11.9-.021.183-.054.369.13.5,1.863,1.309,4.052,2.223,6.54.624Q57.514,12.115,69.815,4.3q2.559-1.633,5.122-3.259a5.588,5.588,0,0,1,6.875.288q17.333,13.416,34.657,26.844c.261.2.506.424.759.636a70.554,70.554,0,0,1-4.545,6.156c-3,3.969-6.166,7.813-9.152,11.791-2.218,2.954-4.593,5.781-6.78,8.761-2.7,3.684-5.631,7.205-8.441,10.813-2.653,3.406-5.311,6.809-7.9,10.263-.734.979-1.761,1.782-2.066,3.058a10.82,10.82,0,0,1-1.963-1.431,11.14,11.14,0,0,1,2.091-3.036c.438-.59.865-1.163.151-1.819a1.25,1.25,0,0,0-2,.135c-.853,1-1.669,2.023-2.5,3.038l-2.184-1.786a1.877,1.877,0,0,1,.514-1.287c.544-.682,1.082-1.37,1.594-2.076.406-.56.52-1.2-.078-1.662a1.284,1.284,0,0,0-1.793.05c-.261.249-.443.58-.706.826-.733.685-1.052,1.752-2.036,2.2L67.1,71.123a2.161,2.161,0,0,1,.559-1.045c.618-.765,1.237-1.531,1.807-2.332A1.18,1.18,0,0,0,69.2,66a1.048,1.048,0,0,0-1.63.2,8.922,8.922,0,0,1-.712.828c-.721.7-1.061,1.744-2.02,2.225L62.45,67.458c.829-1.146,1.689-2.271,2.472-3.447a1.054,1.054,0,0,0-.318-1.54,1.148,1.148,0,0,0-1.585.111,10.134,10.134,0,0,0-1.407,1.667c-.4.53-.608,1.264-1.38,1.444l-2.224-1.738a17.359,17.359,0,0,1,2.217-3.24A1.24,1.24,0,0,0,60,58.944a1.043,1.043,0,0,0-1.637.11c-.349.375-.65.8-1.025,1.145-.641.591-.855,1.553-1.718,1.941l-2.236-1.753c.516-1.227,1.574-2.082,2.211-3.222.336-.6.48-1.293-.138-1.783a1.2,1.2,0,0,0-1.835.236q-1.246,1.519-2.5,3.033l-2.368-1.834c.03-.474.385-.778.63-1.124.547-.772,1.151-1.5,1.722-2.256a1.11,1.11,0,0,0-.11-1.5,1.184,1.184,0,0,0-1.4-.326,2.447,2.447,0,0,0-1.031.952q-1.021,1.268-2.05,2.53l-2.4-1.855a11.442,11.442,0,0,1,2.154-2.876,1.32,1.32,0,0,0-.02-2.045,1.224,1.224,0,0,0-1.917.242c-.82.98-1.615,1.983-2.42,2.976M74.16,19.08a1.3,1.3,0,0,1-.408.975c-.632.805-1.226,1.64-1.822,2.473a1.267,1.267,0,0,0-.079,1.358,1.244,1.244,0,0,0,1.214.622c.58-.023.924-.518,1.287-.945.743-.87,1.163-2.037,2.308-2.542l2.323,1.742a31.163,31.163,0,0,1-2.2,2.84c-.6.881-.611,1.745.087,2.213.921.617,1.391,0,2-.629.818-.85,1.158-2.143,2.389-2.6L83.482,26.3a13.014,13.014,0,0,1-1.9,2.687,1.723,1.723,0,0,0-.152,2.43c.635.5,1.285.2,2.094-.749.743-.869,1.171-2.041,2.329-2.529l2.235,1.739a16.47,16.47,0,0,1-2.117,2.9c-.32.417-.663.828-.491,1.385a1.27,1.27,0,0,0,.908,1.016,1.425,1.425,0,0,0,1.393-.437c.954-.96,1.393-2.34,2.569-3.112l2.363,1.809a17.281,17.281,0,0,1-2.068,2.832c-.746.917-.79,1.623-.077,2.2.648.524,1.256.287,2.037-.543.827-.879,1.3-2.058,2.345-2.739.761.578,1.518,1.16,2.283,1.733a3.855,3.855,0,0,0,5.586-.686c.786-.972,1.545-1.968,2.293-2.971a3.844,3.844,0,0,0-.742-5.656Q94,19.546,83.6,11.52a5.207,5.207,0,0,0-4.463-1.083c-2.691.611-4.825,2.3-6.845,4.043-1,.86-.718,2.322.345,3.332.478.454,1.014.848,1.523,1.268m-5.68,8.656c-.323.059-.418.305-.573.506q-3.933,5.089-7.88,10.167-3.094,4-6.169,8.014c-.375.488-.657.859.087,1.411,2.941,2.185,5.817,4.459,8.72,6.7,4.412,3.4,8.773,6.864,13.217,10.224,1.085.82,1.305.059,1.732-.491,2.133-2.748,4.238-5.518,6.362-8.273,2.5-3.25,5.008-6.5,7.541-9.73.346-.442.172-.593-.169-.848-.88-.659-1.733-1.355-2.6-2.029q-4.691-3.64-9.386-7.274-5.221-4.03-10.456-8.044l-.424-.33" transform="translate(-18.017 0)" fill="#c4c4c4"/>
    <path id="Path_731" data-name="Path 731" d="M160.366,127.429c.3-1.276,1.332-2.079,2.066-3.058,2.59-3.454,5.247-6.857,7.9-10.263,2.81-3.608,5.737-7.128,8.441-10.813,2.187-2.98,4.563-5.807,6.78-8.761,2.987-3.978,6.153-7.822,9.152-11.791a70.555,70.555,0,0,0,4.545-6.156c.588.282.871.854,1.261,1.325.048.176.064.371.272.451l-.036.021a5.37,5.37,0,0,1-1.284,4.588q-16.821,21.6-33.554,43.27c-1.579,2.039-3.688,2.5-5.542,1.187" transform="translate(-100.039 -47.776)" fill="#a9aaaa"/>
    <path id="Path_732" data-name="Path 732" d="M24.41,58.587l-.865-.489,8.818-13.19a3.12,3.12,0,0,0,1.782,1.286c-1.825,2.375-3.632,4.762-5.479,7.12-1.393,1.778-2.836,3.517-4.256,5.273" transform="translate(-14.688 -28.014)" fill="#aaaaab"/>
    <path id="Path_733" data-name="Path 733" d="M25.516,60.188c1.421-1.756,2.863-3.5,4.256-5.273,1.847-2.357,3.655-4.745,5.479-7.12.16-.324.4-.458.653-.137.193.242.915.221.458.826-2.912,4.073-6.115,7.92-9.145,11.9-.2.261-.373.542-.558.813-.293.237-.5.518-.971.144-.5-.394-.428-.723-.172-1.154" transform="translate(-15.794 -29.615)" fill="#d4d5d6"/>
    <path id="Path_734" data-name="Path 734" d="M12.782,49.433c-.884.231-1.261-.053-1.144-.864.317-.094.423-.381.585-.624,1.3-1.952,2.712-3.833,3.967-5.812.444-.7,2.75-4.183,2.763-4.487.583-.79.591-.759,1.14-1.571.53-.783.924-.638,1.3.1-.3.495-.592,1-.915,1.483-2.127,3.169-4.276,6.324-6.385,9.5a6.59,6.59,0,0,0-1.311,2.267" transform="translate(-7.247 -22.177)" fill="#d4d5d6"/>
    <path id="Path_735" data-name="Path 735" d="M30.868,43.731,22.05,56.921c-.747.2-.972-.156-.884-.839.237-.321.485-.632.708-.962Q25.939,49.087,30,43.05c.553-.109.857.1.871.681" transform="translate(-13.193 -26.838)" fill="#d4d5d6"/>
    <path id="Path_736" data-name="Path 736" d="M17.191,53.222c-.895.234-.945-.375-.99-.99.459-.032.547-.45.743-.738,1.566-2.3,3.142-4.59,4.673-6.911,1.126-1.707,2.373-3.337,3.333-5.152.861-.335,1.106.08,1.05.863a3.621,3.621,0,0,0-.541.529q-4.143,6.194-8.268,12.4" transform="translate(-10.106 -24.524)" fill="#d4d5d6"/>
    <path id="Path_737" data-name="Path 737" d="M24.023,38.124c-.96,1.814-2.207,3.445-3.333,5.152-1.531,2.321-3.107,4.613-4.673,6.911-.2.288-.284.706-.743.738a.731.731,0,0,1-.559-.45,6.583,6.583,0,0,1,1.311-2.267c2.109-3.181,4.258-6.336,6.385-9.5.324-.482.611-.988.915-1.483-.013.491.43.63.7.905" transform="translate(-9.179 -23.218)" fill="#aaaaab"/>
    <path id="Path_738" data-name="Path 738" d="M18.832,54.846q4.131-6.2,8.268-12.4a3.621,3.621,0,0,1,.541-.529c.334.086.527.462.912.444Q24.492,48.4,20.429,54.43c-.222.33-.471.642-.708.962l-.89-.547" transform="translate(-11.748 -26.149)" fill="#aaaaab"/>
    <path id="Path_739" data-name="Path 739" d="M267.355,80.559c-.208-.08-.223-.276-.272-.451.243.058.284.238.272.451" transform="translate(-166.611 -49.973)" fill="#014682"/>
    <path id="Path_740" data-name="Path 740" d="M18.442,56.537l-.215.237c-.033-.174.09-.207.215-.237" transform="translate(-11.367 -35.269)" fill="#da8e2d"/>
    <path id="Path_741" data-name="Path 741" d="M38.743,111.871c.965-.539,1.391-1.555,2.079-2.338.442-.5.771-1.249,1.607-1.173a1.238,1.238,0,0,1,1.115.791,1.741,1.741,0,0,1-.405,1.739,19.983,19.983,0,0,0-2.156,2.876,1.724,1.724,0,0,1-1.105.006c-.527-.545-1.344-.916-1.134-1.9" transform="translate(-24.147 -67.593)" fill="#aaaaab"/>
    <path id="Path_742" data-name="Path 742" d="M50.992,121.273c1.182-.643,1.653-1.917,2.515-2.846.594-.64,1.194-1.035,1.961-.362.728.64.554,1.3-.013,2.005-.777.962-1.483,1.982-2.219,2.977-1.121.451-2.1-.319-2.243-1.774" transform="translate(-31.81 -73.433)" fill="#aaaaab"/>
    <path id="Path_743" data-name="Path 743" d="M99.969,159.311c.863-.388,1.078-1.35,1.718-1.941.375-.346.676-.769,1.025-1.144a1.043,1.043,0,0,1,1.637-.111,1.241,1.241,0,0,1,.22,1.772,17.347,17.347,0,0,0-2.217,3.24,1.811,1.811,0,0,1-2.383-1.815" transform="translate(-62.363 -97.171)" fill="#a9aaaa"/>
    <path id="Path_744" data-name="Path 744" d="M88,149.955q1.249-1.516,2.5-3.033a1.2,1.2,0,0,1,1.835-.236c.619.491.474,1.183.138,1.783-.637,1.139-1.7,1.995-2.212,3.222A1.678,1.678,0,0,1,88,149.955" transform="translate(-54.893 -91.303)" fill="#aaaaab"/>
    <path id="Path_745" data-name="Path 745" d="M63.542,131.071c.806-.993,1.6-2,2.421-2.976a1.224,1.224,0,0,1,1.917-.242,1.32,1.32,0,0,1,.02,2.044,11.451,11.451,0,0,0-2.153,2.876,1.654,1.654,0,0,1-2.2-1.7" transform="translate(-39.638 -79.531)" fill="#aaaaab"/>
    <path id="Path_746" data-name="Path 746" d="M136.632,187.873c.984-.449,1.3-1.516,2.036-2.2.263-.246.445-.578.706-.826a1.284,1.284,0,0,1,1.793-.05c.6.463.484,1.1.078,1.662-.512.706-1.05,1.394-1.594,2.076a1.877,1.877,0,0,0-.514,1.287c-1.645.176-2.7-.866-2.5-1.948" transform="translate(-85.218 -115.067)" fill="#a9aaaa"/>
    <path id="Path_747" data-name="Path 747" d="M75.763,140.537q1.025-1.265,2.05-2.53a2.443,2.443,0,0,1,1.031-.952,1.184,1.184,0,0,1,1.4.326,1.11,1.11,0,0,1,.11,1.5c-.571.754-1.176,1.484-1.722,2.256-.245.346-.6.65-.63,1.124a1.675,1.675,0,0,1-2.236-1.72" transform="translate(-47.255 -85.44)" fill="#a9aaaa"/>
    <path id="Path_748" data-name="Path 748" d="M124.452,178.193c.96-.481,1.3-1.525,2.02-2.225a8.924,8.924,0,0,0,.712-.828,1.048,1.048,0,0,1,1.63-.2,1.18,1.18,0,0,1,.273,1.746c-.57.8-1.189,1.567-1.807,2.332a2.161,2.161,0,0,0-.559,1.045,1.814,1.814,0,0,1-2.27-1.875" transform="translate(-77.635 -108.944)" fill="#aaaaab"/>
    <path id="Path_749" data-name="Path 749" d="M149.127,197.474c.832-1.014,1.648-2.042,2.5-3.037a1.25,1.25,0,0,1,2-.136c.714.656.287,1.229-.151,1.819a11.146,11.146,0,0,0-2.091,3.036,1.7,1.7,0,0,1-2.262-1.682" transform="translate(-93.025 -120.935)" fill="#a9aaaa"/>
    <path id="Path_750" data-name="Path 750" d="M112.219,168.842c.772-.181.981-.914,1.38-1.444a10.119,10.119,0,0,1,1.407-1.667,1.148,1.148,0,0,1,1.585-.111,1.054,1.054,0,0,1,.318,1.54c-.783,1.176-1.643,2.3-2.472,3.447-1.147.388-2.156-.414-2.219-1.765" transform="translate(-70.004 -103.15)" fill="#a9aaaa"/>
    <path id="Path_751" data-name="Path 751" d="M109.27,73.732c.141.109.282.22.425.33q5.228,4.022,10.455,8.045,4.7,3.628,9.386,7.273c.869.674,1.721,1.369,2.6,2.029.34.255.514.407.169.848-2.532,3.229-5.036,6.48-7.541,9.73-2.124,2.756-4.228,5.526-6.362,8.274-.427.55-.647,1.311-1.732.491-4.443-3.36-8.8-6.825-13.216-10.224-2.9-2.237-5.778-4.512-8.72-6.7-.744-.552-.462-.923-.087-1.411q3.081-4.01,6.169-8.014,3.935-5.087,7.879-10.167c.156-.2.251-.447.573-.506m14.322,21.179a6.751,6.751,0,0,0-4.569-6.615c-4.136-1.353-8.452-1.508-12.748-1.761-.5-.029-.653.124-.492.64,1.246,4.006,2.475,8.025,4.706,11.623a6.767,6.767,0,0,0,7.926,3.016,7.141,7.141,0,0,0,5.178-6.9" transform="translate(-58.807 -45.995)" fill="#a3a3a3"/>
    <path id="Path_752" data-name="Path 752" d="M181.872,79.273a1.713,1.713,0,0,1,2.262,1.749c-1.175.772-1.614,2.152-2.568,3.112a1.426,1.426,0,0,1-1.393.437,1.269,1.269,0,0,1-.908-1.016c-.172-.557.171-.968.491-1.385a16.481,16.481,0,0,0,2.117-2.9" transform="translate(-111.8 -49.397)" fill="#aaaaab"/>
    <path id="Path_753" data-name="Path 753" d="M145.152,50.7a2.034,2.034,0,0,1,2.5,1.941c-1.145.5-1.566,1.671-2.308,2.542-.364.426-.707.922-1.287.945a1.244,1.244,0,0,1-1.214-.622,1.268,1.268,0,0,1,.079-1.358c.6-.832,1.19-1.668,1.822-2.473a1.294,1.294,0,0,0,.408-.975" transform="translate(-89.009 -31.623)" fill="#aaaaab"/>
    <path id="Path_754" data-name="Path 754" d="M157.678,60.381c1.169-.324,2.063.391,2.274,1.82-1.232.46-1.571,1.754-2.389,2.6-.607.63-1.077,1.246-2,.629-.7-.468-.689-1.332-.087-2.213a31.112,31.112,0,0,0,2.2-2.84" transform="translate(-96.713 -37.619)" fill="#a9aaaa"/>
    <path id="Path_755" data-name="Path 755" d="M169.9,69.787c1.255-.3,2.156.394,2.373,1.839-1.158.488-1.587,1.66-2.329,2.529-.809.948-1.458,1.249-2.094.749a1.724,1.724,0,0,1,.152-2.431,13,13,0,0,0,1.9-2.687" transform="translate(-104.44 -43.491)" fill="#a9aaaa"/>
    <path id="Path_756" data-name="Path 756" d="M194.165,88.736a1.726,1.726,0,0,1,2.238,1.75c-1.05.681-1.519,1.86-2.346,2.739-.781.83-1.389,1.066-2.037.543-.713-.576-.669-1.282.077-2.2a17.263,17.263,0,0,0,2.067-2.832" transform="translate(-119.468 -55.303)" fill="#aaaaab"/>
    <path id="Path_757" data-name="Path 757" d="M142.584,116.136a7.141,7.141,0,0,1-5.178,6.9,6.767,6.767,0,0,1-7.926-3.016c-2.231-3.6-3.46-7.617-4.706-11.623-.161-.516-.007-.67.492-.64,4.3.253,8.612.408,12.748,1.761a6.751,6.751,0,0,1,4.569,6.615" transform="translate(-77.799 -67.221)" fill="#006837"/>
    <path id="Path_758" data-name="Path 758" d="M18.235,57.137l.006-.007s0-.007,0-.011l-.009.018" transform="translate(-11.375 -35.632)" fill="#a9aaaa"/>
    <path id="Path_759" data-name="Path 759" d="M17.023,42.075c-.213.238-1.965,2.5-1.965,2.5v0c-.611.781-1.161,1.613-1.839,2.338l-.21.23a3.015,3.015,0,0,1-.633.993,32.309,32.309,0,0,0-2.528,3.415,1.22,1.22,0,0,0,.687.486c.317-.094.423-.381.585-.624.923-1.385,1.531-2.151,2.449-3.539l.454-.661.683-1.038,2.484-3.738.66-1.324s-.612.717-.825.956" transform="translate(-6.142 -25.651)" fill="#a9aaaa"/>
  </g>
</svg>
