<svg id="Group_1021" data-name="Group 1021" xmlns="http://www.w3.org/2000/svg" xmlns:xlink="http://www.w3.org/1999/xlink" width="86.663" height="86.84" viewBox="0 0 86.663 86.84">
  <defs>
    <clipPath id="clip-path">
      <rect id="Rectangle_510" data-name="Rectangle 510" width="86.663" height="86.84" fill="none"/>
    </clipPath>
  </defs>
  <g id="Group_1020" data-name="Group 1020" clip-path="url(#clip-path)">
    <path id="Path_791" data-name="Path 791" d="M107.823,0h3.555c.383.317.847.153,1.27.2a42.287,42.287,0,0,1,22.638,9.326c10.574,8.656,16.069,19.86,16.372,33.558a2.551,2.551,0,0,1-2.783,2.791q-1.226.016-2.452.028h-5.087q-3.55-.014-7.1-.028c-2.067-.007-3-.893-3.062-2.95a21.414,21.414,0,0,0-1.876-8.606c-4.071-8.647-10.9-13.295-20.47-13.8a3,3,0,0,1-3.011-1.963q-.027-4.113-.055-8.227V5.243c.009-.7.062-1.4.019-2.1A2.822,2.822,0,0,1,107.823,0" transform="translate(-64.995)" fill="#006837"/>
    <path id="Path_792" data-name="Path 792" d="M40.808,95.009c-.286.063-.618-.079-.858.19H38.257c-.064-.348-.342-.324-.592-.33a26.61,26.61,0,0,1-4.262-.525A40.752,40.752,0,0,1,12.711,83.766a39.608,39.608,0,0,1-7.4-9.486A40.7,40.7,0,0,1,.456,60.317c-.083-.549.2-1.265-.456-1.681v-.508c.209-.169.2-.338,0-.508V50.849c.2-.169.209-.339,0-.508v-.508c.3-.048.307-.277.333-.508a38.921,38.921,0,0,1,5.1-15.279A40.831,40.831,0,0,1,40.769,13.6v5.085c-.927.012-1.85.062-2.777.135a35.364,35.364,0,0,0-9.364,2.028A35.748,35.748,0,0,0,7.682,41.393,34.594,34.594,0,0,0,5.392,57.02a36.66,36.66,0,0,0,1.986,9.287A35.6,35.6,0,0,0,22.494,84.646a34.982,34.982,0,0,0,18.292,5.128l.019.018q0,2.609,0,5.218" transform="translate(0 -8.36)" fill="#a3a3a3"/>
    <path id="Path_793" data-name="Path 793" d="M0,108.91c.209.169.2.338,0,.508Z" transform="translate(0 -66.929)" fill="#fefefe"/>
    <path id="Path_794" data-name="Path 794" d="M0,127.794c.2.169.209.338,0,.508Z" transform="translate(0 -78.534)" fill="#fefefe"/>
    <path id="Path_795" data-name="Path 795" d="M49.175,97.88a34.98,34.98,0,0,1-18.292-5.127A35.6,35.6,0,0,1,15.767,74.414a36.661,36.661,0,0,1-1.987-9.287A34.6,34.6,0,0,1,16.071,49.5,35.745,35.745,0,0,1,37.015,28.958a35.364,35.364,0,0,1,9.364-2.028c.927-.073,1.85-.123,2.777-.135q.028,4.113.055,8.227-.018,3.5-.036,7a21.864,21.864,0,0,0-5.566.812A19.434,19.434,0,0,0,33.792,49.1a19.9,19.9,0,0,0-4.771,15.422,19.643,19.643,0,0,0,4.94,11.243,20.114,20.114,0,0,0,15.214,6.9v5.06a2.548,2.548,0,0,0,0,5.1q0,2.53,0,5.06M23.792,62.3a2.538,2.538,0,1,0-2.48,2.575,2.6,2.6,0,0,0,2.48-2.575m8.127-19.8a2.507,2.507,0,0,0-2.485-2.463,2.634,2.634,0,0,0-2.553,2.622,2.5,2.5,0,0,0,2.529,2.417A2.427,2.427,0,0,0,31.919,42.5m0,39.582a2.423,2.423,0,0,0-2.432-2.474,2.526,2.526,0,0,0-2.625,2.511,2.773,2.773,0,0,0,2.5,2.528,2.48,2.48,0,0,0,2.555-2.565" transform="translate(-8.389 -16.466)" fill="#c4c4c4"/>
    <path id="Path_796" data-name="Path 796" d="M105.811,100.839v-5.06l.019-.019a14.5,14.5,0,0,0,2.185-.142,19.173,19.173,0,0,0,11.248-4.964,20.335,20.335,0,0,0-.778-31.042,19.955,19.955,0,0,0-12.655-4.461l-.019-.018q.018-3.5.036-7a3,3,0,0,0,3.011,1.964c9.567.505,16.4,5.153,20.471,13.8a21.419,21.419,0,0,1,1.875,8.606c.059,2.058,1,2.944,3.062,2.951q3.55.011,7.1.027a22.813,22.813,0,0,1-.193,4.209,34.994,34.994,0,0,1-3.717,12.03,35.712,35.712,0,0,1-7.121,9.445,35.046,35.046,0,0,1-8.417,6,34.249,34.249,0,0,1-16.089,3.84l-.019-.018q0-2.53,0-5.06l.019-.019a2.53,2.53,0,0,0,0-5.059Zm17.274-5.626a2.5,2.5,0,0,0,2.485,2.547,2.719,2.719,0,0,0,2.554-2.551,2.5,2.5,0,0,0-2.628-2.487,2.428,2.428,0,0,0-2.41,2.492" transform="translate(-65.025 -29.581)" fill="#d2d2d7"/>
    <path id="Path_797" data-name="Path 797" d="M105.86,154.611a34.248,34.248,0,0,0,16.089-3.84,35.046,35.046,0,0,0,8.417-6,35.712,35.712,0,0,0,7.121-9.445,34.994,34.994,0,0,0,3.717-12.03,22.816,22.816,0,0,0,.193-4.209h5.087a40.837,40.837,0,0,1-33.407,40.113,32.827,32.827,0,0,1-7.213.634q0-2.609,0-5.218" transform="translate(-65.055 -73.179)" fill="#c4c4c4"/>
    <path id="Path_798" data-name="Path 798" d="M73.479,106.934a20.114,20.114,0,0,1-15.214-6.9,19.646,19.646,0,0,1-4.94-11.243A19.9,19.9,0,0,1,58.1,73.373,19.433,19.433,0,0,1,67.914,67.1a21.863,21.863,0,0,1,5.565-.812l.019.018q0,5.064,0,10.129l-1.5.185a10.164,10.164,0,0,0-8.407,12.033C64.7,93.447,68.4,96.481,73.5,96.786q0,5.065,0,10.129Z" transform="translate(-32.692 -40.737)" fill="#a3a3a3"/>
    <path id="Path_799" data-name="Path 799" d="M31.868,114.927a2.538,2.538,0,1,1-2.554-2.5,2.6,2.6,0,0,1,2.554,2.5" transform="translate(-16.464 -69.09)" fill="#a3a3a3"/>
    <path id="Path_800" data-name="Path 800" d="M53.011,63.607A2.428,2.428,0,0,1,50.5,66.184a2.5,2.5,0,0,1-2.529-2.418,2.635,2.635,0,0,1,2.553-2.622,2.507,2.507,0,0,1,2.485,2.463" transform="translate(-29.48 -37.575)" fill="#a3a3a3"/>
    <path id="Path_801" data-name="Path 801" d="M52.983,166.278a2.48,2.48,0,0,1-2.555,2.565,2.773,2.773,0,0,1-2.5-2.528,2.526,2.526,0,0,1,2.625-2.511,2.423,2.423,0,0,1,2.432,2.474" transform="translate(-29.452 -100.663)" fill="#a3a3a3"/>
    <path id="Path_802" data-name="Path 802" d="M101.781,189.957a2.548,2.548,0,0,1,0-5.1l.019.019q0,2.529,0,5.059Z" transform="translate(-60.993 -113.603)" fill="#a3a3a3"/>
    <path id="Path_803" data-name="Path 803" d="M105.862,106.944q0-5.064,0-10.129c.667-.09,1.343-.142,2-.276a10.067,10.067,0,0,0,8.006-10.9,9.929,9.929,0,0,0-5.167-7.846,12.066,12.066,0,0,0-4.84-1.326q0-5.065,0-10.129A19.953,19.953,0,0,1,118.517,70.8a20.335,20.335,0,0,1,.778,31.042,19.171,19.171,0,0,1-11.248,4.963,14.457,14.457,0,0,1-2.185.142" transform="translate(-65.056 -40.766)" fill="#c4c4c4"/>
    <path id="Path_804" data-name="Path 804" d="M150.626,166.292a2.428,2.428,0,0,1,2.41-2.492,2.5,2.5,0,0,1,2.628,2.487,2.719,2.719,0,0,1-2.554,2.551,2.505,2.505,0,0,1-2.485-2.547" transform="translate(-92.565 -100.661)" fill="#c4c4c4"/>
    <path id="Path_805" data-name="Path 805" d="M105.862,189.968v-5.059a2.53,2.53,0,0,1,0,5.059" transform="translate(-65.056 -113.633)" fill="#c4c4c4"/>
  </g>
</svg>
