<svg xmlns="http://www.w3.org/2000/svg" xmlns:xlink="http://www.w3.org/1999/xlink" width="300" height="147" viewBox="0 0 300 147">
  <defs>
    <clipPath id="clip-path">
      <rect id="Rectangle_529" data-name="Rectangle 529" width="224.794" height="50.448" fill="none"/>
    </clipPath>
  </defs>
  <g id="Group_1041" data-name="Group 1041" transform="translate(-57 -415)">
    <g id="Rectangle_528" data-name="Rectangle 528" transform="translate(57 415)" fill="#fff" stroke="#707070" stroke-width="1">
      <rect width="300" height="147" stroke="none"/>
      <rect x="0.5" y="0.5" width="299" height="146" fill="none"/>
    </g>
    <g id="Group_1029" data-name="Group 1029" transform="translate(85.486 463)">
      <g id="Group_1028" data-name="Group 1028" transform="translate(0 0)" clip-path="url(#clip-path)">
        <path id="Path_854" data-name="Path 854" d="M35.836,0c8.426.43,16.608.762,24.777,1.294,6.044.394,9.068,3.135,9.944,9.118a102.326,102.326,0,0,1,.024,29.719c-.907,6.215-3.78,8.766-10.076,9.291a296.571,296.571,0,0,1-49.084.017c-6.7-.553-9.392-2.972-10.357-9.554a99.659,99.659,0,0,1,.061-29.451c.9-5.977,3.587-8.645,9.627-9.09C19.174.725,27.621.425,35.836,0M28.729,36.113,47.371,25.33,28.729,14.579Z" transform="translate(0 0)" fill="#fe0000"/>
        <path id="Path_855" data-name="Path 855" d="M350.415,4.55h6.4V19.979c.417,0,.632.062.694-.009,2.054-2.342,4.525-3.6,7.664-2.676s4.035,3.636,4.11,6.363c.174,6.341.162,12.7-.15,19.036-.138,2.805-1.3,5.542-4.482,6.447-3.1.881-5.629-.245-7.849-2.829l-1.083,2.518h-5.309ZM356.892,33.8c0,2.349.063,4.7-.02,7.047-.067,1.9.407,3.344,2.539,3.506,2.217.168,2.925-1.464,2.969-3.19.135-5.291.086-10.587.089-15.882A4.185,4.185,0,0,0,362.232,24c-.746-2.285-2.849-2.767-4.333-.877a5.277,5.277,0,0,0-.968,2.845c-.13,2.6-.044,5.218-.041,7.828" transform="translate(-167.127 -2.17)"/>
        <path id="Path_856" data-name="Path 856" d="M210.889,44.618c-.341,3.279-.423,6.611-1.085,9.824-.9,4.365-3.789,6.32-8.58,6.4-5.257.085-8.224-1.685-9.192-6.251a44.637,44.637,0,0,1,.107-19.934c1.073-4.421,4.049-6.292,8.995-6.248,4.8.043,7.511,1.961,8.66,6.331a26.959,26.959,0,0,1,.72,4.893c.12,1.645.026,3.306.026,4.959l.349.028m-12.467.04h.01c0,2.781-.111,5.567.045,8.34.083,1.476.641,3.319,2.486,2.97a3.867,3.867,0,0,0,2.326-2.856c.245-5.547.275-11.114.046-16.661-.047-1.121-1.4-2.951-2.369-3.112-1.995-.331-2.4,1.7-2.5,3.24-.163,2.684-.046,5.385-.046,8.079" transform="translate(-91.076 -13.548)"/>
        <path id="Path_857" data-name="Path 857" d="M248.17,29.808h6.69V60.692c-4.786.847-5.043.721-5.882-3.181-.675.752-1.171,1.371-1.735,1.922a7.115,7.115,0,0,1-7,1.853,4.778,4.778,0,0,1-3.84-4.743c-.153-8.859-.062-17.722-.062-26.738h6.531c.04.785.119,1.616.121,2.447.014,6.364-.066,12.729.065,19.091.04,1.941-1.028,4.776,2.265,5.188,2.01.252,2.843-1.507,2.843-5.2q0-9.415,0-18.83V29.808" transform="translate(-112.71 -14.215)"/>
        <path id="Path_858" data-name="Path 858" d="M305.589,29.809h6.542c.048.9.139,1.812.141,2.727.015,6.712-.029,13.425.046,20.136.019,1.646-.272,3.93,2.316,3.846,2.239-.072,2.862-1.761,2.838-3.9-.078-6.711-.03-13.424-.019-20.136,0-.848.075-1.7.121-2.681h6.569v31.04h-5.078l-.618-2.433c-2.3,1.043-4.47,2.524-6.836,2.975-2.971.567-4.9-1.149-5.755-4.092a3.858,3.858,0,0,1-.256-1.011c-.015-8.774-.011-17.548-.011-26.475" transform="translate(-145.748 -14.215)"/>
        <path id="Path_859" data-name="Path 859" d="M159.24,50.267c-.13-.38-.248-.548-.232-.7,1.341-12.633-3.336-24.189-6.432-36.028-.441-1.685-.917-3.362-1.351-5.049a3.274,3.274,0,0,1,.051-.882h6.537l4.353,20.305.373.03c1.461-6.7,2.922-13.407,4.417-20.27h6.7c-.118.667-.179,1.322-.352,1.945-1.869,6.719-3.621,13.474-5.682,20.134a41.236,41.236,0,0,0-1.836,14.422c.1,1.979.016,3.967.016,6.095Z" transform="translate(-72.115 -3.627)"/>
        <path id="Path_860" data-name="Path 860" d="M406.358,50.7c.742,0,1.419-.017,2.094,0,4.126.124,4.643.86,3.277,4.8-1.229,3.543-4.04,4.852-7.5,5.045-3.536.2-6.908-.277-8.684-3.9a12.072,12.072,0,0,1-1.365-4.719,123.738,123.738,0,0,1,.034-15.117c.652-7.287,6.607-10.637,13.445-7.971a6.289,6.289,0,0,1,4.087,5.346c.481,4.03.627,8.1.943,12.548H400.55a39.7,39.7,0,0,0,.417,6.534c.225,1,1.53,1.751,2.346,2.614a17.011,17.011,0,0,0,2.527-2.517,7.582,7.582,0,0,0,.518-2.668m-.369-8.2a66.451,66.451,0,0,0-.527-7.431c-.143-.82-1.492-2.094-2.125-2A3.35,3.35,0,0,0,401,35.149a58.211,58.211,0,0,0-.475,7.342Z" transform="translate(-187.897 -13.32)"/>
        <path id="Path_861" data-name="Path 861" d="M283.136,13.1V50.3h-6.712v-37h-6.887V7.754h20.44V13.1Z" transform="translate(-128.553 -3.698)"/>
      </g>
    </g>
    <text id="Tutorial_" data-name="Tutorial " transform="translate(272 535)" fill="#040404" font-size="20" font-family="Helvetica"><tspan x="-71.514" y="0">Tutorial </tspan></text>
  </g>
</svg>
